<svg xmlns="http://www.w3.org/2000/svg" version="1.1" xmlns:xlink="http://www.w3.org/1999/xlink" xmlns:svgjs="http://svgjs.dev/svgjs" width="1440" height="560" preserveAspectRatio="none" viewBox="0 0 1440 560"><g mask="url(&quot;#SvgjsMask1133&quot;)" fill="none"><rect width="1440" height="560" x="0" y="0" fill="rgba(0, 0, 0, 1)"></rect><path d="M0 -48L41.57 -24L41.57 24L0 48L-41.57 24L-41.57 -24zM41.57 24L83.14 48L83.14 96L41.57 120L0 96L0 48zM0 96L41.57 120L41.57 168L0 192L-41.57 168L-41.57 120zM41.57 168L83.14 192L83.14 240L41.57 264L0 240L0 192zM0 240L41.57 264L41.57 312L0 336L-41.57 312L-41.57 264zM41.57 312L83.14 336L83.14 384L41.57 408L0 384L0 336zM0 384L41.57 408L41.57 456L0 480L-41.57 456L-41.57 408zM41.57 456L83.14 480L83.14 528L41.57 552L0 528L0 480zM0 528L41.57 552L41.57 600L0 624L-41.57 600L-41.57 552zM83.14 -48L124.71 -24L124.71 24L83.14 48L41.57 24L41.57 -24zM124.71 24L166.28 48L166.28 96L124.71 120L83.14 96L83.14 48zM83.14 96L124.71 120L124.71 168L83.14 192L41.57 168L41.57 120zM124.71 168L166.28 192L166.28 240L124.71 264L83.14 240L83.14 192zM83.14 240L124.71 264L124.71 312L83.14 336L41.57 312L41.57 264zM124.71 312L166.28 336L166.28 384L124.71 408L83.14 384L83.14 336zM83.14 384L124.71 408L124.71 456L83.14 480L41.57 456L41.57 408zM124.71 456L166.28 480L166.28 528L124.71 552L83.14 528L83.14 480zM83.14 528L124.71 552L124.71 600L83.14 624L41.57 600L41.57 552zM166.28 -48L207.85 -24L207.85 24L166.28 48L124.71 24L124.71 -24zM207.85 24L249.42 48L249.42 96L207.85 120L166.28 96L166.28 48zM166.28 96L207.85 120L207.85 168L166.28 192L124.71 168L124.71 120zM207.85 168L249.42 192L249.42 240L207.85 264L166.28 240L166.28 192zM166.28 240L207.85 264L207.85 312L166.28 336L124.71 312L124.71 264zM207.85 312L249.42 336L249.42 384L207.85 408L166.28 384L166.28 336zM166.28 384L207.85 408L207.85 456L166.28 480L124.71 456L124.71 408zM207.85 456L249.42 480L249.42 528L207.85 552L166.28 528L166.28 480zM166.28 528L207.85 552L207.85 600L166.28 624L124.71 600L124.71 552zM249.42 -48L290.99 -24L290.99 24L249.42 48L207.85 24L207.85 -24zM290.99 24L332.56 48L332.56 96L290.99 120L249.42 96L249.42 48zM249.42 96L290.99 120L290.99 168L249.42 192L207.85 168L207.85 120zM290.99 168L332.56 192L332.56 240L290.99 264L249.42 240L249.42 192zM249.42 240L290.99 264L290.99 312L249.42 336L207.85 312L207.85 264zM290.99 312L332.56 336L332.56 384L290.99 408L249.42 384L249.42 336zM249.42 384L290.99 408L290.99 456L249.42 480L207.85 456L207.85 408zM290.99 456L332.56 480L332.56 528L290.99 552L249.42 528L249.42 480zM249.42 528L290.99 552L290.99 600L249.42 624L207.85 600L207.85 552zM332.56 -48L374.13 -24L374.13 24L332.56 48L290.99 24L290.99 -24zM374.13 24L415.7 48L415.7 96L374.13 120L332.56 96L332.56 48zM332.56 96L374.13 120L374.13 168L332.56 192L290.99 168L290.99 120zM374.13 168L415.7 192L415.7 240L374.13 264L332.56 240L332.56 192zM332.56 240L374.13 264L374.13 312L332.56 336L290.99 312L290.99 264zM374.13 312L415.7 336L415.7 384L374.13 408L332.56 384L332.56 336zM332.56 384L374.13 408L374.13 456L332.56 480L290.99 456L290.99 408zM374.13 456L415.7 480L415.7 528L374.13 552L332.56 528L332.56 480zM332.56 528L374.13 552L374.13 600L332.56 624L290.99 600L290.99 552zM415.7 -48L457.27 -24L457.27 24L415.7 48L374.13 24L374.13 -24zM457.27 24L498.84 48L498.84 96L457.27 120L415.7 96L415.7 48zM415.7 96L457.27 120L457.27 168L415.7 192L374.13 168L374.13 120zM457.27 168L498.84 192L498.84 240L457.27 264L415.7 240L415.7 192zM415.7 240L457.27 264L457.27 312L415.7 336L374.13 312L374.13 264zM457.27 312L498.84 336L498.84 384L457.27 408L415.7 384L415.7 336zM415.7 384L457.27 408L457.27 456L415.7 480L374.13 456L374.13 408zM457.27 456L498.84 480L498.84 528L457.27 552L415.7 528L415.7 480zM415.7 528L457.27 552L457.27 600L415.7 624L374.13 600L374.13 552zM498.84 -48L540.42 -24L540.42 24L498.84 48L457.27 24L457.27 -24zM540.42 24L581.99 48L581.99 96L540.42 120L498.84 96L498.84 48zM498.84 96L540.42 120L540.42 168L498.84 192L457.27 168L457.27 120zM540.42 168L581.99 192L581.99 240L540.42 264L498.84 240L498.84 192zM498.84 240L540.42 264L540.42 312L498.84 336L457.27 312L457.27 264zM540.42 312L581.99 336L581.99 384L540.42 408L498.84 384L498.84 336zM498.84 384L540.42 408L540.42 456L498.84 480L457.27 456L457.27 408zM540.42 456L581.99 480L581.99 528L540.42 552L498.84 528L498.84 480zM498.84 528L540.42 552L540.42 600L498.84 624L457.27 600L457.27 552zM581.99 -48L623.56 -24L623.56 24L581.99 48L540.42 24L540.42 -24zM623.56 24L665.13 48L665.13 96L623.56 120L581.99 96L581.99 48zM581.99 96L623.56 120L623.56 168L581.99 192L540.42 168L540.42 120zM623.56 168L665.13 192L665.13 240L623.56 264L581.99 240L581.99 192zM581.99 240L623.56 264L623.56 312L581.99 336L540.42 312L540.42 264zM623.56 312L665.13 336L665.13 384L623.56 408L581.99 384L581.99 336zM581.99 384L623.56 408L623.56 456L581.99 480L540.42 456L540.42 408zM623.56 456L665.13 480L665.13 528L623.56 552L581.99 528L581.99 480zM581.99 528L623.56 552L623.56 600L581.99 624L540.42 600L540.42 552zM665.13 -48L706.7 -24L706.7 24L665.13 48L623.56 24L623.56 -24zM706.7 24L748.27 48L748.27 96L706.7 120L665.13 96L665.13 48zM665.13 96L706.7 120L706.7 168L665.13 192L623.56 168L623.56 120zM706.7 168L748.27 192L748.27 240L706.7 264L665.13 240L665.13 192zM665.13 240L706.7 264L706.7 312L665.13 336L623.56 312L623.56 264zM706.7 312L748.27 336L748.27 384L706.7 408L665.13 384L665.13 336zM665.13 384L706.7 408L706.7 456L665.13 480L623.56 456L623.56 408zM706.7 456L748.27 480L748.27 528L706.7 552L665.13 528L665.13 480zM665.13 528L706.7 552L706.7 600L665.13 624L623.56 600L623.56 552zM748.27 -48L789.84 -24L789.84 24L748.27 48L706.7 24L706.7 -24zM789.84 24L831.41 48L831.41 96L789.84 120L748.27 96L748.27 48zM748.27 96L789.84 120L789.84 168L748.27 192L706.7 168L706.7 120zM789.84 168L831.41 192L831.41 240L789.84 264L748.27 240L748.27 192zM748.27 240L789.84 264L789.84 312L748.27 336L706.7 312L706.7 264zM789.84 312L831.41 336L831.41 384L789.84 408L748.27 384L748.27 336zM748.27 384L789.84 408L789.84 456L748.27 480L706.7 456L706.7 408zM789.84 456L831.41 480L831.41 528L789.84 552L748.27 528L748.27 480zM748.27 528L789.84 552L789.84 600L748.27 624L706.7 600L706.7 552zM831.41 -48L872.98 -24L872.98 24L831.41 48L789.84 24L789.84 -24zM872.98 24L914.55 48L914.55 96L872.98 120L831.41 96L831.41 48zM831.41 96L872.98 120L872.98 168L831.41 192L789.84 168L789.84 120zM872.98 168L914.55 192L914.55 240L872.98 264L831.41 240L831.41 192zM831.41 240L872.98 264L872.98 312L831.41 336L789.84 312L789.84 264zM872.98 312L914.55 336L914.55 384L872.98 408L831.41 384L831.41 336zM831.41 384L872.98 408L872.98 456L831.41 480L789.84 456L789.84 408zM872.98 456L914.55 480L914.55 528L872.98 552L831.41 528L831.41 480zM831.41 528L872.98 552L872.98 600L831.41 624L789.84 600L789.84 552zM914.55 -48L956.12 -24L956.12 24L914.55 48L872.98 24L872.98 -24zM956.12 24L997.69 48L997.69 96L956.12 120L914.55 96L914.55 48zM914.55 96L956.12 120L956.12 168L914.55 192L872.98 168L872.98 120zM956.12 168L997.69 192L997.69 240L956.12 264L914.55 240L914.55 192zM914.55 240L956.12 264L956.12 312L914.55 336L872.98 312L872.98 264zM956.12 312L997.69 336L997.69 384L956.12 408L914.55 384L914.55 336zM914.55 384L956.12 408L956.12 456L914.55 480L872.98 456L872.98 408zM956.12 456L997.69 480L997.69 528L956.12 552L914.55 528L914.55 480zM914.55 528L956.12 552L956.12 600L914.55 624L872.98 600L872.98 552zM997.69 -48L1039.26 -24L1039.26 24L997.69 48L956.12 24L956.12 -24zM1039.26 24L1080.83 48L1080.83 96L1039.26 120L997.69 96L997.69 48zM997.69 96L1039.26 120L1039.26 168L997.69 192L956.12 168L956.12 120zM1039.26 168L1080.83 192L1080.83 240L1039.26 264L997.69 240L997.69 192zM997.69 240L1039.26 264L1039.26 312L997.69 336L956.12 312L956.12 264zM1039.26 312L1080.83 336L1080.83 384L1039.26 408L997.69 384L997.69 336zM997.69 384L1039.26 408L1039.26 456L997.69 480L956.12 456L956.12 408zM1039.26 456L1080.83 480L1080.83 528L1039.26 552L997.69 528L997.69 480zM997.69 528L1039.26 552L1039.26 600L997.69 624L956.12 600L956.12 552zM1080.83 -48L1122.4 -24L1122.4 24L1080.83 48L1039.26 24L1039.26 -24zM1122.4 24L1163.97 48L1163.97 96L1122.4 120L1080.83 96L1080.83 48zM1080.83 96L1122.4 120L1122.4 168L1080.83 192L1039.26 168L1039.26 120zM1122.4 168L1163.97 192L1163.97 240L1122.4 264L1080.83 240L1080.83 192zM1080.83 240L1122.4 264L1122.4 312L1080.83 336L1039.26 312L1039.26 264zM1122.4 312L1163.97 336L1163.97 384L1122.4 408L1080.83 384L1080.83 336zM1080.83 384L1122.4 408L1122.4 456L1080.83 480L1039.26 456L1039.26 408zM1122.4 456L1163.97 480L1163.97 528L1122.4 552L1080.83 528L1080.83 480zM1080.83 528L1122.4 552L1122.4 600L1080.83 624L1039.26 600L1039.26 552zM1163.97 -48L1205.54 -24L1205.54 24L1163.97 48L1122.4 24L1122.4 -24zM1205.54 24L1247.11 48L1247.11 96L1205.54 120L1163.97 96L1163.97 48zM1163.97 96L1205.54 120L1205.54 168L1163.97 192L1122.4 168L1122.4 120zM1205.54 168L1247.11 192L1247.11 240L1205.54 264L1163.97 240L1163.97 192zM1163.97 240L1205.54 264L1205.54 312L1163.97 336L1122.4 312L1122.4 264zM1205.54 312L1247.11 336L1247.11 384L1205.54 408L1163.97 384L1163.97 336zM1163.97 384L1205.54 408L1205.54 456L1163.97 480L1122.4 456L1122.4 408zM1205.54 456L1247.11 480L1247.11 528L1205.54 552L1163.97 528L1163.97 480zM1163.97 528L1205.54 552L1205.54 600L1163.97 624L1122.4 600L1122.4 552zM1247.11 -48L1288.68 -24L1288.68 24L1247.11 48L1205.54 24L1205.54 -24zM1288.68 24L1330.25 48L1330.25 96L1288.68 120L1247.11 96L1247.11 48zM1247.11 96L1288.68 120L1288.68 168L1247.11 192L1205.54 168L1205.54 120zM1288.68 168L1330.25 192L1330.25 240L1288.68 264L1247.11 240L1247.11 192zM1247.11 240L1288.68 264L1288.68 312L1247.11 336L1205.54 312L1205.54 264zM1288.68 312L1330.25 336L1330.25 384L1288.68 408L1247.11 384L1247.11 336zM1247.11 384L1288.68 408L1288.68 456L1247.11 480L1205.54 456L1205.54 408zM1288.68 456L1330.25 480L1330.25 528L1288.68 552L1247.11 528L1247.11 480zM1247.11 528L1288.68 552L1288.68 600L1247.11 624L1205.54 600L1205.54 552zM1330.25 -48L1371.82 -24L1371.82 24L1330.25 48L1288.68 24L1288.68 -24zM1371.82 24L1413.39 48L1413.39 96L1371.82 120L1330.25 96L1330.25 48zM1330.25 96L1371.82 120L1371.82 168L1330.25 192L1288.68 168L1288.68 120zM1371.82 168L1413.39 192L1413.39 240L1371.82 264L1330.25 240L1330.25 192zM1330.25 240L1371.82 264L1371.82 312L1330.25 336L1288.68 312L1288.68 264zM1371.82 312L1413.39 336L1413.39 384L1371.82 408L1330.25 384L1330.25 336zM1330.25 384L1371.82 408L1371.82 456L1330.25 480L1288.68 456L1288.68 408zM1371.82 456L1413.39 480L1413.39 528L1371.82 552L1330.25 528L1330.25 480zM1330.25 528L1371.82 552L1371.82 600L1330.25 624L1288.68 600L1288.68 552zM1413.39 -48L1454.96 -24L1454.96 24L1413.39 48L1371.82 24L1371.82 -24zM1454.96 24L1496.53 48L1496.53 96L1454.96 120L1413.39 96L1413.39 48zM1413.39 96L1454.96 120L1454.96 168L1413.39 192L1371.82 168L1371.82 120zM1454.96 168L1496.53 192L1496.53 240L1454.96 264L1413.39 240L1413.39 192zM1413.39 240L1454.96 264L1454.96 312L1413.39 336L1371.82 312L1371.82 264zM1454.96 312L1496.53 336L1496.53 384L1454.96 408L1413.39 384L1413.39 336zM1413.39 384L1454.96 408L1454.96 456L1413.39 480L1371.82 456L1371.82 408zM1454.96 456L1496.53 480L1496.53 528L1454.96 552L1413.39 528L1413.39 480zM1413.39 528L1454.96 552L1454.96 600L1413.39 624L1371.82 600L1371.82 552z" stroke="rgba(64, 64, 64, 1)" stroke-width="2"></path><path d="M-4.8 -48 a4.8 4.8 0 1 0 9.6 0 a4.8 4.8 0 1 0 -9.6 0zM36.77 -24 a4.8 4.8 0 1 0 9.6 0 a4.8 4.8 0 1 0 -9.6 0zM36.77 24 a4.8 4.8 0 1 0 9.6 0 a4.8 4.8 0 1 0 -9.6 0zM-4.8 48 a4.8 4.8 0 1 0 9.6 0 a4.8 4.8 0 1 0 -9.6 0zM-46.37 24 a4.8 4.8 0 1 0 9.6 0 a4.8 4.8 0 1 0 -9.6 0zM-46.37 -24 a4.8 4.8 0 1 0 9.6 0 a4.8 4.8 0 1 0 -9.6 0zM78.34 48 a4.8 4.8 0 1 0 9.6 0 a4.8 4.8 0 1 0 -9.6 0zM78.34 96 a4.8 4.8 0 1 0 9.6 0 a4.8 4.8 0 1 0 -9.6 0zM36.77 120 a4.8 4.8 0 1 0 9.6 0 a4.8 4.8 0 1 0 -9.6 0zM-4.8 96 a4.8 4.8 0 1 0 9.6 0 a4.8 4.8 0 1 0 -9.6 0zM36.77 168 a4.8 4.8 0 1 0 9.6 0 a4.8 4.8 0 1 0 -9.6 0zM-4.8 192 a4.8 4.8 0 1 0 9.6 0 a4.8 4.8 0 1 0 -9.6 0zM-46.37 168 a4.8 4.8 0 1 0 9.6 0 a4.8 4.8 0 1 0 -9.6 0zM-46.37 120 a4.8 4.8 0 1 0 9.6 0 a4.8 4.8 0 1 0 -9.6 0zM78.34 192 a4.8 4.8 0 1 0 9.6 0 a4.8 4.8 0 1 0 -9.6 0zM78.34 240 a4.8 4.8 0 1 0 9.6 0 a4.8 4.8 0 1 0 -9.6 0zM36.77 264 a4.8 4.8 0 1 0 9.6 0 a4.8 4.8 0 1 0 -9.6 0zM-4.8 240 a4.8 4.8 0 1 0 9.6 0 a4.8 4.8 0 1 0 -9.6 0zM36.77 312 a4.8 4.8 0 1 0 9.6 0 a4.8 4.8 0 1 0 -9.6 0zM-4.8 336 a4.8 4.8 0 1 0 9.6 0 a4.8 4.8 0 1 0 -9.6 0zM-46.37 312 a4.8 4.8 0 1 0 9.6 0 a4.8 4.8 0 1 0 -9.6 0zM-46.37 264 a4.8 4.8 0 1 0 9.6 0 a4.8 4.8 0 1 0 -9.6 0zM78.34 336 a4.8 4.8 0 1 0 9.6 0 a4.8 4.8 0 1 0 -9.6 0zM78.34 384 a4.8 4.8 0 1 0 9.6 0 a4.8 4.8 0 1 0 -9.6 0zM36.77 408 a4.8 4.8 0 1 0 9.6 0 a4.8 4.8 0 1 0 -9.6 0zM-4.8 384 a4.8 4.8 0 1 0 9.6 0 a4.8 4.8 0 1 0 -9.6 0zM36.77 456 a4.8 4.8 0 1 0 9.6 0 a4.8 4.8 0 1 0 -9.6 0zM-4.8 480 a4.8 4.8 0 1 0 9.6 0 a4.8 4.8 0 1 0 -9.6 0zM-46.37 456 a4.8 4.8 0 1 0 9.6 0 a4.8 4.8 0 1 0 -9.6 0zM-46.37 408 a4.8 4.8 0 1 0 9.6 0 a4.8 4.8 0 1 0 -9.6 0zM78.34 480 a4.8 4.8 0 1 0 9.6 0 a4.8 4.8 0 1 0 -9.6 0zM78.34 528 a4.8 4.8 0 1 0 9.6 0 a4.8 4.8 0 1 0 -9.6 0zM36.77 552 a4.8 4.8 0 1 0 9.6 0 a4.8 4.8 0 1 0 -9.6 0zM-4.8 528 a4.8 4.8 0 1 0 9.6 0 a4.8 4.8 0 1 0 -9.6 0zM36.77 600 a4.8 4.8 0 1 0 9.6 0 a4.8 4.8 0 1 0 -9.6 0zM-4.8 624 a4.8 4.8 0 1 0 9.6 0 a4.8 4.8 0 1 0 -9.6 0zM-46.37 600 a4.8 4.8 0 1 0 9.6 0 a4.8 4.8 0 1 0 -9.6 0zM-46.37 552 a4.8 4.8 0 1 0 9.6 0 a4.8 4.8 0 1 0 -9.6 0zM78.34 -48 a4.8 4.8 0 1 0 9.6 0 a4.8 4.8 0 1 0 -9.6 0zM119.91 -24 a4.8 4.8 0 1 0 9.6 0 a4.8 4.8 0 1 0 -9.6 0zM119.91 24 a4.8 4.8 0 1 0 9.6 0 a4.8 4.8 0 1 0 -9.6 0zM161.48 48 a4.8 4.8 0 1 0 9.6 0 a4.8 4.8 0 1 0 -9.6 0zM161.48 96 a4.8 4.8 0 1 0 9.6 0 a4.8 4.8 0 1 0 -9.6 0zM119.91 120 a4.8 4.8 0 1 0 9.6 0 a4.8 4.8 0 1 0 -9.6 0zM119.91 168 a4.8 4.8 0 1 0 9.6 0 a4.8 4.8 0 1 0 -9.6 0zM161.48 192 a4.8 4.8 0 1 0 9.6 0 a4.8 4.8 0 1 0 -9.6 0zM161.48 240 a4.8 4.8 0 1 0 9.6 0 a4.8 4.8 0 1 0 -9.6 0zM119.91 264 a4.8 4.8 0 1 0 9.6 0 a4.8 4.8 0 1 0 -9.6 0zM119.91 312 a4.8 4.8 0 1 0 9.6 0 a4.8 4.8 0 1 0 -9.6 0zM161.48 336 a4.8 4.8 0 1 0 9.6 0 a4.8 4.8 0 1 0 -9.6 0zM161.48 384 a4.8 4.8 0 1 0 9.6 0 a4.8 4.8 0 1 0 -9.6 0zM119.91 408 a4.8 4.8 0 1 0 9.6 0 a4.8 4.8 0 1 0 -9.6 0zM119.91 456 a4.8 4.8 0 1 0 9.6 0 a4.8 4.8 0 1 0 -9.6 0zM161.48 480 a4.8 4.8 0 1 0 9.6 0 a4.8 4.8 0 1 0 -9.6 0zM161.48 528 a4.8 4.8 0 1 0 9.6 0 a4.8 4.8 0 1 0 -9.6 0zM119.91 552 a4.8 4.8 0 1 0 9.6 0 a4.8 4.8 0 1 0 -9.6 0zM119.91 600 a4.8 4.8 0 1 0 9.6 0 a4.8 4.8 0 1 0 -9.6 0zM78.34 624 a4.8 4.8 0 1 0 9.6 0 a4.8 4.8 0 1 0 -9.6 0zM161.48 -48 a4.8 4.8 0 1 0 9.6 0 a4.8 4.8 0 1 0 -9.6 0zM203.05 -24 a4.8 4.8 0 1 0 9.6 0 a4.8 4.8 0 1 0 -9.6 0zM203.05 24 a4.8 4.8 0 1 0 9.6 0 a4.8 4.8 0 1 0 -9.6 0zM244.62 48 a4.8 4.8 0 1 0 9.6 0 a4.8 4.8 0 1 0 -9.6 0zM244.62 96 a4.8 4.8 0 1 0 9.6 0 a4.8 4.8 0 1 0 -9.6 0zM203.05 120 a4.8 4.8 0 1 0 9.6 0 a4.8 4.8 0 1 0 -9.6 0zM203.05 168 a4.8 4.8 0 1 0 9.6 0 a4.8 4.8 0 1 0 -9.6 0zM244.62 192 a4.8 4.8 0 1 0 9.6 0 a4.8 4.8 0 1 0 -9.6 0zM244.62 240 a4.8 4.8 0 1 0 9.6 0 a4.8 4.8 0 1 0 -9.6 0zM203.05 264 a4.8 4.8 0 1 0 9.6 0 a4.8 4.8 0 1 0 -9.6 0zM203.05 312 a4.8 4.8 0 1 0 9.6 0 a4.8 4.8 0 1 0 -9.6 0zM244.62 336 a4.8 4.8 0 1 0 9.6 0 a4.8 4.8 0 1 0 -9.6 0zM244.62 384 a4.8 4.8 0 1 0 9.6 0 a4.8 4.8 0 1 0 -9.6 0zM203.05 408 a4.8 4.8 0 1 0 9.6 0 a4.8 4.8 0 1 0 -9.6 0zM203.05 456 a4.8 4.8 0 1 0 9.6 0 a4.8 4.8 0 1 0 -9.6 0zM244.62 480 a4.8 4.8 0 1 0 9.6 0 a4.8 4.8 0 1 0 -9.6 0zM244.62 528 a4.8 4.8 0 1 0 9.6 0 a4.8 4.8 0 1 0 -9.6 0zM203.05 552 a4.8 4.8 0 1 0 9.6 0 a4.8 4.8 0 1 0 -9.6 0zM203.05 600 a4.8 4.8 0 1 0 9.6 0 a4.8 4.8 0 1 0 -9.6 0zM161.48 624 a4.8 4.8 0 1 0 9.6 0 a4.8 4.8 0 1 0 -9.6 0zM244.62 -48 a4.8 4.8 0 1 0 9.6 0 a4.8 4.8 0 1 0 -9.6 0zM286.19 -24 a4.8 4.8 0 1 0 9.6 0 a4.8 4.8 0 1 0 -9.6 0zM286.19 24 a4.8 4.8 0 1 0 9.6 0 a4.8 4.8 0 1 0 -9.6 0zM327.76 48 a4.8 4.8 0 1 0 9.6 0 a4.8 4.8 0 1 0 -9.6 0zM327.76 96 a4.8 4.8 0 1 0 9.6 0 a4.8 4.8 0 1 0 -9.6 0zM286.19 120 a4.8 4.8 0 1 0 9.6 0 a4.8 4.8 0 1 0 -9.6 0zM286.19 168 a4.8 4.8 0 1 0 9.6 0 a4.8 4.8 0 1 0 -9.6 0zM327.76 192 a4.8 4.8 0 1 0 9.6 0 a4.8 4.8 0 1 0 -9.6 0zM327.76 240 a4.8 4.8 0 1 0 9.6 0 a4.8 4.8 0 1 0 -9.6 0zM286.19 264 a4.8 4.8 0 1 0 9.6 0 a4.8 4.8 0 1 0 -9.6 0zM286.19 312 a4.8 4.8 0 1 0 9.6 0 a4.8 4.8 0 1 0 -9.6 0zM327.76 336 a4.8 4.8 0 1 0 9.6 0 a4.8 4.8 0 1 0 -9.6 0zM327.76 384 a4.8 4.8 0 1 0 9.6 0 a4.8 4.8 0 1 0 -9.6 0zM286.19 408 a4.8 4.8 0 1 0 9.6 0 a4.8 4.8 0 1 0 -9.6 0zM286.19 456 a4.8 4.8 0 1 0 9.6 0 a4.8 4.8 0 1 0 -9.6 0zM327.76 480 a4.8 4.8 0 1 0 9.6 0 a4.8 4.8 0 1 0 -9.6 0zM327.76 528 a4.8 4.8 0 1 0 9.6 0 a4.8 4.8 0 1 0 -9.6 0zM286.19 552 a4.8 4.8 0 1 0 9.6 0 a4.8 4.8 0 1 0 -9.6 0zM286.19 600 a4.8 4.8 0 1 0 9.6 0 a4.8 4.8 0 1 0 -9.6 0zM244.62 624 a4.8 4.8 0 1 0 9.6 0 a4.8 4.8 0 1 0 -9.6 0zM327.76 -48 a4.8 4.8 0 1 0 9.6 0 a4.8 4.8 0 1 0 -9.6 0zM369.33 -24 a4.8 4.8 0 1 0 9.6 0 a4.8 4.8 0 1 0 -9.6 0zM369.33 24 a4.8 4.8 0 1 0 9.6 0 a4.8 4.8 0 1 0 -9.6 0zM410.9 48 a4.8 4.8 0 1 0 9.6 0 a4.8 4.8 0 1 0 -9.6 0zM410.9 96 a4.8 4.8 0 1 0 9.6 0 a4.8 4.8 0 1 0 -9.6 0zM369.33 120 a4.8 4.8 0 1 0 9.6 0 a4.8 4.8 0 1 0 -9.6 0zM369.33 168 a4.8 4.8 0 1 0 9.6 0 a4.8 4.8 0 1 0 -9.6 0zM410.9 192 a4.8 4.8 0 1 0 9.6 0 a4.8 4.8 0 1 0 -9.6 0zM410.9 240 a4.8 4.8 0 1 0 9.6 0 a4.8 4.8 0 1 0 -9.6 0zM369.33 264 a4.8 4.8 0 1 0 9.6 0 a4.8 4.8 0 1 0 -9.6 0zM369.33 312 a4.8 4.8 0 1 0 9.6 0 a4.8 4.8 0 1 0 -9.6 0zM410.9 336 a4.8 4.8 0 1 0 9.6 0 a4.8 4.8 0 1 0 -9.6 0zM410.9 384 a4.8 4.8 0 1 0 9.6 0 a4.8 4.8 0 1 0 -9.6 0zM369.33 408 a4.8 4.8 0 1 0 9.6 0 a4.8 4.8 0 1 0 -9.6 0zM369.33 456 a4.8 4.8 0 1 0 9.6 0 a4.8 4.8 0 1 0 -9.6 0zM410.9 480 a4.8 4.8 0 1 0 9.6 0 a4.8 4.8 0 1 0 -9.6 0zM410.9 528 a4.8 4.8 0 1 0 9.6 0 a4.8 4.8 0 1 0 -9.6 0zM369.33 552 a4.8 4.8 0 1 0 9.6 0 a4.8 4.8 0 1 0 -9.6 0zM369.33 600 a4.8 4.8 0 1 0 9.6 0 a4.8 4.8 0 1 0 -9.6 0zM327.76 624 a4.8 4.8 0 1 0 9.6 0 a4.8 4.8 0 1 0 -9.6 0zM410.9 -48 a4.8 4.8 0 1 0 9.6 0 a4.8 4.8 0 1 0 -9.6 0zM452.47 -24 a4.8 4.8 0 1 0 9.6 0 a4.8 4.8 0 1 0 -9.6 0zM452.47 24 a4.8 4.8 0 1 0 9.6 0 a4.8 4.8 0 1 0 -9.6 0zM494.04 48 a4.8 4.8 0 1 0 9.6 0 a4.8 4.8 0 1 0 -9.6 0zM494.04 96 a4.8 4.8 0 1 0 9.6 0 a4.8 4.8 0 1 0 -9.6 0zM452.47 120 a4.8 4.8 0 1 0 9.6 0 a4.8 4.8 0 1 0 -9.6 0zM452.47 168 a4.8 4.8 0 1 0 9.6 0 a4.8 4.8 0 1 0 -9.6 0zM494.04 192 a4.8 4.8 0 1 0 9.6 0 a4.8 4.8 0 1 0 -9.6 0zM494.04 240 a4.8 4.8 0 1 0 9.6 0 a4.8 4.8 0 1 0 -9.6 0zM452.47 264 a4.8 4.8 0 1 0 9.6 0 a4.8 4.8 0 1 0 -9.6 0zM452.47 312 a4.8 4.8 0 1 0 9.6 0 a4.8 4.8 0 1 0 -9.6 0zM494.04 336 a4.8 4.8 0 1 0 9.6 0 a4.8 4.8 0 1 0 -9.6 0zM494.04 384 a4.8 4.8 0 1 0 9.6 0 a4.8 4.8 0 1 0 -9.6 0zM452.47 408 a4.8 4.8 0 1 0 9.6 0 a4.8 4.8 0 1 0 -9.6 0zM452.47 456 a4.8 4.8 0 1 0 9.6 0 a4.8 4.8 0 1 0 -9.6 0zM494.04 480 a4.8 4.8 0 1 0 9.6 0 a4.8 4.8 0 1 0 -9.6 0zM494.04 528 a4.8 4.8 0 1 0 9.6 0 a4.8 4.8 0 1 0 -9.6 0zM452.47 552 a4.8 4.8 0 1 0 9.6 0 a4.8 4.8 0 1 0 -9.6 0zM452.47 600 a4.8 4.8 0 1 0 9.6 0 a4.8 4.8 0 1 0 -9.6 0zM410.9 624 a4.8 4.8 0 1 0 9.6 0 a4.8 4.8 0 1 0 -9.6 0zM494.04 -48 a4.8 4.8 0 1 0 9.6 0 a4.8 4.8 0 1 0 -9.6 0zM535.62 -24 a4.8 4.8 0 1 0 9.6 0 a4.8 4.8 0 1 0 -9.6 0zM535.62 24 a4.8 4.8 0 1 0 9.6 0 a4.8 4.8 0 1 0 -9.6 0zM577.19 48 a4.8 4.8 0 1 0 9.6 0 a4.8 4.8 0 1 0 -9.6 0zM577.19 96 a4.8 4.8 0 1 0 9.6 0 a4.8 4.8 0 1 0 -9.6 0zM535.62 120 a4.8 4.8 0 1 0 9.6 0 a4.8 4.8 0 1 0 -9.6 0zM535.62 168 a4.8 4.8 0 1 0 9.6 0 a4.8 4.8 0 1 0 -9.6 0zM577.19 192 a4.8 4.8 0 1 0 9.6 0 a4.8 4.8 0 1 0 -9.6 0zM577.19 240 a4.8 4.8 0 1 0 9.6 0 a4.8 4.8 0 1 0 -9.6 0zM535.62 264 a4.8 4.8 0 1 0 9.6 0 a4.8 4.8 0 1 0 -9.6 0zM535.62 312 a4.8 4.8 0 1 0 9.6 0 a4.8 4.8 0 1 0 -9.6 0zM577.19 336 a4.8 4.8 0 1 0 9.6 0 a4.8 4.8 0 1 0 -9.6 0zM577.19 384 a4.8 4.8 0 1 0 9.6 0 a4.8 4.8 0 1 0 -9.6 0zM535.62 408 a4.8 4.8 0 1 0 9.6 0 a4.8 4.8 0 1 0 -9.6 0zM535.62 456 a4.8 4.8 0 1 0 9.6 0 a4.8 4.8 0 1 0 -9.6 0zM577.19 480 a4.8 4.8 0 1 0 9.6 0 a4.8 4.8 0 1 0 -9.6 0zM577.19 528 a4.8 4.8 0 1 0 9.6 0 a4.8 4.8 0 1 0 -9.6 0zM535.62 552 a4.8 4.8 0 1 0 9.6 0 a4.8 4.8 0 1 0 -9.6 0zM535.62 600 a4.8 4.8 0 1 0 9.6 0 a4.8 4.8 0 1 0 -9.6 0zM494.04 624 a4.8 4.8 0 1 0 9.6 0 a4.8 4.8 0 1 0 -9.6 0zM577.19 -48 a4.8 4.8 0 1 0 9.6 0 a4.8 4.8 0 1 0 -9.6 0zM618.76 -24 a4.8 4.8 0 1 0 9.6 0 a4.8 4.8 0 1 0 -9.6 0zM618.76 24 a4.8 4.8 0 1 0 9.6 0 a4.8 4.8 0 1 0 -9.6 0zM660.33 48 a4.8 4.8 0 1 0 9.6 0 a4.8 4.8 0 1 0 -9.6 0zM660.33 96 a4.8 4.8 0 1 0 9.6 0 a4.8 4.8 0 1 0 -9.6 0zM618.76 120 a4.8 4.8 0 1 0 9.6 0 a4.8 4.8 0 1 0 -9.6 0zM618.76 168 a4.8 4.8 0 1 0 9.6 0 a4.8 4.8 0 1 0 -9.6 0zM660.33 192 a4.8 4.8 0 1 0 9.6 0 a4.8 4.8 0 1 0 -9.6 0zM660.33 240 a4.8 4.8 0 1 0 9.6 0 a4.8 4.8 0 1 0 -9.6 0zM618.76 264 a4.8 4.8 0 1 0 9.6 0 a4.8 4.8 0 1 0 -9.6 0zM618.76 312 a4.8 4.8 0 1 0 9.6 0 a4.8 4.8 0 1 0 -9.6 0zM660.33 336 a4.8 4.8 0 1 0 9.6 0 a4.8 4.8 0 1 0 -9.6 0zM660.33 384 a4.8 4.8 0 1 0 9.6 0 a4.8 4.8 0 1 0 -9.6 0zM618.76 408 a4.8 4.8 0 1 0 9.6 0 a4.8 4.8 0 1 0 -9.6 0zM618.76 456 a4.8 4.8 0 1 0 9.6 0 a4.8 4.8 0 1 0 -9.6 0zM660.33 480 a4.8 4.8 0 1 0 9.6 0 a4.8 4.8 0 1 0 -9.6 0zM660.33 528 a4.8 4.8 0 1 0 9.6 0 a4.8 4.8 0 1 0 -9.6 0zM618.76 552 a4.8 4.8 0 1 0 9.6 0 a4.8 4.8 0 1 0 -9.6 0zM618.76 600 a4.8 4.8 0 1 0 9.6 0 a4.8 4.8 0 1 0 -9.6 0zM577.19 624 a4.8 4.8 0 1 0 9.6 0 a4.8 4.8 0 1 0 -9.6 0zM660.33 -48 a4.8 4.8 0 1 0 9.6 0 a4.8 4.8 0 1 0 -9.6 0zM701.9 -24 a4.8 4.8 0 1 0 9.6 0 a4.8 4.8 0 1 0 -9.6 0zM701.9 24 a4.8 4.8 0 1 0 9.6 0 a4.8 4.8 0 1 0 -9.6 0zM743.47 48 a4.8 4.8 0 1 0 9.6 0 a4.8 4.8 0 1 0 -9.6 0zM743.47 96 a4.8 4.8 0 1 0 9.6 0 a4.8 4.8 0 1 0 -9.6 0zM701.9 120 a4.8 4.8 0 1 0 9.6 0 a4.8 4.8 0 1 0 -9.6 0zM701.9 168 a4.8 4.8 0 1 0 9.6 0 a4.8 4.8 0 1 0 -9.6 0zM743.47 192 a4.8 4.8 0 1 0 9.6 0 a4.8 4.8 0 1 0 -9.6 0zM743.47 240 a4.8 4.8 0 1 0 9.6 0 a4.8 4.8 0 1 0 -9.6 0zM701.9 264 a4.8 4.8 0 1 0 9.6 0 a4.8 4.8 0 1 0 -9.6 0zM701.9 312 a4.8 4.8 0 1 0 9.6 0 a4.8 4.8 0 1 0 -9.6 0zM743.47 336 a4.8 4.8 0 1 0 9.6 0 a4.8 4.8 0 1 0 -9.6 0zM743.47 384 a4.8 4.8 0 1 0 9.6 0 a4.8 4.8 0 1 0 -9.6 0zM701.9 408 a4.8 4.8 0 1 0 9.6 0 a4.8 4.8 0 1 0 -9.6 0zM701.9 456 a4.8 4.8 0 1 0 9.6 0 a4.8 4.8 0 1 0 -9.6 0zM743.47 480 a4.8 4.8 0 1 0 9.6 0 a4.8 4.8 0 1 0 -9.6 0zM743.47 528 a4.8 4.8 0 1 0 9.6 0 a4.8 4.8 0 1 0 -9.6 0zM701.9 552 a4.8 4.8 0 1 0 9.6 0 a4.8 4.8 0 1 0 -9.6 0zM701.9 600 a4.8 4.8 0 1 0 9.6 0 a4.8 4.8 0 1 0 -9.6 0zM660.33 624 a4.8 4.8 0 1 0 9.6 0 a4.8 4.8 0 1 0 -9.6 0zM743.47 -48 a4.8 4.8 0 1 0 9.6 0 a4.8 4.8 0 1 0 -9.6 0zM785.04 -24 a4.8 4.8 0 1 0 9.6 0 a4.8 4.8 0 1 0 -9.6 0zM785.04 24 a4.8 4.8 0 1 0 9.6 0 a4.8 4.8 0 1 0 -9.6 0zM826.61 48 a4.8 4.8 0 1 0 9.6 0 a4.8 4.8 0 1 0 -9.6 0zM826.61 96 a4.8 4.8 0 1 0 9.6 0 a4.8 4.8 0 1 0 -9.6 0zM785.04 120 a4.8 4.8 0 1 0 9.6 0 a4.8 4.8 0 1 0 -9.6 0zM785.04 168 a4.8 4.8 0 1 0 9.6 0 a4.8 4.8 0 1 0 -9.6 0zM826.61 192 a4.8 4.8 0 1 0 9.6 0 a4.8 4.8 0 1 0 -9.6 0zM826.61 240 a4.8 4.8 0 1 0 9.6 0 a4.8 4.8 0 1 0 -9.6 0zM785.04 264 a4.8 4.8 0 1 0 9.6 0 a4.8 4.8 0 1 0 -9.6 0zM785.04 312 a4.8 4.8 0 1 0 9.6 0 a4.8 4.8 0 1 0 -9.6 0zM826.61 336 a4.8 4.8 0 1 0 9.6 0 a4.8 4.8 0 1 0 -9.6 0zM826.61 384 a4.8 4.8 0 1 0 9.6 0 a4.8 4.8 0 1 0 -9.6 0zM785.04 408 a4.8 4.8 0 1 0 9.6 0 a4.8 4.8 0 1 0 -9.6 0zM785.04 456 a4.8 4.8 0 1 0 9.6 0 a4.8 4.8 0 1 0 -9.6 0zM826.61 480 a4.8 4.8 0 1 0 9.6 0 a4.8 4.8 0 1 0 -9.6 0zM826.61 528 a4.8 4.8 0 1 0 9.6 0 a4.8 4.8 0 1 0 -9.6 0zM785.04 552 a4.8 4.8 0 1 0 9.6 0 a4.8 4.8 0 1 0 -9.6 0zM785.04 600 a4.8 4.8 0 1 0 9.6 0 a4.8 4.8 0 1 0 -9.6 0zM743.47 624 a4.8 4.8 0 1 0 9.6 0 a4.8 4.8 0 1 0 -9.6 0zM826.61 -48 a4.8 4.8 0 1 0 9.6 0 a4.8 4.8 0 1 0 -9.6 0zM868.18 -24 a4.8 4.8 0 1 0 9.6 0 a4.8 4.8 0 1 0 -9.6 0zM868.18 24 a4.8 4.8 0 1 0 9.6 0 a4.8 4.8 0 1 0 -9.6 0zM909.75 48 a4.8 4.8 0 1 0 9.6 0 a4.8 4.8 0 1 0 -9.6 0zM909.75 96 a4.8 4.8 0 1 0 9.6 0 a4.8 4.8 0 1 0 -9.6 0zM868.18 120 a4.8 4.8 0 1 0 9.6 0 a4.8 4.8 0 1 0 -9.6 0zM868.18 168 a4.8 4.8 0 1 0 9.6 0 a4.8 4.8 0 1 0 -9.6 0zM909.75 192 a4.8 4.8 0 1 0 9.6 0 a4.8 4.8 0 1 0 -9.6 0zM909.75 240 a4.8 4.8 0 1 0 9.6 0 a4.8 4.8 0 1 0 -9.6 0zM868.18 264 a4.8 4.8 0 1 0 9.6 0 a4.8 4.8 0 1 0 -9.6 0zM868.18 312 a4.8 4.8 0 1 0 9.6 0 a4.8 4.8 0 1 0 -9.6 0zM909.75 336 a4.8 4.8 0 1 0 9.6 0 a4.8 4.8 0 1 0 -9.6 0zM909.75 384 a4.8 4.8 0 1 0 9.6 0 a4.8 4.8 0 1 0 -9.6 0zM868.18 408 a4.8 4.8 0 1 0 9.6 0 a4.8 4.8 0 1 0 -9.6 0zM868.18 456 a4.8 4.8 0 1 0 9.6 0 a4.8 4.8 0 1 0 -9.6 0zM909.75 480 a4.8 4.8 0 1 0 9.6 0 a4.8 4.8 0 1 0 -9.6 0zM909.75 528 a4.8 4.8 0 1 0 9.6 0 a4.8 4.8 0 1 0 -9.6 0zM868.18 552 a4.8 4.8 0 1 0 9.6 0 a4.8 4.8 0 1 0 -9.6 0zM868.18 600 a4.8 4.8 0 1 0 9.6 0 a4.8 4.8 0 1 0 -9.6 0zM826.61 624 a4.8 4.8 0 1 0 9.6 0 a4.8 4.8 0 1 0 -9.6 0zM909.75 -48 a4.8 4.8 0 1 0 9.6 0 a4.8 4.8 0 1 0 -9.6 0zM951.32 -24 a4.8 4.8 0 1 0 9.6 0 a4.8 4.8 0 1 0 -9.6 0zM951.32 24 a4.8 4.8 0 1 0 9.6 0 a4.8 4.8 0 1 0 -9.6 0zM992.89 48 a4.8 4.8 0 1 0 9.6 0 a4.8 4.8 0 1 0 -9.6 0zM992.89 96 a4.8 4.8 0 1 0 9.6 0 a4.8 4.8 0 1 0 -9.6 0zM951.32 120 a4.8 4.8 0 1 0 9.6 0 a4.8 4.8 0 1 0 -9.6 0zM951.32 168 a4.8 4.8 0 1 0 9.6 0 a4.8 4.8 0 1 0 -9.6 0zM992.89 192 a4.8 4.8 0 1 0 9.6 0 a4.8 4.8 0 1 0 -9.6 0zM992.89 240 a4.8 4.8 0 1 0 9.6 0 a4.8 4.8 0 1 0 -9.6 0zM951.32 264 a4.8 4.8 0 1 0 9.6 0 a4.8 4.8 0 1 0 -9.6 0zM951.32 312 a4.8 4.8 0 1 0 9.6 0 a4.8 4.8 0 1 0 -9.6 0zM992.89 336 a4.8 4.8 0 1 0 9.6 0 a4.8 4.8 0 1 0 -9.6 0zM992.89 384 a4.8 4.8 0 1 0 9.6 0 a4.8 4.8 0 1 0 -9.6 0zM951.32 408 a4.8 4.8 0 1 0 9.6 0 a4.8 4.8 0 1 0 -9.6 0zM951.32 456 a4.8 4.8 0 1 0 9.6 0 a4.8 4.8 0 1 0 -9.6 0zM992.89 480 a4.8 4.8 0 1 0 9.6 0 a4.8 4.8 0 1 0 -9.6 0zM992.89 528 a4.8 4.8 0 1 0 9.6 0 a4.8 4.8 0 1 0 -9.6 0zM951.32 552 a4.8 4.8 0 1 0 9.6 0 a4.8 4.8 0 1 0 -9.6 0zM951.32 600 a4.8 4.8 0 1 0 9.6 0 a4.8 4.8 0 1 0 -9.6 0zM909.75 624 a4.8 4.8 0 1 0 9.6 0 a4.8 4.8 0 1 0 -9.6 0zM992.89 -48 a4.8 4.8 0 1 0 9.6 0 a4.8 4.8 0 1 0 -9.6 0zM1034.46 -24 a4.8 4.8 0 1 0 9.6 0 a4.8 4.8 0 1 0 -9.6 0zM1034.46 24 a4.8 4.8 0 1 0 9.6 0 a4.8 4.8 0 1 0 -9.6 0zM1076.03 48 a4.8 4.8 0 1 0 9.6 0 a4.8 4.8 0 1 0 -9.6 0zM1076.03 96 a4.8 4.8 0 1 0 9.6 0 a4.8 4.8 0 1 0 -9.6 0zM1034.46 120 a4.8 4.8 0 1 0 9.6 0 a4.8 4.8 0 1 0 -9.6 0zM1034.46 168 a4.8 4.8 0 1 0 9.6 0 a4.8 4.8 0 1 0 -9.6 0zM1076.03 192 a4.8 4.8 0 1 0 9.6 0 a4.8 4.8 0 1 0 -9.6 0zM1076.03 240 a4.8 4.8 0 1 0 9.6 0 a4.8 4.8 0 1 0 -9.6 0zM1034.46 264 a4.8 4.8 0 1 0 9.6 0 a4.8 4.8 0 1 0 -9.6 0zM1034.46 312 a4.8 4.8 0 1 0 9.6 0 a4.8 4.8 0 1 0 -9.6 0zM1076.03 336 a4.8 4.8 0 1 0 9.6 0 a4.8 4.8 0 1 0 -9.6 0zM1076.03 384 a4.8 4.8 0 1 0 9.6 0 a4.8 4.8 0 1 0 -9.6 0zM1034.46 408 a4.8 4.8 0 1 0 9.6 0 a4.8 4.8 0 1 0 -9.6 0zM1034.46 456 a4.8 4.8 0 1 0 9.6 0 a4.8 4.8 0 1 0 -9.6 0zM1076.03 480 a4.8 4.8 0 1 0 9.6 0 a4.8 4.8 0 1 0 -9.6 0zM1076.03 528 a4.8 4.8 0 1 0 9.6 0 a4.8 4.8 0 1 0 -9.6 0zM1034.46 552 a4.8 4.8 0 1 0 9.6 0 a4.8 4.8 0 1 0 -9.6 0zM1034.46 600 a4.8 4.8 0 1 0 9.6 0 a4.8 4.8 0 1 0 -9.6 0zM992.89 624 a4.8 4.8 0 1 0 9.6 0 a4.8 4.8 0 1 0 -9.6 0zM1076.03 -48 a4.8 4.8 0 1 0 9.6 0 a4.8 4.8 0 1 0 -9.6 0zM1117.6 -24 a4.8 4.8 0 1 0 9.6 0 a4.8 4.8 0 1 0 -9.6 0zM1117.6 24 a4.8 4.8 0 1 0 9.6 0 a4.8 4.8 0 1 0 -9.6 0zM1159.17 48 a4.8 4.8 0 1 0 9.6 0 a4.8 4.8 0 1 0 -9.6 0zM1159.17 96 a4.8 4.8 0 1 0 9.6 0 a4.8 4.8 0 1 0 -9.6 0zM1117.6 120 a4.8 4.8 0 1 0 9.6 0 a4.8 4.8 0 1 0 -9.6 0zM1117.6 168 a4.8 4.8 0 1 0 9.6 0 a4.8 4.8 0 1 0 -9.6 0zM1159.17 192 a4.8 4.8 0 1 0 9.6 0 a4.8 4.8 0 1 0 -9.6 0zM1159.17 240 a4.8 4.8 0 1 0 9.6 0 a4.8 4.8 0 1 0 -9.6 0zM1117.6 264 a4.8 4.8 0 1 0 9.6 0 a4.8 4.8 0 1 0 -9.6 0zM1117.6 312 a4.8 4.8 0 1 0 9.6 0 a4.8 4.8 0 1 0 -9.6 0zM1159.17 336 a4.8 4.8 0 1 0 9.6 0 a4.8 4.8 0 1 0 -9.6 0zM1159.17 384 a4.8 4.8 0 1 0 9.6 0 a4.8 4.8 0 1 0 -9.6 0zM1117.6 408 a4.8 4.8 0 1 0 9.6 0 a4.8 4.8 0 1 0 -9.6 0zM1117.6 456 a4.8 4.8 0 1 0 9.6 0 a4.8 4.8 0 1 0 -9.6 0zM1159.17 480 a4.8 4.8 0 1 0 9.6 0 a4.8 4.8 0 1 0 -9.6 0zM1159.17 528 a4.8 4.8 0 1 0 9.6 0 a4.8 4.8 0 1 0 -9.6 0zM1117.6 552 a4.8 4.8 0 1 0 9.6 0 a4.8 4.8 0 1 0 -9.6 0zM1117.6 600 a4.8 4.8 0 1 0 9.6 0 a4.8 4.8 0 1 0 -9.6 0zM1076.03 624 a4.8 4.8 0 1 0 9.6 0 a4.8 4.8 0 1 0 -9.6 0zM1159.17 -48 a4.8 4.8 0 1 0 9.6 0 a4.8 4.8 0 1 0 -9.6 0zM1200.74 -24 a4.8 4.8 0 1 0 9.6 0 a4.8 4.8 0 1 0 -9.6 0zM1200.74 24 a4.8 4.8 0 1 0 9.6 0 a4.8 4.8 0 1 0 -9.6 0zM1242.31 48 a4.8 4.8 0 1 0 9.6 0 a4.8 4.8 0 1 0 -9.6 0zM1242.31 96 a4.8 4.8 0 1 0 9.6 0 a4.8 4.8 0 1 0 -9.6 0zM1200.74 120 a4.8 4.8 0 1 0 9.6 0 a4.8 4.8 0 1 0 -9.6 0zM1200.74 168 a4.8 4.8 0 1 0 9.6 0 a4.8 4.8 0 1 0 -9.6 0zM1242.31 192 a4.8 4.8 0 1 0 9.6 0 a4.8 4.8 0 1 0 -9.6 0zM1242.31 240 a4.8 4.8 0 1 0 9.6 0 a4.8 4.8 0 1 0 -9.6 0zM1200.74 264 a4.8 4.8 0 1 0 9.6 0 a4.8 4.8 0 1 0 -9.6 0zM1200.74 312 a4.8 4.8 0 1 0 9.6 0 a4.8 4.8 0 1 0 -9.6 0zM1242.31 336 a4.8 4.8 0 1 0 9.6 0 a4.8 4.8 0 1 0 -9.6 0zM1242.31 384 a4.8 4.8 0 1 0 9.6 0 a4.8 4.8 0 1 0 -9.6 0zM1200.74 408 a4.8 4.8 0 1 0 9.6 0 a4.8 4.8 0 1 0 -9.6 0zM1200.74 456 a4.8 4.8 0 1 0 9.6 0 a4.8 4.8 0 1 0 -9.6 0zM1242.31 480 a4.8 4.8 0 1 0 9.6 0 a4.8 4.8 0 1 0 -9.6 0zM1242.31 528 a4.8 4.8 0 1 0 9.6 0 a4.8 4.8 0 1 0 -9.6 0zM1200.74 552 a4.8 4.8 0 1 0 9.6 0 a4.8 4.8 0 1 0 -9.6 0zM1200.74 600 a4.8 4.8 0 1 0 9.6 0 a4.8 4.8 0 1 0 -9.6 0zM1159.17 624 a4.8 4.8 0 1 0 9.6 0 a4.8 4.8 0 1 0 -9.6 0zM1242.31 -48 a4.8 4.8 0 1 0 9.6 0 a4.8 4.8 0 1 0 -9.6 0zM1283.88 -24 a4.8 4.8 0 1 0 9.6 0 a4.8 4.8 0 1 0 -9.6 0zM1283.88 24 a4.8 4.8 0 1 0 9.6 0 a4.8 4.8 0 1 0 -9.6 0zM1325.45 48 a4.8 4.8 0 1 0 9.6 0 a4.8 4.8 0 1 0 -9.6 0zM1325.45 96 a4.8 4.8 0 1 0 9.6 0 a4.8 4.8 0 1 0 -9.6 0zM1283.88 120 a4.8 4.8 0 1 0 9.6 0 a4.8 4.8 0 1 0 -9.6 0zM1283.88 168 a4.8 4.8 0 1 0 9.6 0 a4.8 4.8 0 1 0 -9.6 0zM1325.45 192 a4.8 4.8 0 1 0 9.6 0 a4.8 4.8 0 1 0 -9.6 0zM1325.45 240 a4.8 4.8 0 1 0 9.6 0 a4.8 4.8 0 1 0 -9.6 0zM1283.88 264 a4.8 4.8 0 1 0 9.6 0 a4.8 4.8 0 1 0 -9.6 0zM1283.88 312 a4.8 4.8 0 1 0 9.6 0 a4.8 4.8 0 1 0 -9.6 0zM1325.45 336 a4.8 4.8 0 1 0 9.6 0 a4.8 4.8 0 1 0 -9.6 0zM1325.45 384 a4.8 4.8 0 1 0 9.6 0 a4.8 4.8 0 1 0 -9.6 0zM1283.88 408 a4.8 4.8 0 1 0 9.6 0 a4.8 4.8 0 1 0 -9.6 0zM1283.88 456 a4.8 4.8 0 1 0 9.6 0 a4.8 4.8 0 1 0 -9.6 0zM1325.45 480 a4.8 4.8 0 1 0 9.6 0 a4.8 4.8 0 1 0 -9.6 0zM1325.45 528 a4.8 4.8 0 1 0 9.6 0 a4.8 4.8 0 1 0 -9.6 0zM1283.88 552 a4.8 4.8 0 1 0 9.6 0 a4.8 4.8 0 1 0 -9.6 0zM1283.88 600 a4.8 4.8 0 1 0 9.6 0 a4.8 4.8 0 1 0 -9.6 0zM1242.31 624 a4.8 4.8 0 1 0 9.6 0 a4.8 4.8 0 1 0 -9.6 0zM1325.45 -48 a4.8 4.8 0 1 0 9.6 0 a4.8 4.8 0 1 0 -9.6 0zM1367.02 -24 a4.8 4.8 0 1 0 9.6 0 a4.8 4.8 0 1 0 -9.6 0zM1367.02 24 a4.8 4.8 0 1 0 9.6 0 a4.8 4.8 0 1 0 -9.6 0zM1408.59 48 a4.8 4.8 0 1 0 9.6 0 a4.8 4.8 0 1 0 -9.6 0zM1408.59 96 a4.8 4.8 0 1 0 9.6 0 a4.8 4.8 0 1 0 -9.6 0zM1367.02 120 a4.8 4.8 0 1 0 9.6 0 a4.8 4.8 0 1 0 -9.6 0zM1367.02 168 a4.8 4.8 0 1 0 9.6 0 a4.8 4.8 0 1 0 -9.6 0zM1408.59 192 a4.8 4.8 0 1 0 9.6 0 a4.8 4.8 0 1 0 -9.6 0zM1408.59 240 a4.8 4.8 0 1 0 9.6 0 a4.8 4.8 0 1 0 -9.6 0zM1367.02 264 a4.8 4.8 0 1 0 9.6 0 a4.8 4.8 0 1 0 -9.6 0zM1367.02 312 a4.8 4.8 0 1 0 9.6 0 a4.8 4.8 0 1 0 -9.6 0zM1408.59 336 a4.8 4.8 0 1 0 9.6 0 a4.8 4.8 0 1 0 -9.6 0zM1408.59 384 a4.8 4.8 0 1 0 9.6 0 a4.8 4.8 0 1 0 -9.6 0zM1367.02 408 a4.8 4.8 0 1 0 9.6 0 a4.8 4.8 0 1 0 -9.6 0zM1367.02 456 a4.8 4.8 0 1 0 9.6 0 a4.8 4.8 0 1 0 -9.6 0zM1408.59 480 a4.8 4.8 0 1 0 9.6 0 a4.8 4.8 0 1 0 -9.6 0zM1408.59 528 a4.8 4.8 0 1 0 9.6 0 a4.8 4.8 0 1 0 -9.6 0zM1367.02 552 a4.8 4.8 0 1 0 9.6 0 a4.8 4.8 0 1 0 -9.6 0zM1367.02 600 a4.8 4.8 0 1 0 9.6 0 a4.8 4.8 0 1 0 -9.6 0zM1325.45 624 a4.8 4.8 0 1 0 9.6 0 a4.8 4.8 0 1 0 -9.6 0zM1408.59 -48 a4.8 4.8 0 1 0 9.6 0 a4.8 4.8 0 1 0 -9.6 0zM1450.16 -24 a4.8 4.8 0 1 0 9.6 0 a4.8 4.8 0 1 0 -9.6 0zM1450.16 24 a4.8 4.8 0 1 0 9.6 0 a4.8 4.8 0 1 0 -9.6 0zM1491.73 48 a4.8 4.8 0 1 0 9.6 0 a4.8 4.8 0 1 0 -9.6 0zM1491.73 96 a4.8 4.8 0 1 0 9.6 0 a4.8 4.8 0 1 0 -9.6 0zM1450.16 120 a4.8 4.8 0 1 0 9.6 0 a4.8 4.8 0 1 0 -9.6 0zM1450.16 168 a4.8 4.8 0 1 0 9.6 0 a4.8 4.8 0 1 0 -9.6 0zM1491.73 192 a4.8 4.8 0 1 0 9.6 0 a4.8 4.8 0 1 0 -9.6 0zM1491.73 240 a4.8 4.8 0 1 0 9.6 0 a4.8 4.8 0 1 0 -9.6 0zM1450.16 264 a4.8 4.8 0 1 0 9.6 0 a4.8 4.8 0 1 0 -9.6 0zM1450.16 312 a4.8 4.8 0 1 0 9.6 0 a4.8 4.8 0 1 0 -9.6 0zM1491.73 336 a4.8 4.8 0 1 0 9.6 0 a4.8 4.8 0 1 0 -9.6 0zM1491.73 384 a4.8 4.8 0 1 0 9.6 0 a4.8 4.8 0 1 0 -9.6 0zM1450.16 408 a4.8 4.8 0 1 0 9.6 0 a4.8 4.8 0 1 0 -9.6 0zM1450.16 456 a4.8 4.8 0 1 0 9.6 0 a4.8 4.8 0 1 0 -9.6 0zM1491.73 480 a4.8 4.8 0 1 0 9.6 0 a4.8 4.8 0 1 0 -9.6 0zM1491.73 528 a4.8 4.8 0 1 0 9.6 0 a4.8 4.8 0 1 0 -9.6 0zM1450.16 552 a4.8 4.8 0 1 0 9.6 0 a4.8 4.8 0 1 0 -9.6 0zM1450.16 600 a4.8 4.8 0 1 0 9.6 0 a4.8 4.8 0 1 0 -9.6 0zM1408.59 624 a4.8 4.8 0 1 0 9.6 0 a4.8 4.8 0 1 0 -9.6 0z" fill="rgba(64, 64, 64, 1)"></path><path d="M0.11 37.01L13.97 45.01L13.97 61.01L0.11 69.01L-13.75 61.01L-13.75 45.01zM13.97 109.01L27.82 117.01L27.82 133.01L13.97 141.01L0.11 133.01L0.11 117.01zM13.97 157.01L27.82 165.01L27.82 181.01L13.97 189.01L0.11 181.01L0.11 165.01zM0.11 181.01L13.97 189.01L13.97 205.01L0.11 213.01L-13.75 205.01L-13.75 189.01zM0.11 325.01L13.97 333.01L13.97 349.01L0.11 357.01L-13.75 349.01L-13.75 333.01zM13.97 349.01L27.82 357.01L27.82 373.01L13.97 381.01L0.11 373.01L0.11 357.01zM0.11 373.01L13.97 381.01L13.97 397.01L0.11 405.01L-13.75 397.01L-13.75 381.01zM13.97 397.01L27.82 405.01L27.82 421.01L13.97 429.01L0.11 421.01L0.11 405.01zM0.11 421.01L13.97 429.01L13.97 445.01L0.11 453.01L-13.75 445.01L-13.75 429.01zM13.97 493.01L27.82 501.01L27.82 517.01L13.97 525.01L0.11 517.01L0.11 501.01zM13.97 541.01L27.82 549.01L27.82 565.01L13.97 573.01L0.11 565.01L0.11 549.01zM41.68 61.01L55.54 69.01L55.54 85.01L41.68 93.01L27.82 85.01L27.82 69.01zM27.82 85.01L41.68 93.01L41.68 109.01L27.82 117.01L13.97 109.01L13.97 93.01zM27.82 133.01L41.68 141.01L41.68 157.01L27.82 165.01L13.97 157.01L13.97 141.01zM41.68 157.01L55.54 165.01L55.54 181.01L41.68 189.01L27.82 181.01L27.82 165.01zM41.68 205.01L55.54 213.01L55.54 229.01L41.68 237.01L27.82 229.01L27.82 213.01zM41.68 253.01L55.54 261.01L55.54 277.01L41.68 285.01L27.82 277.01L27.82 261.01zM27.82 277.01L41.68 285.01L41.68 301.01L27.82 309.01L13.97 301.01L13.97 285.01zM27.82 373.01L41.68 381.01L41.68 397.01L27.82 405.01L13.97 397.01L13.97 381.01zM41.68 397.01L55.54 405.01L55.54 421.01L41.68 429.01L27.82 421.01L27.82 405.01zM41.68 445.01L55.54 453.01L55.54 469.01L41.68 477.01L27.82 469.01L27.82 453.01zM41.68 493.01L55.54 501.01L55.54 517.01L41.68 525.01L27.82 517.01L27.82 501.01zM27.82 517.01L41.68 525.01L41.68 541.01L27.82 549.01L13.97 541.01L13.97 525.01zM69.39 13.01L83.25 21.01L83.25 37.01L69.39 45.01L55.54 37.01L55.54 21.01zM69.39 109.01L83.25 117.01L83.25 133.01L69.39 141.01L55.54 133.01L55.54 117.01zM55.54 133.01L69.39 141.01L69.39 157.01L55.54 165.01L41.68 157.01L41.68 141.01zM55.54 229.01L69.39 237.01L69.39 253.01L55.54 261.01L41.68 253.01L41.68 237.01zM55.54 277.01L69.39 285.01L69.39 301.01L55.54 309.01L41.68 301.01L41.68 285.01zM69.39 349.01L83.25 357.01L83.25 373.01L69.39 381.01L55.54 373.01L55.54 357.01zM55.54 373.01L69.39 381.01L69.39 397.01L55.54 405.01L41.68 397.01L41.68 381.01zM55.54 421.01L69.39 429.01L69.39 445.01L55.54 453.01L41.68 445.01L41.68 429.01zM69.39 445.01L83.25 453.01L83.25 469.01L69.39 477.01L55.54 469.01L55.54 453.01zM55.54 469.01L69.39 477.01L69.39 493.01L55.54 501.01L41.68 493.01L41.68 477.01zM69.39 541.01L83.25 549.01L83.25 565.01L69.39 573.01L55.54 565.01L55.54 549.01zM97.11 13.01L110.96 21.01L110.96 37.01L97.11 45.01L83.25 37.01L83.25 21.01zM83.25 37.01L97.11 45.01L97.11 61.01L83.25 69.01L69.39 61.01L69.39 45.01zM97.11 109.01L110.96 117.01L110.96 133.01L97.11 141.01L83.25 133.01L83.25 117.01zM97.11 157.01L110.96 165.01L110.96 181.01L97.11 189.01L83.25 181.01L83.25 165.01zM97.11 205.01L110.96 213.01L110.96 229.01L97.11 237.01L83.25 229.01L83.25 213.01zM83.25 277.01L97.11 285.01L97.11 301.01L83.25 309.01L69.39 301.01L69.39 285.01zM83.25 421.01L97.11 429.01L97.11 445.01L83.25 453.01L69.39 445.01L69.39 429.01zM97.11 445.01L110.96 453.01L110.96 469.01L97.11 477.01L83.25 469.01L83.25 453.01zM97.11 493.01L110.96 501.01L110.96 517.01L97.11 525.01L83.25 517.01L83.25 501.01zM97.11 541.01L110.96 549.01L110.96 565.01L97.11 573.01L83.25 565.01L83.25 549.01zM124.82 13.01L138.68 21.01L138.68 37.01L124.82 45.01L110.96 37.01L110.96 21.01zM124.82 61.01L138.68 69.01L138.68 85.01L124.82 93.01L110.96 85.01L110.96 69.01zM110.96 133.01L124.82 141.01L124.82 157.01L110.96 165.01L97.11 157.01L97.11 141.01zM110.96 229.01L124.82 237.01L124.82 253.01L110.96 261.01L97.11 253.01L97.11 237.01zM124.82 253.01L138.68 261.01L138.68 277.01L124.82 285.01L110.96 277.01L110.96 261.01zM110.96 325.01L124.82 333.01L124.82 349.01L110.96 357.01L97.11 349.01L97.11 333.01zM110.96 373.01L124.82 381.01L124.82 397.01L110.96 405.01L97.11 397.01L97.11 381.01zM124.82 397.01L138.68 405.01L138.68 421.01L124.82 429.01L110.96 421.01L110.96 405.01zM124.82 493.01L138.68 501.01L138.68 517.01L124.82 525.01L110.96 517.01L110.96 501.01zM110.96 517.01L124.82 525.01L124.82 541.01L110.96 549.01L97.11 541.01L97.11 525.01zM138.68 -10.99L152.53 -2.99L152.53 13.01L138.68 21.01L124.82 13.01L124.82 -2.99zM152.53 13.01L166.39 21.01L166.39 37.01L152.53 45.01L138.68 37.01L138.68 21.01zM152.53 157.01L166.39 165.01L166.39 181.01L152.53 189.01L138.68 181.01L138.68 165.01zM152.53 445.01L166.39 453.01L166.39 469.01L152.53 477.01L138.68 469.01L138.68 453.01zM138.68 517.01L152.53 525.01L152.53 541.01L138.68 549.01L124.82 541.01L124.82 525.01zM166.39 37.01L180.25 45.01L180.25 61.01L166.39 69.01L152.53 61.01L152.53 45.01zM180.25 61.01L194.11 69.01L194.11 85.01L180.25 93.01L166.39 85.01L166.39 69.01zM166.39 85.01L180.25 93.01L180.25 109.01L166.39 117.01L152.53 109.01L152.53 93.01zM180.25 109.01L194.11 117.01L194.11 133.01L180.25 141.01L166.39 133.01L166.39 117.01zM166.39 133.01L180.25 141.01L180.25 157.01L166.39 165.01L152.53 157.01L152.53 141.01zM180.25 157.01L194.11 165.01L194.11 181.01L180.25 189.01L166.39 181.01L166.39 165.01zM166.39 181.01L180.25 189.01L180.25 205.01L166.39 213.01L152.53 205.01L152.53 189.01zM180.25 205.01L194.11 213.01L194.11 229.01L180.25 237.01L166.39 229.01L166.39 213.01zM166.39 277.01L180.25 285.01L180.25 301.01L166.39 309.01L152.53 301.01L152.53 285.01zM180.25 301.01L194.11 309.01L194.11 325.01L180.25 333.01L166.39 325.01L166.39 309.01zM166.39 325.01L180.25 333.01L180.25 349.01L166.39 357.01L152.53 349.01L152.53 333.01zM166.39 373.01L180.25 381.01L180.25 397.01L166.39 405.01L152.53 397.01L152.53 381.01zM180.25 397.01L194.11 405.01L194.11 421.01L180.25 429.01L166.39 421.01L166.39 405.01zM166.39 421.01L180.25 429.01L180.25 445.01L166.39 453.01L152.53 445.01L152.53 429.01zM180.25 493.01L194.11 501.01L194.11 517.01L180.25 525.01L166.39 517.01L166.39 501.01zM166.39 517.01L180.25 525.01L180.25 541.01L166.39 549.01L152.53 541.01L152.53 525.01zM194.11 -10.99L207.96 -2.99L207.96 13.01L194.11 21.01L180.25 13.01L180.25 -2.99zM194.11 37.01L207.96 45.01L207.96 61.01L194.11 69.01L180.25 61.01L180.25 45.01zM207.96 61.01L221.82 69.01L221.82 85.01L207.96 93.01L194.11 85.01L194.11 69.01zM194.11 85.01L207.96 93.01L207.96 109.01L194.11 117.01L180.25 109.01L180.25 93.01zM207.96 157.01L221.82 165.01L221.82 181.01L207.96 189.01L194.11 181.01L194.11 165.01zM194.11 181.01L207.96 189.01L207.96 205.01L194.11 213.01L180.25 205.01L180.25 189.01zM207.96 205.01L221.82 213.01L221.82 229.01L207.96 237.01L194.11 229.01L194.11 213.01zM194.11 229.01L207.96 237.01L207.96 253.01L194.11 261.01L180.25 253.01L180.25 237.01zM207.96 253.01L221.82 261.01L221.82 277.01L207.96 285.01L194.11 277.01L194.11 261.01zM194.11 277.01L207.96 285.01L207.96 301.01L194.11 309.01L180.25 301.01L180.25 285.01zM207.96 301.01L221.82 309.01L221.82 325.01L207.96 333.01L194.11 325.01L194.11 309.01zM207.96 349.01L221.82 357.01L221.82 373.01L207.96 381.01L194.11 373.01L194.11 357.01zM207.96 445.01L221.82 453.01L221.82 469.01L207.96 477.01L194.11 469.01L194.11 453.01zM194.11 469.01L207.96 477.01L207.96 493.01L194.11 501.01L180.25 493.01L180.25 477.01zM221.82 -10.99L235.68 -2.99L235.68 13.01L221.82 21.01L207.96 13.01L207.96 -2.99zM235.68 109.01L249.53 117.01L249.53 133.01L235.68 141.01L221.82 133.01L221.82 117.01zM235.68 157.01L249.53 165.01L249.53 181.01L235.68 189.01L221.82 181.01L221.82 165.01zM221.82 229.01L235.68 237.01L235.68 253.01L221.82 261.01L207.96 253.01L207.96 237.01zM235.68 301.01L249.53 309.01L249.53 325.01L235.68 333.01L221.82 325.01L221.82 309.01zM235.68 445.01L249.53 453.01L249.53 469.01L235.68 477.01L221.82 469.01L221.82 453.01zM221.82 469.01L235.68 477.01L235.68 493.01L221.82 501.01L207.96 493.01L207.96 477.01zM235.68 541.01L249.53 549.01L249.53 565.01L235.68 573.01L221.82 565.01L221.82 549.01zM263.39 13.01L277.25 21.01L277.25 37.01L263.39 45.01L249.53 37.01L249.53 21.01zM249.53 37.01L263.39 45.01L263.39 61.01L249.53 69.01L235.68 61.01L235.68 45.01zM249.53 85.01L263.39 93.01L263.39 109.01L249.53 117.01L235.68 109.01L235.68 93.01zM263.39 109.01L277.25 117.01L277.25 133.01L263.39 141.01L249.53 133.01L249.53 117.01zM249.53 133.01L263.39 141.01L263.39 157.01L249.53 165.01L235.68 157.01L235.68 141.01zM249.53 229.01L263.39 237.01L263.39 253.01L249.53 261.01L235.68 253.01L235.68 237.01zM249.53 325.01L263.39 333.01L263.39 349.01L249.53 357.01L235.68 349.01L235.68 333.01zM249.53 373.01L263.39 381.01L263.39 397.01L249.53 405.01L235.68 397.01L235.68 381.01zM249.53 421.01L263.39 429.01L263.39 445.01L249.53 453.01L235.68 445.01L235.68 429.01zM263.39 445.01L277.25 453.01L277.25 469.01L263.39 477.01L249.53 469.01L249.53 453.01zM249.53 469.01L263.39 477.01L263.39 493.01L249.53 501.01L235.68 493.01L235.68 477.01zM249.53 517.01L263.39 525.01L263.39 541.01L249.53 549.01L235.68 541.01L235.68 525.01zM277.25 -10.99L291.1 -2.99L291.1 13.01L277.25 21.01L263.39 13.01L263.39 -2.99zM277.25 85.01L291.1 93.01L291.1 109.01L277.25 117.01L263.39 109.01L263.39 93.01zM277.25 133.01L291.1 141.01L291.1 157.01L277.25 165.01L263.39 157.01L263.39 141.01zM291.1 157.01L304.96 165.01L304.96 181.01L291.1 189.01L277.25 181.01L277.25 165.01zM277.25 181.01L291.1 189.01L291.1 205.01L277.25 213.01L263.39 205.01L263.39 189.01zM277.25 325.01L291.1 333.01L291.1 349.01L277.25 357.01L263.39 349.01L263.39 333.01zM291.1 349.01L304.96 357.01L304.96 373.01L291.1 381.01L277.25 373.01L277.25 357.01zM291.1 397.01L304.96 405.01L304.96 421.01L291.1 429.01L277.25 421.01L277.25 405.01zM277.25 421.01L291.1 429.01L291.1 445.01L277.25 453.01L263.39 445.01L263.39 429.01zM291.1 445.01L304.96 453.01L304.96 469.01L291.1 477.01L277.25 469.01L277.25 453.01zM277.25 469.01L291.1 477.01L291.1 493.01L277.25 501.01L263.39 493.01L263.39 477.01zM291.1 493.01L304.96 501.01L304.96 517.01L291.1 525.01L277.25 517.01L277.25 501.01zM291.1 541.01L304.96 549.01L304.96 565.01L291.1 573.01L277.25 565.01L277.25 549.01zM304.96 37.01L318.82 45.01L318.82 61.01L304.96 69.01L291.1 61.01L291.1 45.01zM318.82 61.01L332.67 69.01L332.67 85.01L318.82 93.01L304.96 85.01L304.96 69.01zM318.82 109.01L332.67 117.01L332.67 133.01L318.82 141.01L304.96 133.01L304.96 117.01zM304.96 181.01L318.82 189.01L318.82 205.01L304.96 213.01L291.1 205.01L291.1 189.01zM304.96 277.01L318.82 285.01L318.82 301.01L304.96 309.01L291.1 301.01L291.1 285.01zM318.82 301.01L332.67 309.01L332.67 325.01L318.82 333.01L304.96 325.01L304.96 309.01zM304.96 325.01L318.82 333.01L318.82 349.01L304.96 357.01L291.1 349.01L291.1 333.01zM304.96 373.01L318.82 381.01L318.82 397.01L304.96 405.01L291.1 397.01L291.1 381.01zM318.82 397.01L332.67 405.01L332.67 421.01L318.82 429.01L304.96 421.01L304.96 405.01zM304.96 421.01L318.82 429.01L318.82 445.01L304.96 453.01L291.1 445.01L291.1 429.01zM318.82 445.01L332.67 453.01L332.67 469.01L318.82 477.01L304.96 469.01L304.96 453.01zM304.96 517.01L318.82 525.01L318.82 541.01L304.96 549.01L291.1 541.01L291.1 525.01zM318.82 541.01L332.67 549.01L332.67 565.01L318.82 573.01L304.96 565.01L304.96 549.01zM332.67 37.01L346.53 45.01L346.53 61.01L332.67 69.01L318.82 61.01L318.82 45.01zM346.53 61.01L360.39 69.01L360.39 85.01L346.53 93.01L332.67 85.01L332.67 69.01zM332.67 133.01L346.53 141.01L346.53 157.01L332.67 165.01L318.82 157.01L318.82 141.01zM346.53 157.01L360.39 165.01L360.39 181.01L346.53 189.01L332.67 181.01L332.67 165.01zM332.67 181.01L346.53 189.01L346.53 205.01L332.67 213.01L318.82 205.01L318.82 189.01zM346.53 253.01L360.39 261.01L360.39 277.01L346.53 285.01L332.67 277.01L332.67 261.01zM332.67 373.01L346.53 381.01L346.53 397.01L332.67 405.01L318.82 397.01L318.82 381.01zM346.53 445.01L360.39 453.01L360.39 469.01L346.53 477.01L332.67 469.01L332.67 453.01zM346.53 493.01L360.39 501.01L360.39 517.01L346.53 525.01L332.67 517.01L332.67 501.01zM332.67 517.01L346.53 525.01L346.53 541.01L332.67 549.01L318.82 541.01L318.82 525.01zM360.39 37.01L374.24 45.01L374.24 61.01L360.39 69.01L346.53 61.01L346.53 45.01zM360.39 133.01L374.24 141.01L374.24 157.01L360.39 165.01L346.53 157.01L346.53 141.01zM374.24 157.01L388.1 165.01L388.1 181.01L374.24 189.01L360.39 181.01L360.39 165.01zM360.39 181.01L374.24 189.01L374.24 205.01L360.39 213.01L346.53 205.01L346.53 189.01zM374.24 205.01L388.1 213.01L388.1 229.01L374.24 237.01L360.39 229.01L360.39 213.01zM360.39 277.01L374.24 285.01L374.24 301.01L360.39 309.01L346.53 301.01L346.53 285.01zM360.39 373.01L374.24 381.01L374.24 397.01L360.39 405.01L346.53 397.01L346.53 381.01zM374.24 397.01L388.1 405.01L388.1 421.01L374.24 429.01L360.39 421.01L360.39 405.01zM360.39 421.01L374.24 429.01L374.24 445.01L360.39 453.01L346.53 445.01L346.53 429.01zM374.24 445.01L388.1 453.01L388.1 469.01L374.24 477.01L360.39 469.01L360.39 453.01zM374.24 493.01L388.1 501.01L388.1 517.01L374.24 525.01L360.39 517.01L360.39 501.01zM360.39 517.01L374.24 525.01L374.24 541.01L360.39 549.01L346.53 541.01L346.53 525.01zM388.1 -10.99L401.96 -2.99L401.96 13.01L388.1 21.01L374.24 13.01L374.24 -2.99zM401.96 13.01L415.81 21.01L415.81 37.01L401.96 45.01L388.1 37.01L388.1 21.01zM388.1 85.01L401.96 93.01L401.96 109.01L388.1 117.01L374.24 109.01L374.24 93.01zM401.96 109.01L415.81 117.01L415.81 133.01L401.96 141.01L388.1 133.01L388.1 117.01zM388.1 181.01L401.96 189.01L401.96 205.01L388.1 213.01L374.24 205.01L374.24 189.01zM401.96 205.01L415.81 213.01L415.81 229.01L401.96 237.01L388.1 229.01L388.1 213.01zM388.1 229.01L401.96 237.01L401.96 253.01L388.1 261.01L374.24 253.01L374.24 237.01zM401.96 301.01L415.81 309.01L415.81 325.01L401.96 333.01L388.1 325.01L388.1 309.01zM388.1 421.01L401.96 429.01L401.96 445.01L388.1 453.01L374.24 445.01L374.24 429.01zM401.96 445.01L415.81 453.01L415.81 469.01L401.96 477.01L388.1 469.01L388.1 453.01zM388.1 469.01L401.96 477.01L401.96 493.01L388.1 501.01L374.24 493.01L374.24 477.01zM388.1 517.01L401.96 525.01L401.96 541.01L388.1 549.01L374.24 541.01L374.24 525.01zM401.96 541.01L415.81 549.01L415.81 565.01L401.96 573.01L388.1 565.01L388.1 549.01zM415.81 -10.99L429.67 -2.99L429.67 13.01L415.81 21.01L401.96 13.01L401.96 -2.99zM415.81 37.01L429.67 45.01L429.67 61.01L415.81 69.01L401.96 61.01L401.96 45.01zM429.67 61.01L443.53 69.01L443.53 85.01L429.67 93.01L415.81 85.01L415.81 69.01zM415.81 85.01L429.67 93.01L429.67 109.01L415.81 117.01L401.96 109.01L401.96 93.01zM429.67 109.01L443.53 117.01L443.53 133.01L429.67 141.01L415.81 133.01L415.81 117.01zM415.81 181.01L429.67 189.01L429.67 205.01L415.81 213.01L401.96 205.01L401.96 189.01zM429.67 253.01L443.53 261.01L443.53 277.01L429.67 285.01L415.81 277.01L415.81 261.01zM415.81 277.01L429.67 285.01L429.67 301.01L415.81 309.01L401.96 301.01L401.96 285.01zM429.67 301.01L443.53 309.01L443.53 325.01L429.67 333.01L415.81 325.01L415.81 309.01zM429.67 349.01L443.53 357.01L443.53 373.01L429.67 381.01L415.81 373.01L415.81 357.01zM415.81 373.01L429.67 381.01L429.67 397.01L415.81 405.01L401.96 397.01L401.96 381.01zM415.81 421.01L429.67 429.01L429.67 445.01L415.81 453.01L401.96 445.01L401.96 429.01zM415.81 517.01L429.67 525.01L429.67 541.01L415.81 549.01L401.96 541.01L401.96 525.01zM443.53 85.01L457.38 93.01L457.38 109.01L443.53 117.01L429.67 109.01L429.67 93.01zM457.38 109.01L471.24 117.01L471.24 133.01L457.38 141.01L443.53 133.01L443.53 117.01zM443.53 133.01L457.38 141.01L457.38 157.01L443.53 165.01L429.67 157.01L429.67 141.01zM443.53 229.01L457.38 237.01L457.38 253.01L443.53 261.01L429.67 253.01L429.67 237.01zM457.38 253.01L471.24 261.01L471.24 277.01L457.38 285.01L443.53 277.01L443.53 261.01zM457.38 301.01L471.24 309.01L471.24 325.01L457.38 333.01L443.53 325.01L443.53 309.01zM443.53 325.01L457.38 333.01L457.38 349.01L443.53 357.01L429.67 349.01L429.67 333.01zM457.38 349.01L471.24 357.01L471.24 373.01L457.38 381.01L443.53 373.01L443.53 357.01zM443.53 373.01L457.38 381.01L457.38 397.01L443.53 405.01L429.67 397.01L429.67 381.01zM457.38 397.01L471.24 405.01L471.24 421.01L457.38 429.01L443.53 421.01L443.53 405.01zM443.53 421.01L457.38 429.01L457.38 445.01L443.53 453.01L429.67 445.01L429.67 429.01zM443.53 469.01L457.38 477.01L457.38 493.01L443.53 501.01L429.67 493.01L429.67 477.01zM485.1 13.01L498.95 21.01L498.95 37.01L485.1 45.01L471.24 37.01L471.24 21.01zM471.24 85.01L485.1 93.01L485.1 109.01L471.24 117.01L457.38 109.01L457.38 93.01zM485.1 109.01L498.95 117.01L498.95 133.01L485.1 141.01L471.24 133.01L471.24 117.01zM471.24 133.01L485.1 141.01L485.1 157.01L471.24 165.01L457.38 157.01L457.38 141.01zM485.1 205.01L498.95 213.01L498.95 229.01L485.1 237.01L471.24 229.01L471.24 213.01zM471.24 229.01L485.1 237.01L485.1 253.01L471.24 261.01L457.38 253.01L457.38 237.01zM471.24 325.01L485.1 333.01L485.1 349.01L471.24 357.01L457.38 349.01L457.38 333.01zM485.1 397.01L498.95 405.01L498.95 421.01L485.1 429.01L471.24 421.01L471.24 405.01zM471.24 421.01L485.1 429.01L485.1 445.01L471.24 453.01L457.38 445.01L457.38 429.01zM471.24 469.01L485.1 477.01L485.1 493.01L471.24 501.01L457.38 493.01L457.38 477.01zM471.24 517.01L485.1 525.01L485.1 541.01L471.24 549.01L457.38 541.01L457.38 525.01zM498.95 -10.99L512.81 -2.99L512.81 13.01L498.95 21.01L485.1 13.01L485.1 -2.99zM512.81 13.01L526.67 21.01L526.67 37.01L512.81 45.01L498.95 37.01L498.95 21.01zM498.95 37.01L512.81 45.01L512.81 61.01L498.95 69.01L485.1 61.01L485.1 45.01zM498.95 85.01L512.81 93.01L512.81 109.01L498.95 117.01L485.1 109.01L485.1 93.01zM512.81 253.01L526.67 261.01L526.67 277.01L512.81 285.01L498.95 277.01L498.95 261.01zM498.95 277.01L512.81 285.01L512.81 301.01L498.95 309.01L485.1 301.01L485.1 285.01zM512.81 301.01L526.67 309.01L526.67 325.01L512.81 333.01L498.95 325.01L498.95 309.01zM512.81 445.01L526.67 453.01L526.67 469.01L512.81 477.01L498.95 469.01L498.95 453.01zM498.95 469.01L512.81 477.01L512.81 493.01L498.95 501.01L485.1 493.01L485.1 477.01zM512.81 493.01L526.67 501.01L526.67 517.01L512.81 525.01L498.95 517.01L498.95 501.01zM498.95 517.01L512.81 525.01L512.81 541.01L498.95 549.01L485.1 541.01L485.1 525.01zM540.53 13.01L554.38 21.01L554.38 37.01L540.53 45.01L526.67 37.01L526.67 21.01zM526.67 37.01L540.53 45.01L540.53 61.01L526.67 69.01L512.81 61.01L512.81 45.01zM526.67 85.01L540.53 93.01L540.53 109.01L526.67 117.01L512.81 109.01L512.81 93.01zM526.67 133.01L540.53 141.01L540.53 157.01L526.67 165.01L512.81 157.01L512.81 141.01zM540.53 157.01L554.38 165.01L554.38 181.01L540.53 189.01L526.67 181.01L526.67 165.01zM540.53 205.01L554.38 213.01L554.38 229.01L540.53 237.01L526.67 229.01L526.67 213.01zM540.53 301.01L554.38 309.01L554.38 325.01L540.53 333.01L526.67 325.01L526.67 309.01zM540.53 397.01L554.38 405.01L554.38 421.01L540.53 429.01L526.67 421.01L526.67 405.01zM540.53 493.01L554.38 501.01L554.38 517.01L540.53 525.01L526.67 517.01L526.67 501.01zM554.38 -10.99L568.24 -2.99L568.24 13.01L554.38 21.01L540.53 13.01L540.53 -2.99zM568.24 13.01L582.1 21.01L582.1 37.01L568.24 45.01L554.38 37.01L554.38 21.01zM554.38 133.01L568.24 141.01L568.24 157.01L554.38 165.01L540.53 157.01L540.53 141.01zM554.38 181.01L568.24 189.01L568.24 205.01L554.38 213.01L540.53 205.01L540.53 189.01zM568.24 205.01L582.1 213.01L582.1 229.01L568.24 237.01L554.38 229.01L554.38 213.01zM554.38 229.01L568.24 237.01L568.24 253.01L554.38 261.01L540.53 253.01L540.53 237.01zM568.24 253.01L582.1 261.01L582.1 277.01L568.24 285.01L554.38 277.01L554.38 261.01zM568.24 301.01L582.1 309.01L582.1 325.01L568.24 333.01L554.38 325.01L554.38 309.01zM554.38 373.01L568.24 381.01L568.24 397.01L554.38 405.01L540.53 397.01L540.53 381.01zM568.24 445.01L582.1 453.01L582.1 469.01L568.24 477.01L554.38 469.01L554.38 453.01zM554.38 469.01L568.24 477.01L568.24 493.01L554.38 501.01L540.53 493.01L540.53 477.01zM568.24 541.01L582.1 549.01L582.1 565.01L568.24 573.01L554.38 565.01L554.38 549.01zM595.95 61.01L609.81 69.01L609.81 85.01L595.95 93.01L582.1 85.01L582.1 69.01zM582.1 133.01L595.95 141.01L595.95 157.01L582.1 165.01L568.24 157.01L568.24 141.01zM582.1 277.01L595.95 285.01L595.95 301.01L582.1 309.01L568.24 301.01L568.24 285.01zM595.95 349.01L609.81 357.01L609.81 373.01L595.95 381.01L582.1 373.01L582.1 357.01zM582.1 373.01L595.95 381.01L595.95 397.01L582.1 405.01L568.24 397.01L568.24 381.01zM582.1 421.01L595.95 429.01L595.95 445.01L582.1 453.01L568.24 445.01L568.24 429.01zM595.95 445.01L609.81 453.01L609.81 469.01L595.95 477.01L582.1 469.01L582.1 453.01zM582.1 469.01L595.95 477.01L595.95 493.01L582.1 501.01L568.24 493.01L568.24 477.01zM595.95 493.01L609.81 501.01L609.81 517.01L595.95 525.01L582.1 517.01L582.1 501.01zM609.81 37.01L623.67 45.01L623.67 61.01L609.81 69.01L595.95 61.01L595.95 45.01zM623.67 157.01L637.52 165.01L637.52 181.01L623.67 189.01L609.81 181.01L609.81 165.01zM609.81 277.01L623.67 285.01L623.67 301.01L609.81 309.01L595.95 301.01L595.95 285.01zM623.67 349.01L637.52 357.01L637.52 373.01L623.67 381.01L609.81 373.01L609.81 357.01zM623.67 397.01L637.52 405.01L637.52 421.01L623.67 429.01L609.81 421.01L609.81 405.01zM623.67 493.01L637.52 501.01L637.52 517.01L623.67 525.01L609.81 517.01L609.81 501.01zM609.81 517.01L623.67 525.01L623.67 541.01L609.81 549.01L595.95 541.01L595.95 525.01zM637.52 -10.99L651.38 -2.99L651.38 13.01L637.52 21.01L623.67 13.01L623.67 -2.99zM637.52 37.01L651.38 45.01L651.38 61.01L637.52 69.01L623.67 61.01L623.67 45.01zM637.52 85.01L651.38 93.01L651.38 109.01L637.52 117.01L623.67 109.01L623.67 93.01zM651.38 109.01L665.24 117.01L665.24 133.01L651.38 141.01L637.52 133.01L637.52 117.01zM637.52 133.01L651.38 141.01L651.38 157.01L637.52 165.01L623.67 157.01L623.67 141.01zM651.38 157.01L665.24 165.01L665.24 181.01L651.38 189.01L637.52 181.01L637.52 165.01zM637.52 181.01L651.38 189.01L651.38 205.01L637.52 213.01L623.67 205.01L623.67 189.01zM637.52 229.01L651.38 237.01L651.38 253.01L637.52 261.01L623.67 253.01L623.67 237.01zM637.52 277.01L651.38 285.01L651.38 301.01L637.52 309.01L623.67 301.01L623.67 285.01zM637.52 325.01L651.38 333.01L651.38 349.01L637.52 357.01L623.67 349.01L623.67 333.01zM651.38 349.01L665.24 357.01L665.24 373.01L651.38 381.01L637.52 373.01L637.52 357.01zM637.52 373.01L651.38 381.01L651.38 397.01L637.52 405.01L623.67 397.01L623.67 381.01zM651.38 397.01L665.24 405.01L665.24 421.01L651.38 429.01L637.52 421.01L637.52 405.01zM651.38 445.01L665.24 453.01L665.24 469.01L651.38 477.01L637.52 469.01L637.52 453.01zM637.52 469.01L651.38 477.01L651.38 493.01L637.52 501.01L623.67 493.01L623.67 477.01zM651.38 493.01L665.24 501.01L665.24 517.01L651.38 525.01L637.52 517.01L637.52 501.01zM651.38 541.01L665.24 549.01L665.24 565.01L651.38 573.01L637.52 565.01L637.52 549.01zM665.24 37.01L679.09 45.01L679.09 61.01L665.24 69.01L651.38 61.01L651.38 45.01zM665.24 133.01L679.09 141.01L679.09 157.01L665.24 165.01L651.38 157.01L651.38 141.01zM679.09 157.01L692.95 165.01L692.95 181.01L679.09 189.01L665.24 181.01L665.24 165.01zM679.09 205.01L692.95 213.01L692.95 229.01L679.09 237.01L665.24 229.01L665.24 213.01zM665.24 229.01L679.09 237.01L679.09 253.01L665.24 261.01L651.38 253.01L651.38 237.01zM679.09 253.01L692.95 261.01L692.95 277.01L679.09 285.01L665.24 277.01L665.24 261.01zM679.09 349.01L692.95 357.01L692.95 373.01L679.09 381.01L665.24 373.01L665.24 357.01zM665.24 373.01L679.09 381.01L679.09 397.01L665.24 405.01L651.38 397.01L651.38 381.01zM679.09 397.01L692.95 405.01L692.95 421.01L679.09 429.01L665.24 421.01L665.24 405.01zM665.24 421.01L679.09 429.01L679.09 445.01L665.24 453.01L651.38 445.01L651.38 429.01zM679.09 445.01L692.95 453.01L692.95 469.01L679.09 477.01L665.24 469.01L665.24 453.01zM665.24 469.01L679.09 477.01L679.09 493.01L665.24 501.01L651.38 493.01L651.38 477.01zM665.24 517.01L679.09 525.01L679.09 541.01L665.24 549.01L651.38 541.01L651.38 525.01zM679.09 541.01L692.95 549.01L692.95 565.01L679.09 573.01L665.24 565.01L665.24 549.01zM706.81 13.01L720.66 21.01L720.66 37.01L706.81 45.01L692.95 37.01L692.95 21.01zM692.95 181.01L706.81 189.01L706.81 205.01L692.95 213.01L679.09 205.01L679.09 189.01zM706.81 205.01L720.66 213.01L720.66 229.01L706.81 237.01L692.95 229.01L692.95 213.01zM706.81 253.01L720.66 261.01L720.66 277.01L706.81 285.01L692.95 277.01L692.95 261.01zM692.95 277.01L706.81 285.01L706.81 301.01L692.95 309.01L679.09 301.01L679.09 285.01zM706.81 301.01L720.66 309.01L720.66 325.01L706.81 333.01L692.95 325.01L692.95 309.01zM706.81 445.01L720.66 453.01L720.66 469.01L706.81 477.01L692.95 469.01L692.95 453.01zM692.95 469.01L706.81 477.01L706.81 493.01L692.95 501.01L679.09 493.01L679.09 477.01zM706.81 493.01L720.66 501.01L720.66 517.01L706.81 525.01L692.95 517.01L692.95 501.01zM720.66 -10.99L734.52 -2.99L734.52 13.01L720.66 21.01L706.81 13.01L706.81 -2.99zM720.66 37.01L734.52 45.01L734.52 61.01L720.66 69.01L706.81 61.01L706.81 45.01zM734.52 61.01L748.38 69.01L748.38 85.01L734.52 93.01L720.66 85.01L720.66 69.01zM720.66 85.01L734.52 93.01L734.52 109.01L720.66 117.01L706.81 109.01L706.81 93.01zM734.52 109.01L748.38 117.01L748.38 133.01L734.52 141.01L720.66 133.01L720.66 117.01zM720.66 133.01L734.52 141.01L734.52 157.01L720.66 165.01L706.81 157.01L706.81 141.01zM734.52 157.01L748.38 165.01L748.38 181.01L734.52 189.01L720.66 181.01L720.66 165.01zM720.66 277.01L734.52 285.01L734.52 301.01L720.66 309.01L706.81 301.01L706.81 285.01zM720.66 325.01L734.52 333.01L734.52 349.01L720.66 357.01L706.81 349.01L706.81 333.01zM734.52 445.01L748.38 453.01L748.38 469.01L734.52 477.01L720.66 469.01L720.66 453.01zM720.66 469.01L734.52 477.01L734.52 493.01L720.66 501.01L706.81 493.01L706.81 477.01zM748.38 -10.99L762.23 -2.99L762.23 13.01L748.38 21.01L734.52 13.01L734.52 -2.99zM748.38 37.01L762.23 45.01L762.23 61.01L748.38 69.01L734.52 61.01L734.52 45.01zM748.38 133.01L762.23 141.01L762.23 157.01L748.38 165.01L734.52 157.01L734.52 141.01zM748.38 229.01L762.23 237.01L762.23 253.01L748.38 261.01L734.52 253.01L734.52 237.01zM748.38 277.01L762.23 285.01L762.23 301.01L748.38 309.01L734.52 301.01L734.52 285.01zM762.23 349.01L776.09 357.01L776.09 373.01L762.23 381.01L748.38 373.01L748.38 357.01zM748.38 373.01L762.23 381.01L762.23 397.01L748.38 405.01L734.52 397.01L734.52 381.01zM762.23 397.01L776.09 405.01L776.09 421.01L762.23 429.01L748.38 421.01L748.38 405.01zM762.23 445.01L776.09 453.01L776.09 469.01L762.23 477.01L748.38 469.01L748.38 453.01zM762.23 493.01L776.09 501.01L776.09 517.01L762.23 525.01L748.38 517.01L748.38 501.01zM748.38 517.01L762.23 525.01L762.23 541.01L748.38 549.01L734.52 541.01L734.52 525.01zM762.23 541.01L776.09 549.01L776.09 565.01L762.23 573.01L748.38 565.01L748.38 549.01zM776.09 -10.99L789.95 -2.99L789.95 13.01L776.09 21.01L762.23 13.01L762.23 -2.99zM789.95 13.01L803.8 21.01L803.8 37.01L789.95 45.01L776.09 37.01L776.09 21.01zM776.09 85.01L789.95 93.01L789.95 109.01L776.09 117.01L762.23 109.01L762.23 93.01zM789.95 109.01L803.8 117.01L803.8 133.01L789.95 141.01L776.09 133.01L776.09 117.01zM776.09 133.01L789.95 141.01L789.95 157.01L776.09 165.01L762.23 157.01L762.23 141.01zM776.09 181.01L789.95 189.01L789.95 205.01L776.09 213.01L762.23 205.01L762.23 189.01zM789.95 205.01L803.8 213.01L803.8 229.01L789.95 237.01L776.09 229.01L776.09 213.01zM776.09 229.01L789.95 237.01L789.95 253.01L776.09 261.01L762.23 253.01L762.23 237.01zM776.09 325.01L789.95 333.01L789.95 349.01L776.09 357.01L762.23 349.01L762.23 333.01zM789.95 349.01L803.8 357.01L803.8 373.01L789.95 381.01L776.09 373.01L776.09 357.01zM776.09 373.01L789.95 381.01L789.95 397.01L776.09 405.01L762.23 397.01L762.23 381.01zM789.95 445.01L803.8 453.01L803.8 469.01L789.95 477.01L776.09 469.01L776.09 453.01zM776.09 469.01L789.95 477.01L789.95 493.01L776.09 501.01L762.23 493.01L762.23 477.01zM789.95 493.01L803.8 501.01L803.8 517.01L789.95 525.01L776.09 517.01L776.09 501.01zM789.95 541.01L803.8 549.01L803.8 565.01L789.95 573.01L776.09 565.01L776.09 549.01zM803.8 -10.99L817.66 -2.99L817.66 13.01L803.8 21.01L789.95 13.01L789.95 -2.99zM817.66 13.01L831.52 21.01L831.52 37.01L817.66 45.01L803.8 37.01L803.8 21.01zM803.8 37.01L817.66 45.01L817.66 61.01L803.8 69.01L789.95 61.01L789.95 45.01zM817.66 157.01L831.52 165.01L831.52 181.01L817.66 189.01L803.8 181.01L803.8 165.01zM803.8 181.01L817.66 189.01L817.66 205.01L803.8 213.01L789.95 205.01L789.95 189.01zM817.66 253.01L831.52 261.01L831.52 277.01L817.66 285.01L803.8 277.01L803.8 261.01zM803.8 325.01L817.66 333.01L817.66 349.01L803.8 357.01L789.95 349.01L789.95 333.01zM803.8 373.01L817.66 381.01L817.66 397.01L803.8 405.01L789.95 397.01L789.95 381.01zM803.8 469.01L817.66 477.01L817.66 493.01L803.8 501.01L789.95 493.01L789.95 477.01zM817.66 493.01L831.52 501.01L831.52 517.01L817.66 525.01L803.8 517.01L803.8 501.01zM803.8 517.01L817.66 525.01L817.66 541.01L803.8 549.01L789.95 541.01L789.95 525.01zM831.52 -10.99L845.37 -2.99L845.37 13.01L831.52 21.01L817.66 13.01L817.66 -2.99zM845.37 13.01L859.23 21.01L859.23 37.01L845.37 45.01L831.52 37.01L831.52 21.01zM845.37 61.01L859.23 69.01L859.23 85.01L845.37 93.01L831.52 85.01L831.52 69.01zM831.52 85.01L845.37 93.01L845.37 109.01L831.52 117.01L817.66 109.01L817.66 93.01zM831.52 133.01L845.37 141.01L845.37 157.01L831.52 165.01L817.66 157.01L817.66 141.01zM831.52 181.01L845.37 189.01L845.37 205.01L831.52 213.01L817.66 205.01L817.66 189.01zM845.37 205.01L859.23 213.01L859.23 229.01L845.37 237.01L831.52 229.01L831.52 213.01zM845.37 253.01L859.23 261.01L859.23 277.01L845.37 285.01L831.52 277.01L831.52 261.01zM845.37 301.01L859.23 309.01L859.23 325.01L845.37 333.01L831.52 325.01L831.52 309.01zM845.37 349.01L859.23 357.01L859.23 373.01L845.37 381.01L831.52 373.01L831.52 357.01zM831.52 421.01L845.37 429.01L845.37 445.01L831.52 453.01L817.66 445.01L817.66 429.01zM831.52 517.01L845.37 525.01L845.37 541.01L831.52 549.01L817.66 541.01L817.66 525.01zM845.37 541.01L859.23 549.01L859.23 565.01L845.37 573.01L831.52 565.01L831.52 549.01zM859.23 -10.99L873.09 -2.99L873.09 13.01L859.23 21.01L845.37 13.01L845.37 -2.99zM873.09 109.01L886.95 117.01L886.95 133.01L873.09 141.01L859.23 133.01L859.23 117.01zM873.09 253.01L886.95 261.01L886.95 277.01L873.09 285.01L859.23 277.01L859.23 261.01zM873.09 349.01L886.95 357.01L886.95 373.01L873.09 381.01L859.23 373.01L859.23 357.01zM859.23 373.01L873.09 381.01L873.09 397.01L859.23 405.01L845.37 397.01L845.37 381.01zM873.09 397.01L886.95 405.01L886.95 421.01L873.09 429.01L859.23 421.01L859.23 405.01zM859.23 421.01L873.09 429.01L873.09 445.01L859.23 453.01L845.37 445.01L845.37 429.01zM873.09 445.01L886.95 453.01L886.95 469.01L873.09 477.01L859.23 469.01L859.23 453.01zM859.23 469.01L873.09 477.01L873.09 493.01L859.23 501.01L845.37 493.01L845.37 477.01zM873.09 493.01L886.95 501.01L886.95 517.01L873.09 525.01L859.23 517.01L859.23 501.01zM859.23 517.01L873.09 525.01L873.09 541.01L859.23 549.01L845.37 541.01L845.37 525.01zM900.8 61.01L914.66 69.01L914.66 85.01L900.8 93.01L886.95 85.01L886.95 69.01zM886.95 85.01L900.8 93.01L900.8 109.01L886.95 117.01L873.09 109.01L873.09 93.01zM900.8 109.01L914.66 117.01L914.66 133.01L900.8 141.01L886.95 133.01L886.95 117.01zM886.95 133.01L900.8 141.01L900.8 157.01L886.95 165.01L873.09 157.01L873.09 141.01zM900.8 157.01L914.66 165.01L914.66 181.01L900.8 189.01L886.95 181.01L886.95 165.01zM886.95 229.01L900.8 237.01L900.8 253.01L886.95 261.01L873.09 253.01L873.09 237.01zM900.8 253.01L914.66 261.01L914.66 277.01L900.8 285.01L886.95 277.01L886.95 261.01zM886.95 277.01L900.8 285.01L900.8 301.01L886.95 309.01L873.09 301.01L873.09 285.01zM886.95 373.01L900.8 381.01L900.8 397.01L886.95 405.01L873.09 397.01L873.09 381.01zM900.8 397.01L914.66 405.01L914.66 421.01L900.8 429.01L886.95 421.01L886.95 405.01zM886.95 421.01L900.8 429.01L900.8 445.01L886.95 453.01L873.09 445.01L873.09 429.01zM900.8 493.01L914.66 501.01L914.66 517.01L900.8 525.01L886.95 517.01L886.95 501.01zM886.95 517.01L900.8 525.01L900.8 541.01L886.95 549.01L873.09 541.01L873.09 525.01zM900.8 541.01L914.66 549.01L914.66 565.01L900.8 573.01L886.95 565.01L886.95 549.01zM928.52 61.01L942.37 69.01L942.37 85.01L928.52 93.01L914.66 85.01L914.66 69.01zM914.66 85.01L928.52 93.01L928.52 109.01L914.66 117.01L900.8 109.01L900.8 93.01zM928.52 109.01L942.37 117.01L942.37 133.01L928.52 141.01L914.66 133.01L914.66 117.01zM928.52 157.01L942.37 165.01L942.37 181.01L928.52 189.01L914.66 181.01L914.66 165.01zM928.52 205.01L942.37 213.01L942.37 229.01L928.52 237.01L914.66 229.01L914.66 213.01zM914.66 229.01L928.52 237.01L928.52 253.01L914.66 261.01L900.8 253.01L900.8 237.01zM928.52 301.01L942.37 309.01L942.37 325.01L928.52 333.01L914.66 325.01L914.66 309.01zM928.52 397.01L942.37 405.01L942.37 421.01L928.52 429.01L914.66 421.01L914.66 405.01zM914.66 469.01L928.52 477.01L928.52 493.01L914.66 501.01L900.8 493.01L900.8 477.01zM928.52 493.01L942.37 501.01L942.37 517.01L928.52 525.01L914.66 517.01L914.66 501.01zM956.23 13.01L970.09 21.01L970.09 37.01L956.23 45.01L942.37 37.01L942.37 21.01zM942.37 133.01L956.23 141.01L956.23 157.01L942.37 165.01L928.52 157.01L928.52 141.01zM956.23 157.01L970.09 165.01L970.09 181.01L956.23 189.01L942.37 181.01L942.37 165.01zM942.37 181.01L956.23 189.01L956.23 205.01L942.37 213.01L928.52 205.01L928.52 189.01zM956.23 205.01L970.09 213.01L970.09 229.01L956.23 237.01L942.37 229.01L942.37 213.01zM956.23 253.01L970.09 261.01L970.09 277.01L956.23 285.01L942.37 277.01L942.37 261.01zM942.37 277.01L956.23 285.01L956.23 301.01L942.37 309.01L928.52 301.01L928.52 285.01zM956.23 301.01L970.09 309.01L970.09 325.01L956.23 333.01L942.37 325.01L942.37 309.01zM956.23 349.01L970.09 357.01L970.09 373.01L956.23 381.01L942.37 373.01L942.37 357.01zM942.37 373.01L956.23 381.01L956.23 397.01L942.37 405.01L928.52 397.01L928.52 381.01zM956.23 397.01L970.09 405.01L970.09 421.01L956.23 429.01L942.37 421.01L942.37 405.01zM942.37 421.01L956.23 429.01L956.23 445.01L942.37 453.01L928.52 445.01L928.52 429.01zM942.37 469.01L956.23 477.01L956.23 493.01L942.37 501.01L928.52 493.01L928.52 477.01zM942.37 517.01L956.23 525.01L956.23 541.01L942.37 549.01L928.52 541.01L928.52 525.01zM956.23 541.01L970.09 549.01L970.09 565.01L956.23 573.01L942.37 565.01L942.37 549.01zM983.94 13.01L997.8 21.01L997.8 37.01L983.94 45.01L970.09 37.01L970.09 21.01zM970.09 37.01L983.94 45.01L983.94 61.01L970.09 69.01L956.23 61.01L956.23 45.01zM983.94 61.01L997.8 69.01L997.8 85.01L983.94 93.01L970.09 85.01L970.09 69.01zM983.94 109.01L997.8 117.01L997.8 133.01L983.94 141.01L970.09 133.01L970.09 117.01zM970.09 133.01L983.94 141.01L983.94 157.01L970.09 165.01L956.23 157.01L956.23 141.01zM983.94 157.01L997.8 165.01L997.8 181.01L983.94 189.01L970.09 181.01L970.09 165.01zM970.09 181.01L983.94 189.01L983.94 205.01L970.09 213.01L956.23 205.01L956.23 189.01zM970.09 229.01L983.94 237.01L983.94 253.01L970.09 261.01L956.23 253.01L956.23 237.01zM983.94 301.01L997.8 309.01L997.8 325.01L983.94 333.01L970.09 325.01L970.09 309.01zM970.09 325.01L983.94 333.01L983.94 349.01L970.09 357.01L956.23 349.01L956.23 333.01zM983.94 349.01L997.8 357.01L997.8 373.01L983.94 381.01L970.09 373.01L970.09 357.01zM970.09 421.01L983.94 429.01L983.94 445.01L970.09 453.01L956.23 445.01L956.23 429.01zM983.94 445.01L997.8 453.01L997.8 469.01L983.94 477.01L970.09 469.01L970.09 453.01zM983.94 541.01L997.8 549.01L997.8 565.01L983.94 573.01L970.09 565.01L970.09 549.01zM1011.66 13.01L1025.51 21.01L1025.51 37.01L1011.66 45.01L997.8 37.01L997.8 21.01zM1011.66 109.01L1025.51 117.01L1025.51 133.01L1011.66 141.01L997.8 133.01L997.8 117.01zM997.8 133.01L1011.66 141.01L1011.66 157.01L997.8 165.01L983.94 157.01L983.94 141.01zM1011.66 253.01L1025.51 261.01L1025.51 277.01L1011.66 285.01L997.8 277.01L997.8 261.01zM1011.66 301.01L1025.51 309.01L1025.51 325.01L1011.66 333.01L997.8 325.01L997.8 309.01zM997.8 325.01L1011.66 333.01L1011.66 349.01L997.8 357.01L983.94 349.01L983.94 333.01zM1011.66 349.01L1025.51 357.01L1025.51 373.01L1011.66 381.01L997.8 373.01L997.8 357.01zM997.8 373.01L1011.66 381.01L1011.66 397.01L997.8 405.01L983.94 397.01L983.94 381.01zM997.8 421.01L1011.66 429.01L1011.66 445.01L997.8 453.01L983.94 445.01L983.94 429.01zM1011.66 445.01L1025.51 453.01L1025.51 469.01L1011.66 477.01L997.8 469.01L997.8 453.01zM997.8 469.01L1011.66 477.01L1011.66 493.01L997.8 501.01L983.94 493.01L983.94 477.01zM997.8 517.01L1011.66 525.01L1011.66 541.01L997.8 549.01L983.94 541.01L983.94 525.01zM1025.51 37.01L1039.37 45.01L1039.37 61.01L1025.51 69.01L1011.66 61.01L1011.66 45.01zM1039.37 61.01L1053.23 69.01L1053.23 85.01L1039.37 93.01L1025.51 85.01L1025.51 69.01zM1025.51 85.01L1039.37 93.01L1039.37 109.01L1025.51 117.01L1011.66 109.01L1011.66 93.01zM1039.37 109.01L1053.23 117.01L1053.23 133.01L1039.37 141.01L1025.51 133.01L1025.51 117.01zM1025.51 181.01L1039.37 189.01L1039.37 205.01L1025.51 213.01L1011.66 205.01L1011.66 189.01zM1039.37 397.01L1053.23 405.01L1053.23 421.01L1039.37 429.01L1025.51 421.01L1025.51 405.01zM1025.51 469.01L1039.37 477.01L1039.37 493.01L1025.51 501.01L1011.66 493.01L1011.66 477.01zM1039.37 493.01L1053.23 501.01L1053.23 517.01L1039.37 525.01L1025.51 517.01L1025.51 501.01zM1025.51 517.01L1039.37 525.01L1039.37 541.01L1025.51 549.01L1011.66 541.01L1011.66 525.01zM1053.23 -10.99L1067.08 -2.99L1067.08 13.01L1053.23 21.01L1039.37 13.01L1039.37 -2.99zM1067.08 13.01L1080.94 21.01L1080.94 37.01L1067.08 45.01L1053.23 37.01L1053.23 21.01zM1067.08 61.01L1080.94 69.01L1080.94 85.01L1067.08 93.01L1053.23 85.01L1053.23 69.01zM1053.23 133.01L1067.08 141.01L1067.08 157.01L1053.23 165.01L1039.37 157.01L1039.37 141.01zM1067.08 157.01L1080.94 165.01L1080.94 181.01L1067.08 189.01L1053.23 181.01L1053.23 165.01zM1067.08 205.01L1080.94 213.01L1080.94 229.01L1067.08 237.01L1053.23 229.01L1053.23 213.01zM1053.23 229.01L1067.08 237.01L1067.08 253.01L1053.23 261.01L1039.37 253.01L1039.37 237.01zM1053.23 277.01L1067.08 285.01L1067.08 301.01L1053.23 309.01L1039.37 301.01L1039.37 285.01zM1067.08 349.01L1080.94 357.01L1080.94 373.01L1067.08 381.01L1053.23 373.01L1053.23 357.01zM1053.23 421.01L1067.08 429.01L1067.08 445.01L1053.23 453.01L1039.37 445.01L1039.37 429.01zM1053.23 469.01L1067.08 477.01L1067.08 493.01L1053.23 501.01L1039.37 493.01L1039.37 477.01zM1094.8 13.01L1108.65 21.01L1108.65 37.01L1094.8 45.01L1080.94 37.01L1080.94 21.01zM1080.94 85.01L1094.8 93.01L1094.8 109.01L1080.94 117.01L1067.08 109.01L1067.08 93.01zM1094.8 109.01L1108.65 117.01L1108.65 133.01L1094.8 141.01L1080.94 133.01L1080.94 117.01zM1094.8 157.01L1108.65 165.01L1108.65 181.01L1094.8 189.01L1080.94 181.01L1080.94 165.01zM1094.8 205.01L1108.65 213.01L1108.65 229.01L1094.8 237.01L1080.94 229.01L1080.94 213.01zM1094.8 253.01L1108.65 261.01L1108.65 277.01L1094.8 285.01L1080.94 277.01L1080.94 261.01zM1080.94 277.01L1094.8 285.01L1094.8 301.01L1080.94 309.01L1067.08 301.01L1067.08 285.01zM1080.94 373.01L1094.8 381.01L1094.8 397.01L1080.94 405.01L1067.08 397.01L1067.08 381.01zM1094.8 541.01L1108.65 549.01L1108.65 565.01L1094.8 573.01L1080.94 565.01L1080.94 549.01zM1108.65 37.01L1122.51 45.01L1122.51 61.01L1108.65 69.01L1094.8 61.01L1094.8 45.01zM1122.51 61.01L1136.37 69.01L1136.37 85.01L1122.51 93.01L1108.65 85.01L1108.65 69.01zM1122.51 109.01L1136.37 117.01L1136.37 133.01L1122.51 141.01L1108.65 133.01L1108.65 117.01zM1122.51 157.01L1136.37 165.01L1136.37 181.01L1122.51 189.01L1108.65 181.01L1108.65 165.01zM1108.65 181.01L1122.51 189.01L1122.51 205.01L1108.65 213.01L1094.8 205.01L1094.8 189.01zM1108.65 229.01L1122.51 237.01L1122.51 253.01L1108.65 261.01L1094.8 253.01L1094.8 237.01zM1108.65 421.01L1122.51 429.01L1122.51 445.01L1108.65 453.01L1094.8 445.01L1094.8 429.01zM1108.65 517.01L1122.51 525.01L1122.51 541.01L1108.65 549.01L1094.8 541.01L1094.8 525.01zM1136.37 37.01L1150.22 45.01L1150.22 61.01L1136.37 69.01L1122.51 61.01L1122.51 45.01zM1150.22 61.01L1164.08 69.01L1164.08 85.01L1150.22 93.01L1136.37 85.01L1136.37 69.01zM1136.37 85.01L1150.22 93.01L1150.22 109.01L1136.37 117.01L1122.51 109.01L1122.51 93.01zM1136.37 181.01L1150.22 189.01L1150.22 205.01L1136.37 213.01L1122.51 205.01L1122.51 189.01zM1150.22 253.01L1164.08 261.01L1164.08 277.01L1150.22 285.01L1136.37 277.01L1136.37 261.01zM1150.22 301.01L1164.08 309.01L1164.08 325.01L1150.22 333.01L1136.37 325.01L1136.37 309.01zM1150.22 397.01L1164.08 405.01L1164.08 421.01L1150.22 429.01L1136.37 421.01L1136.37 405.01zM1136.37 469.01L1150.22 477.01L1150.22 493.01L1136.37 501.01L1122.51 493.01L1122.51 477.01zM1136.37 517.01L1150.22 525.01L1150.22 541.01L1136.37 549.01L1122.51 541.01L1122.51 525.01zM1164.08 -10.99L1177.94 -2.99L1177.94 13.01L1164.08 21.01L1150.22 13.01L1150.22 -2.99zM1177.94 61.01L1191.79 69.01L1191.79 85.01L1177.94 93.01L1164.08 85.01L1164.08 69.01zM1164.08 85.01L1177.94 93.01L1177.94 109.01L1164.08 117.01L1150.22 109.01L1150.22 93.01zM1177.94 109.01L1191.79 117.01L1191.79 133.01L1177.94 141.01L1164.08 133.01L1164.08 117.01zM1164.08 133.01L1177.94 141.01L1177.94 157.01L1164.08 165.01L1150.22 157.01L1150.22 141.01zM1164.08 181.01L1177.94 189.01L1177.94 205.01L1164.08 213.01L1150.22 205.01L1150.22 189.01zM1177.94 205.01L1191.79 213.01L1191.79 229.01L1177.94 237.01L1164.08 229.01L1164.08 213.01zM1164.08 229.01L1177.94 237.01L1177.94 253.01L1164.08 261.01L1150.22 253.01L1150.22 237.01zM1177.94 253.01L1191.79 261.01L1191.79 277.01L1177.94 285.01L1164.08 277.01L1164.08 261.01zM1164.08 325.01L1177.94 333.01L1177.94 349.01L1164.08 357.01L1150.22 349.01L1150.22 333.01zM1177.94 397.01L1191.79 405.01L1191.79 421.01L1177.94 429.01L1164.08 421.01L1164.08 405.01zM1164.08 421.01L1177.94 429.01L1177.94 445.01L1164.08 453.01L1150.22 445.01L1150.22 429.01zM1177.94 445.01L1191.79 453.01L1191.79 469.01L1177.94 477.01L1164.08 469.01L1164.08 453.01zM1177.94 541.01L1191.79 549.01L1191.79 565.01L1177.94 573.01L1164.08 565.01L1164.08 549.01zM1191.79 37.01L1205.65 45.01L1205.65 61.01L1191.79 69.01L1177.94 61.01L1177.94 45.01zM1191.79 85.01L1205.65 93.01L1205.65 109.01L1191.79 117.01L1177.94 109.01L1177.94 93.01zM1191.79 181.01L1205.65 189.01L1205.65 205.01L1191.79 213.01L1177.94 205.01L1177.94 189.01zM1191.79 229.01L1205.65 237.01L1205.65 253.01L1191.79 261.01L1177.94 253.01L1177.94 237.01zM1205.65 301.01L1219.51 309.01L1219.51 325.01L1205.65 333.01L1191.79 325.01L1191.79 309.01zM1191.79 325.01L1205.65 333.01L1205.65 349.01L1191.79 357.01L1177.94 349.01L1177.94 333.01zM1191.79 373.01L1205.65 381.01L1205.65 397.01L1191.79 405.01L1177.94 397.01L1177.94 381.01zM1205.65 397.01L1219.51 405.01L1219.51 421.01L1205.65 429.01L1191.79 421.01L1191.79 405.01zM1205.65 445.01L1219.51 453.01L1219.51 469.01L1205.65 477.01L1191.79 469.01L1191.79 453.01zM1191.79 469.01L1205.65 477.01L1205.65 493.01L1191.79 501.01L1177.94 493.01L1177.94 477.01zM1191.79 517.01L1205.65 525.01L1205.65 541.01L1191.79 549.01L1177.94 541.01L1177.94 525.01zM1205.65 541.01L1219.51 549.01L1219.51 565.01L1205.65 573.01L1191.79 565.01L1191.79 549.01zM1219.51 -10.99L1233.37 -2.99L1233.37 13.01L1219.51 21.01L1205.65 13.01L1205.65 -2.99zM1219.51 37.01L1233.37 45.01L1233.37 61.01L1219.51 69.01L1205.65 61.01L1205.65 45.01zM1219.51 85.01L1233.37 93.01L1233.37 109.01L1219.51 117.01L1205.65 109.01L1205.65 93.01zM1233.37 109.01L1247.22 117.01L1247.22 133.01L1233.37 141.01L1219.51 133.01L1219.51 117.01zM1219.51 133.01L1233.37 141.01L1233.37 157.01L1219.51 165.01L1205.65 157.01L1205.65 141.01zM1233.37 157.01L1247.22 165.01L1247.22 181.01L1233.37 189.01L1219.51 181.01L1219.51 165.01zM1219.51 181.01L1233.37 189.01L1233.37 205.01L1219.51 213.01L1205.65 205.01L1205.65 189.01zM1233.37 205.01L1247.22 213.01L1247.22 229.01L1233.37 237.01L1219.51 229.01L1219.51 213.01zM1219.51 229.01L1233.37 237.01L1233.37 253.01L1219.51 261.01L1205.65 253.01L1205.65 237.01zM1233.37 253.01L1247.22 261.01L1247.22 277.01L1233.37 285.01L1219.51 277.01L1219.51 261.01zM1219.51 277.01L1233.37 285.01L1233.37 301.01L1219.51 309.01L1205.65 301.01L1205.65 285.01zM1233.37 349.01L1247.22 357.01L1247.22 373.01L1233.37 381.01L1219.51 373.01L1219.51 357.01zM1219.51 373.01L1233.37 381.01L1233.37 397.01L1219.51 405.01L1205.65 397.01L1205.65 381.01zM1233.37 397.01L1247.22 405.01L1247.22 421.01L1233.37 429.01L1219.51 421.01L1219.51 405.01zM1219.51 421.01L1233.37 429.01L1233.37 445.01L1219.51 453.01L1205.65 445.01L1205.65 429.01zM1233.37 445.01L1247.22 453.01L1247.22 469.01L1233.37 477.01L1219.51 469.01L1219.51 453.01zM1219.51 469.01L1233.37 477.01L1233.37 493.01L1219.51 501.01L1205.65 493.01L1205.65 477.01zM1233.37 493.01L1247.22 501.01L1247.22 517.01L1233.37 525.01L1219.51 517.01L1219.51 501.01zM1219.51 517.01L1233.37 525.01L1233.37 541.01L1219.51 549.01L1205.65 541.01L1205.65 525.01zM1233.37 541.01L1247.22 549.01L1247.22 565.01L1233.37 573.01L1219.51 565.01L1219.51 549.01zM1247.22 -10.99L1261.08 -2.99L1261.08 13.01L1247.22 21.01L1233.37 13.01L1233.37 -2.99zM1247.22 37.01L1261.08 45.01L1261.08 61.01L1247.22 69.01L1233.37 61.01L1233.37 45.01zM1247.22 133.01L1261.08 141.01L1261.08 157.01L1247.22 165.01L1233.37 157.01L1233.37 141.01zM1247.22 181.01L1261.08 189.01L1261.08 205.01L1247.22 213.01L1233.37 205.01L1233.37 189.01zM1261.08 205.01L1274.94 213.01L1274.94 229.01L1261.08 237.01L1247.22 229.01L1247.22 213.01zM1247.22 229.01L1261.08 237.01L1261.08 253.01L1247.22 261.01L1233.37 253.01L1233.37 237.01zM1247.22 277.01L1261.08 285.01L1261.08 301.01L1247.22 309.01L1233.37 301.01L1233.37 285.01zM1261.08 301.01L1274.94 309.01L1274.94 325.01L1261.08 333.01L1247.22 325.01L1247.22 309.01zM1261.08 397.01L1274.94 405.01L1274.94 421.01L1261.08 429.01L1247.22 421.01L1247.22 405.01zM1247.22 469.01L1261.08 477.01L1261.08 493.01L1247.22 501.01L1233.37 493.01L1233.37 477.01zM1261.08 541.01L1274.94 549.01L1274.94 565.01L1261.08 573.01L1247.22 565.01L1247.22 549.01zM1274.94 -10.99L1288.79 -2.99L1288.79 13.01L1274.94 21.01L1261.08 13.01L1261.08 -2.99zM1288.79 13.01L1302.65 21.01L1302.65 37.01L1288.79 45.01L1274.94 37.01L1274.94 21.01zM1274.94 37.01L1288.79 45.01L1288.79 61.01L1274.94 69.01L1261.08 61.01L1261.08 45.01zM1288.79 109.01L1302.65 117.01L1302.65 133.01L1288.79 141.01L1274.94 133.01L1274.94 117.01zM1288.79 157.01L1302.65 165.01L1302.65 181.01L1288.79 189.01L1274.94 181.01L1274.94 165.01zM1288.79 205.01L1302.65 213.01L1302.65 229.01L1288.79 237.01L1274.94 229.01L1274.94 213.01zM1274.94 229.01L1288.79 237.01L1288.79 253.01L1274.94 261.01L1261.08 253.01L1261.08 237.01zM1288.79 253.01L1302.65 261.01L1302.65 277.01L1288.79 285.01L1274.94 277.01L1274.94 261.01zM1274.94 421.01L1288.79 429.01L1288.79 445.01L1274.94 453.01L1261.08 445.01L1261.08 429.01zM1274.94 469.01L1288.79 477.01L1288.79 493.01L1274.94 501.01L1261.08 493.01L1261.08 477.01zM1274.94 517.01L1288.79 525.01L1288.79 541.01L1274.94 549.01L1261.08 541.01L1261.08 525.01zM1302.65 -10.99L1316.51 -2.99L1316.51 13.01L1302.65 21.01L1288.79 13.01L1288.79 -2.99zM1316.51 13.01L1330.36 21.01L1330.36 37.01L1316.51 45.01L1302.65 37.01L1302.65 21.01zM1302.65 85.01L1316.51 93.01L1316.51 109.01L1302.65 117.01L1288.79 109.01L1288.79 93.01zM1316.51 205.01L1330.36 213.01L1330.36 229.01L1316.51 237.01L1302.65 229.01L1302.65 213.01zM1316.51 253.01L1330.36 261.01L1330.36 277.01L1316.51 285.01L1302.65 277.01L1302.65 261.01zM1302.65 373.01L1316.51 381.01L1316.51 397.01L1302.65 405.01L1288.79 397.01L1288.79 381.01zM1316.51 445.01L1330.36 453.01L1330.36 469.01L1316.51 477.01L1302.65 469.01L1302.65 453.01zM1302.65 469.01L1316.51 477.01L1316.51 493.01L1302.65 501.01L1288.79 493.01L1288.79 477.01zM1316.51 493.01L1330.36 501.01L1330.36 517.01L1316.51 525.01L1302.65 517.01L1302.65 501.01zM1316.51 541.01L1330.36 549.01L1330.36 565.01L1316.51 573.01L1302.65 565.01L1302.65 549.01zM1330.36 -10.99L1344.22 -2.99L1344.22 13.01L1330.36 21.01L1316.51 13.01L1316.51 -2.99zM1344.22 13.01L1358.08 21.01L1358.08 37.01L1344.22 45.01L1330.36 37.01L1330.36 21.01zM1344.22 61.01L1358.08 69.01L1358.08 85.01L1344.22 93.01L1330.36 85.01L1330.36 69.01zM1330.36 85.01L1344.22 93.01L1344.22 109.01L1330.36 117.01L1316.51 109.01L1316.51 93.01zM1330.36 133.01L1344.22 141.01L1344.22 157.01L1330.36 165.01L1316.51 157.01L1316.51 141.01zM1344.22 157.01L1358.08 165.01L1358.08 181.01L1344.22 189.01L1330.36 181.01L1330.36 165.01zM1344.22 205.01L1358.08 213.01L1358.08 229.01L1344.22 237.01L1330.36 229.01L1330.36 213.01zM1344.22 253.01L1358.08 261.01L1358.08 277.01L1344.22 285.01L1330.36 277.01L1330.36 261.01zM1330.36 325.01L1344.22 333.01L1344.22 349.01L1330.36 357.01L1316.51 349.01L1316.51 333.01zM1344.22 349.01L1358.08 357.01L1358.08 373.01L1344.22 381.01L1330.36 373.01L1330.36 357.01zM1344.22 397.01L1358.08 405.01L1358.08 421.01L1344.22 429.01L1330.36 421.01L1330.36 405.01zM1330.36 421.01L1344.22 429.01L1344.22 445.01L1330.36 453.01L1316.51 445.01L1316.51 429.01zM1344.22 493.01L1358.08 501.01L1358.08 517.01L1344.22 525.01L1330.36 517.01L1330.36 501.01zM1371.93 13.01L1385.79 21.01L1385.79 37.01L1371.93 45.01L1358.08 37.01L1358.08 21.01zM1358.08 37.01L1371.93 45.01L1371.93 61.01L1358.08 69.01L1344.22 61.01L1344.22 45.01zM1371.93 61.01L1385.79 69.01L1385.79 85.01L1371.93 93.01L1358.08 85.01L1358.08 69.01zM1358.08 85.01L1371.93 93.01L1371.93 109.01L1358.08 117.01L1344.22 109.01L1344.22 93.01zM1371.93 109.01L1385.79 117.01L1385.79 133.01L1371.93 141.01L1358.08 133.01L1358.08 117.01zM1358.08 133.01L1371.93 141.01L1371.93 157.01L1358.08 165.01L1344.22 157.01L1344.22 141.01zM1371.93 205.01L1385.79 213.01L1385.79 229.01L1371.93 237.01L1358.08 229.01L1358.08 213.01zM1371.93 253.01L1385.79 261.01L1385.79 277.01L1371.93 285.01L1358.08 277.01L1358.08 261.01zM1358.08 277.01L1371.93 285.01L1371.93 301.01L1358.08 309.01L1344.22 301.01L1344.22 285.01zM1358.08 373.01L1371.93 381.01L1371.93 397.01L1358.08 405.01L1344.22 397.01L1344.22 381.01zM1358.08 421.01L1371.93 429.01L1371.93 445.01L1358.08 453.01L1344.22 445.01L1344.22 429.01zM1371.93 445.01L1385.79 453.01L1385.79 469.01L1371.93 477.01L1358.08 469.01L1358.08 453.01zM1371.93 493.01L1385.79 501.01L1385.79 517.01L1371.93 525.01L1358.08 517.01L1358.08 501.01zM1358.08 517.01L1371.93 525.01L1371.93 541.01L1358.08 549.01L1344.22 541.01L1344.22 525.01zM1385.79 -10.99L1399.65 -2.99L1399.65 13.01L1385.79 21.01L1371.93 13.01L1371.93 -2.99zM1399.65 157.01L1413.5 165.01L1413.5 181.01L1399.65 189.01L1385.79 181.01L1385.79 165.01zM1385.79 181.01L1399.65 189.01L1399.65 205.01L1385.79 213.01L1371.93 205.01L1371.93 189.01zM1399.65 301.01L1413.5 309.01L1413.5 325.01L1399.65 333.01L1385.79 325.01L1385.79 309.01zM1385.79 325.01L1399.65 333.01L1399.65 349.01L1385.79 357.01L1371.93 349.01L1371.93 333.01zM1399.65 349.01L1413.5 357.01L1413.5 373.01L1399.65 381.01L1385.79 373.01L1385.79 357.01zM1385.79 373.01L1399.65 381.01L1399.65 397.01L1385.79 405.01L1371.93 397.01L1371.93 381.01zM1399.65 397.01L1413.5 405.01L1413.5 421.01L1399.65 429.01L1385.79 421.01L1385.79 405.01zM1385.79 421.01L1399.65 429.01L1399.65 445.01L1385.79 453.01L1371.93 445.01L1371.93 429.01zM1399.65 445.01L1413.5 453.01L1413.5 469.01L1399.65 477.01L1385.79 469.01L1385.79 453.01zM1385.79 469.01L1399.65 477.01L1399.65 493.01L1385.79 501.01L1371.93 493.01L1371.93 477.01zM1399.65 493.01L1413.5 501.01L1413.5 517.01L1399.65 525.01L1385.79 517.01L1385.79 501.01zM1385.79 517.01L1399.65 525.01L1399.65 541.01L1385.79 549.01L1371.93 541.01L1371.93 525.01zM1427.36 61.01L1441.22 69.01L1441.22 85.01L1427.36 93.01L1413.5 85.01L1413.5 69.01zM1413.5 85.01L1427.36 93.01L1427.36 109.01L1413.5 117.01L1399.65 109.01L1399.65 93.01zM1413.5 181.01L1427.36 189.01L1427.36 205.01L1413.5 213.01L1399.65 205.01L1399.65 189.01zM1413.5 229.01L1427.36 237.01L1427.36 253.01L1413.5 261.01L1399.65 253.01L1399.65 237.01zM1413.5 277.01L1427.36 285.01L1427.36 301.01L1413.5 309.01L1399.65 301.01L1399.65 285.01zM1413.5 373.01L1427.36 381.01L1427.36 397.01L1413.5 405.01L1399.65 397.01L1399.65 381.01zM1427.36 397.01L1441.22 405.01L1441.22 421.01L1427.36 429.01L1413.5 421.01L1413.5 405.01zM1427.36 445.01L1441.22 453.01L1441.22 469.01L1427.36 477.01L1413.5 469.01L1413.5 453.01z" stroke="rgba(248, 179, 25, 1)" stroke-width="2"></path></g><defs><mask id="SvgjsMask1133"><rect width="1440" height="560" fill="#ffffff"></rect></mask></defs></svg>