<svg xmlns="http://www.w3.org/2000/svg" version="1.1" xmlns:xlink="http://www.w3.org/1999/xlink" xmlns:svgjs="http://svgjs.dev/svgjs" width="1440" height="560" preserveAspectRatio="none" viewBox="0 0 1440 560"><g mask="url(&quot;#SvgjsMask8390&quot;)" fill="none"><rect width="1440" height="560" x="0" y="0" fill="rgba(0, 0, 0, 1)"></rect><path d="M0 -18L15.59 -9L15.59 9L0 18L-15.59 9L-15.59 -9zM15.59 9L31.18 18L31.18 36L15.59 45L0 36L0 18zM0 36L15.59 45L15.59 63L0 72L-15.59 63L-15.59 45zM15.59 63L31.18 72L31.18 90L15.59 99L0 90L0 72zM0 90L15.59 99L15.59 117L0 126L-15.59 117L-15.59 99zM15.59 117L31.18 126L31.18 144L15.59 153L0 144L0 126zM0 144L15.59 153L15.59 171L0 180L-15.59 171L-15.59 153zM15.59 171L31.18 180L31.18 198L15.59 207L0 198L0 180zM0 198L15.59 207L15.59 225L0 234L-15.59 225L-15.59 207zM15.59 225L31.18 234L31.18 252L15.59 261L0 252L0 234zM0 252L15.59 261L15.59 279L0 288L-15.59 279L-15.59 261zM15.59 279L31.18 288L31.18 306L15.59 315L0 306L0 288zM0 306L15.59 315L15.59 333L0 342L-15.59 333L-15.59 315zM15.59 333L31.18 342L31.18 360L15.59 369L0 360L0 342zM0 360L15.59 369L15.59 387L0 396L-15.59 387L-15.59 369zM15.59 387L31.18 396L31.18 414L15.59 423L0 414L0 396zM0 414L15.59 423L15.59 441L0 450L-15.59 441L-15.59 423zM15.59 441L31.18 450L31.18 468L15.59 477L0 468L0 450zM0 468L15.59 477L15.59 495L0 504L-15.59 495L-15.59 477zM15.59 495L31.18 504L31.18 522L15.59 531L0 522L0 504zM0 522L15.59 531L15.59 549L0 558L-15.59 549L-15.59 531zM15.59 549L31.18 558L31.18 576L15.59 585L0 576L0 558zM31.18 -18L46.77 -9L46.77 9L31.18 18L15.59 9L15.59 -9zM46.77 9L62.36 18L62.36 36L46.77 45L31.18 36L31.18 18zM31.18 36L46.77 45L46.77 63L31.18 72L15.59 63L15.59 45zM46.77 63L62.36 72L62.36 90L46.77 99L31.18 90L31.18 72zM31.18 90L46.77 99L46.77 117L31.18 126L15.59 117L15.59 99zM46.77 117L62.36 126L62.36 144L46.77 153L31.18 144L31.18 126zM31.18 144L46.77 153L46.77 171L31.18 180L15.59 171L15.59 153zM46.77 171L62.36 180L62.36 198L46.77 207L31.18 198L31.18 180zM31.18 198L46.77 207L46.77 225L31.18 234L15.59 225L15.59 207zM46.77 225L62.36 234L62.36 252L46.77 261L31.18 252L31.18 234zM31.18 252L46.77 261L46.77 279L31.18 288L15.59 279L15.59 261zM46.77 279L62.36 288L62.36 306L46.77 315L31.18 306L31.18 288zM31.18 306L46.77 315L46.77 333L31.18 342L15.59 333L15.59 315zM46.77 333L62.36 342L62.36 360L46.77 369L31.18 360L31.18 342zM31.18 360L46.77 369L46.77 387L31.18 396L15.59 387L15.59 369zM46.77 387L62.36 396L62.36 414L46.77 423L31.18 414L31.18 396zM31.18 414L46.77 423L46.77 441L31.18 450L15.59 441L15.59 423zM46.77 441L62.36 450L62.36 468L46.77 477L31.18 468L31.18 450zM31.18 468L46.77 477L46.77 495L31.18 504L15.59 495L15.59 477zM46.77 495L62.36 504L62.36 522L46.77 531L31.18 522L31.18 504zM31.18 522L46.77 531L46.77 549L31.18 558L15.59 549L15.59 531zM46.77 549L62.36 558L62.36 576L46.77 585L31.18 576L31.18 558zM62.36 -18L77.94 -9L77.94 9L62.36 18L46.77 9L46.77 -9zM77.94 9L93.53 18L93.53 36L77.94 45L62.36 36L62.36 18zM62.36 36L77.94 45L77.94 63L62.36 72L46.77 63L46.77 45zM77.94 63L93.53 72L93.53 90L77.94 99L62.36 90L62.36 72zM62.36 90L77.94 99L77.94 117L62.36 126L46.77 117L46.77 99zM77.94 117L93.53 126L93.53 144L77.94 153L62.36 144L62.36 126zM62.36 144L77.94 153L77.94 171L62.36 180L46.77 171L46.77 153zM77.94 171L93.53 180L93.53 198L77.94 207L62.36 198L62.36 180zM62.36 198L77.94 207L77.94 225L62.36 234L46.77 225L46.77 207zM77.94 225L93.53 234L93.53 252L77.94 261L62.36 252L62.36 234zM62.36 252L77.94 261L77.94 279L62.36 288L46.77 279L46.77 261zM77.94 279L93.53 288L93.53 306L77.94 315L62.36 306L62.36 288zM62.36 306L77.94 315L77.94 333L62.36 342L46.77 333L46.77 315zM77.94 333L93.53 342L93.53 360L77.94 369L62.36 360L62.36 342zM62.36 360L77.94 369L77.94 387L62.36 396L46.77 387L46.77 369zM77.94 387L93.53 396L93.53 414L77.94 423L62.36 414L62.36 396zM62.36 414L77.94 423L77.94 441L62.36 450L46.77 441L46.77 423zM77.94 441L93.53 450L93.53 468L77.94 477L62.36 468L62.36 450zM62.36 468L77.94 477L77.94 495L62.36 504L46.77 495L46.77 477zM77.94 495L93.53 504L93.53 522L77.94 531L62.36 522L62.36 504zM62.36 522L77.94 531L77.94 549L62.36 558L46.77 549L46.77 531zM77.94 549L93.53 558L93.53 576L77.94 585L62.36 576L62.36 558zM93.53 -18L109.12 -9L109.12 9L93.53 18L77.94 9L77.94 -9zM109.12 9L124.71 18L124.71 36L109.12 45L93.53 36L93.53 18zM93.53 36L109.12 45L109.12 63L93.53 72L77.94 63L77.94 45zM109.12 63L124.71 72L124.71 90L109.12 99L93.53 90L93.53 72zM93.53 90L109.12 99L109.12 117L93.53 126L77.94 117L77.94 99zM109.12 117L124.71 126L124.71 144L109.12 153L93.53 144L93.53 126zM93.53 144L109.12 153L109.12 171L93.53 180L77.94 171L77.94 153zM109.12 171L124.71 180L124.71 198L109.12 207L93.53 198L93.53 180zM93.53 198L109.12 207L109.12 225L93.53 234L77.94 225L77.94 207zM109.12 225L124.71 234L124.71 252L109.12 261L93.53 252L93.53 234zM93.53 252L109.12 261L109.12 279L93.53 288L77.94 279L77.94 261zM109.12 279L124.71 288L124.71 306L109.12 315L93.53 306L93.53 288zM93.53 306L109.12 315L109.12 333L93.53 342L77.94 333L77.94 315zM109.12 333L124.71 342L124.71 360L109.12 369L93.53 360L93.53 342zM93.53 360L109.12 369L109.12 387L93.53 396L77.94 387L77.94 369zM109.12 387L124.71 396L124.71 414L109.12 423L93.53 414L93.53 396zM93.53 414L109.12 423L109.12 441L93.53 450L77.94 441L77.94 423zM109.12 441L124.71 450L124.71 468L109.12 477L93.53 468L93.53 450zM93.53 468L109.12 477L109.12 495L93.53 504L77.94 495L77.94 477zM109.12 495L124.71 504L124.71 522L109.12 531L93.53 522L93.53 504zM93.53 522L109.12 531L109.12 549L93.53 558L77.94 549L77.94 531zM109.12 549L124.71 558L124.71 576L109.12 585L93.53 576L93.53 558zM124.71 -18L140.3 -9L140.3 9L124.71 18L109.12 9L109.12 -9zM140.3 9L155.89 18L155.89 36L140.3 45L124.71 36L124.71 18zM124.71 36L140.3 45L140.3 63L124.71 72L109.12 63L109.12 45zM140.3 63L155.89 72L155.89 90L140.3 99L124.71 90L124.71 72zM124.71 90L140.3 99L140.3 117L124.71 126L109.12 117L109.12 99zM140.3 117L155.89 126L155.89 144L140.3 153L124.71 144L124.71 126zM124.71 144L140.3 153L140.3 171L124.71 180L109.12 171L109.12 153zM140.3 171L155.89 180L155.89 198L140.3 207L124.71 198L124.71 180zM124.71 198L140.3 207L140.3 225L124.71 234L109.12 225L109.12 207zM140.3 225L155.89 234L155.89 252L140.3 261L124.71 252L124.71 234zM124.71 252L140.3 261L140.3 279L124.71 288L109.12 279L109.12 261zM140.3 279L155.89 288L155.89 306L140.3 315L124.71 306L124.71 288zM124.71 306L140.3 315L140.3 333L124.71 342L109.12 333L109.12 315zM140.3 333L155.89 342L155.89 360L140.3 369L124.71 360L124.71 342zM124.71 360L140.3 369L140.3 387L124.71 396L109.12 387L109.12 369zM140.3 387L155.89 396L155.89 414L140.3 423L124.71 414L124.71 396zM124.71 414L140.3 423L140.3 441L124.71 450L109.12 441L109.12 423zM140.3 441L155.89 450L155.89 468L140.3 477L124.71 468L124.71 450zM124.71 468L140.3 477L140.3 495L124.71 504L109.12 495L109.12 477zM140.3 495L155.89 504L155.89 522L140.3 531L124.71 522L124.71 504zM124.71 522L140.3 531L140.3 549L124.71 558L109.12 549L109.12 531zM140.3 549L155.89 558L155.89 576L140.3 585L124.71 576L124.71 558zM155.89 -18L171.48 -9L171.48 9L155.89 18L140.3 9L140.3 -9zM171.48 9L187.07 18L187.07 36L171.48 45L155.89 36L155.89 18zM155.89 36L171.48 45L171.48 63L155.89 72L140.3 63L140.3 45zM171.48 63L187.07 72L187.07 90L171.48 99L155.89 90L155.89 72zM155.89 90L171.48 99L171.48 117L155.89 126L140.3 117L140.3 99zM171.48 117L187.07 126L187.07 144L171.48 153L155.89 144L155.89 126zM155.89 144L171.48 153L171.48 171L155.89 180L140.3 171L140.3 153zM171.48 171L187.07 180L187.07 198L171.48 207L155.89 198L155.89 180zM155.89 198L171.48 207L171.48 225L155.89 234L140.3 225L140.3 207zM171.48 225L187.07 234L187.07 252L171.48 261L155.89 252L155.89 234zM155.89 252L171.48 261L171.48 279L155.89 288L140.3 279L140.3 261zM171.48 279L187.07 288L187.07 306L171.48 315L155.89 306L155.89 288zM155.89 306L171.48 315L171.48 333L155.89 342L140.3 333L140.3 315zM171.48 333L187.07 342L187.07 360L171.48 369L155.89 360L155.89 342zM155.89 360L171.48 369L171.48 387L155.89 396L140.3 387L140.3 369zM171.48 387L187.07 396L187.07 414L171.48 423L155.89 414L155.89 396zM155.89 414L171.48 423L171.48 441L155.89 450L140.3 441L140.3 423zM171.48 441L187.07 450L187.07 468L171.48 477L155.89 468L155.89 450zM155.89 468L171.48 477L171.48 495L155.89 504L140.3 495L140.3 477zM171.48 495L187.07 504L187.07 522L171.48 531L155.89 522L155.89 504zM155.89 522L171.48 531L171.48 549L155.89 558L140.3 549L140.3 531zM171.48 549L187.07 558L187.07 576L171.48 585L155.89 576L155.89 558zM187.07 -18L202.66 -9L202.66 9L187.07 18L171.48 9L171.48 -9zM202.66 9L218.24 18L218.24 36L202.66 45L187.07 36L187.07 18zM187.07 36L202.66 45L202.66 63L187.07 72L171.48 63L171.48 45zM202.66 63L218.24 72L218.24 90L202.66 99L187.07 90L187.07 72zM187.07 90L202.66 99L202.66 117L187.07 126L171.48 117L171.48 99zM202.66 117L218.24 126L218.24 144L202.66 153L187.07 144L187.07 126zM187.07 144L202.66 153L202.66 171L187.07 180L171.48 171L171.48 153zM202.66 171L218.24 180L218.24 198L202.66 207L187.07 198L187.07 180zM187.07 198L202.66 207L202.66 225L187.07 234L171.48 225L171.48 207zM202.66 225L218.24 234L218.24 252L202.66 261L187.07 252L187.07 234zM187.07 252L202.66 261L202.66 279L187.07 288L171.48 279L171.48 261zM202.66 279L218.24 288L218.24 306L202.66 315L187.07 306L187.07 288zM187.07 306L202.66 315L202.66 333L187.07 342L171.48 333L171.48 315zM202.66 333L218.24 342L218.24 360L202.66 369L187.07 360L187.07 342zM187.07 360L202.66 369L202.66 387L187.07 396L171.48 387L171.48 369zM202.66 387L218.24 396L218.24 414L202.66 423L187.07 414L187.07 396zM187.07 414L202.66 423L202.66 441L187.07 450L171.48 441L171.48 423zM202.66 441L218.24 450L218.24 468L202.66 477L187.07 468L187.07 450zM187.07 468L202.66 477L202.66 495L187.07 504L171.48 495L171.48 477zM202.66 495L218.24 504L218.24 522L202.66 531L187.07 522L187.07 504zM187.07 522L202.66 531L202.66 549L187.07 558L171.48 549L171.48 531zM202.66 549L218.24 558L218.24 576L202.66 585L187.07 576L187.07 558zM218.24 -18L233.83 -9L233.83 9L218.24 18L202.66 9L202.66 -9zM233.83 9L249.42 18L249.42 36L233.83 45L218.24 36L218.24 18zM218.24 36L233.83 45L233.83 63L218.24 72L202.66 63L202.66 45zM233.83 63L249.42 72L249.42 90L233.83 99L218.24 90L218.24 72zM218.24 90L233.83 99L233.83 117L218.24 126L202.66 117L202.66 99zM233.83 117L249.42 126L249.42 144L233.83 153L218.24 144L218.24 126zM218.24 144L233.83 153L233.83 171L218.24 180L202.66 171L202.66 153zM233.83 171L249.42 180L249.42 198L233.83 207L218.24 198L218.24 180zM218.24 198L233.83 207L233.83 225L218.24 234L202.66 225L202.66 207zM233.83 225L249.42 234L249.42 252L233.83 261L218.24 252L218.24 234zM218.24 252L233.83 261L233.83 279L218.24 288L202.66 279L202.66 261zM233.83 279L249.42 288L249.42 306L233.83 315L218.24 306L218.24 288zM218.24 306L233.83 315L233.83 333L218.24 342L202.66 333L202.66 315zM233.83 333L249.42 342L249.42 360L233.83 369L218.24 360L218.24 342zM218.24 360L233.83 369L233.83 387L218.24 396L202.66 387L202.66 369zM233.83 387L249.42 396L249.42 414L233.83 423L218.24 414L218.24 396zM218.24 414L233.83 423L233.83 441L218.24 450L202.66 441L202.66 423zM233.83 441L249.42 450L249.42 468L233.83 477L218.24 468L218.24 450zM218.24 468L233.83 477L233.83 495L218.24 504L202.66 495L202.66 477zM233.83 495L249.42 504L249.42 522L233.83 531L218.24 522L218.24 504zM218.24 522L233.83 531L233.83 549L218.24 558L202.66 549L202.66 531zM233.83 549L249.42 558L249.42 576L233.83 585L218.24 576L218.24 558zM249.42 -18L265.01 -9L265.01 9L249.42 18L233.83 9L233.83 -9zM265.01 9L280.6 18L280.6 36L265.01 45L249.42 36L249.42 18zM249.42 36L265.01 45L265.01 63L249.42 72L233.83 63L233.83 45zM265.01 63L280.6 72L280.6 90L265.01 99L249.42 90L249.42 72zM249.42 90L265.01 99L265.01 117L249.42 126L233.83 117L233.83 99zM265.01 117L280.6 126L280.6 144L265.01 153L249.42 144L249.42 126zM249.42 144L265.01 153L265.01 171L249.42 180L233.83 171L233.83 153zM265.01 171L280.6 180L280.6 198L265.01 207L249.42 198L249.42 180zM249.42 198L265.01 207L265.01 225L249.42 234L233.83 225L233.83 207zM265.01 225L280.6 234L280.6 252L265.01 261L249.42 252L249.42 234zM249.42 252L265.01 261L265.01 279L249.42 288L233.83 279L233.83 261zM265.01 279L280.6 288L280.6 306L265.01 315L249.42 306L249.42 288zM249.42 306L265.01 315L265.01 333L249.42 342L233.83 333L233.83 315zM265.01 333L280.6 342L280.6 360L265.01 369L249.42 360L249.42 342zM249.42 360L265.01 369L265.01 387L249.42 396L233.83 387L233.83 369zM265.01 387L280.6 396L280.6 414L265.01 423L249.42 414L249.42 396zM249.42 414L265.01 423L265.01 441L249.42 450L233.83 441L233.83 423zM265.01 441L280.6 450L280.6 468L265.01 477L249.42 468L249.42 450zM249.42 468L265.01 477L265.01 495L249.42 504L233.83 495L233.83 477zM265.01 495L280.6 504L280.6 522L265.01 531L249.42 522L249.42 504zM249.42 522L265.01 531L265.01 549L249.42 558L233.83 549L233.83 531zM265.01 549L280.6 558L280.6 576L265.01 585L249.42 576L249.42 558zM280.6 -18L296.19 -9L296.19 9L280.6 18L265.01 9L265.01 -9zM296.19 9L311.78 18L311.78 36L296.19 45L280.6 36L280.6 18zM280.6 36L296.19 45L296.19 63L280.6 72L265.01 63L265.01 45zM296.19 63L311.78 72L311.78 90L296.19 99L280.6 90L280.6 72zM280.6 90L296.19 99L296.19 117L280.6 126L265.01 117L265.01 99zM296.19 117L311.78 126L311.78 144L296.19 153L280.6 144L280.6 126zM280.6 144L296.19 153L296.19 171L280.6 180L265.01 171L265.01 153zM296.19 171L311.78 180L311.78 198L296.19 207L280.6 198L280.6 180zM280.6 198L296.19 207L296.19 225L280.6 234L265.01 225L265.01 207zM296.19 225L311.78 234L311.78 252L296.19 261L280.6 252L280.6 234zM280.6 252L296.19 261L296.19 279L280.6 288L265.01 279L265.01 261zM296.19 279L311.78 288L311.78 306L296.19 315L280.6 306L280.6 288zM280.6 306L296.19 315L296.19 333L280.6 342L265.01 333L265.01 315zM296.19 333L311.78 342L311.78 360L296.19 369L280.6 360L280.6 342zM280.6 360L296.19 369L296.19 387L280.6 396L265.01 387L265.01 369zM296.19 387L311.78 396L311.78 414L296.19 423L280.6 414L280.6 396zM280.6 414L296.19 423L296.19 441L280.6 450L265.01 441L265.01 423zM296.19 441L311.78 450L311.78 468L296.19 477L280.6 468L280.6 450zM280.6 468L296.19 477L296.19 495L280.6 504L265.01 495L265.01 477zM296.19 495L311.78 504L311.78 522L296.19 531L280.6 522L280.6 504zM280.6 522L296.19 531L296.19 549L280.6 558L265.01 549L265.01 531zM296.19 549L311.78 558L311.78 576L296.19 585L280.6 576L280.6 558zM311.78 -18L327.37 -9L327.37 9L311.78 18L296.19 9L296.19 -9zM327.37 9L342.96 18L342.96 36L327.37 45L311.78 36L311.78 18zM311.78 36L327.37 45L327.37 63L311.78 72L296.19 63L296.19 45zM327.37 63L342.96 72L342.96 90L327.37 99L311.78 90L311.78 72zM311.78 90L327.37 99L327.37 117L311.78 126L296.19 117L296.19 99zM327.37 117L342.96 126L342.96 144L327.37 153L311.78 144L311.78 126zM311.78 144L327.37 153L327.37 171L311.78 180L296.19 171L296.19 153zM327.37 171L342.96 180L342.96 198L327.37 207L311.78 198L311.78 180zM311.78 198L327.37 207L327.37 225L311.78 234L296.19 225L296.19 207zM327.37 225L342.96 234L342.96 252L327.37 261L311.78 252L311.78 234zM311.78 252L327.37 261L327.37 279L311.78 288L296.19 279L296.19 261zM327.37 279L342.96 288L342.96 306L327.37 315L311.78 306L311.78 288zM311.78 306L327.37 315L327.37 333L311.78 342L296.19 333L296.19 315zM327.37 333L342.96 342L342.96 360L327.37 369L311.78 360L311.78 342zM311.78 360L327.37 369L327.37 387L311.78 396L296.19 387L296.19 369zM327.37 387L342.96 396L342.96 414L327.37 423L311.78 414L311.78 396zM311.78 414L327.37 423L327.37 441L311.78 450L296.19 441L296.19 423zM327.37 441L342.96 450L342.96 468L327.37 477L311.78 468L311.78 450zM311.78 468L327.37 477L327.37 495L311.78 504L296.19 495L296.19 477zM327.37 495L342.96 504L342.96 522L327.37 531L311.78 522L311.78 504zM311.78 522L327.37 531L327.37 549L311.78 558L296.19 549L296.19 531zM327.37 549L342.96 558L342.96 576L327.37 585L311.78 576L311.78 558zM342.96 -18L358.54 -9L358.54 9L342.96 18L327.37 9L327.37 -9zM358.54 9L374.13 18L374.13 36L358.54 45L342.96 36L342.96 18zM342.96 36L358.54 45L358.54 63L342.96 72L327.37 63L327.37 45zM358.54 63L374.13 72L374.13 90L358.54 99L342.96 90L342.96 72zM342.96 90L358.54 99L358.54 117L342.96 126L327.37 117L327.37 99zM358.54 117L374.13 126L374.13 144L358.54 153L342.96 144L342.96 126zM342.96 144L358.54 153L358.54 171L342.96 180L327.37 171L327.37 153zM358.54 171L374.13 180L374.13 198L358.54 207L342.96 198L342.96 180zM342.96 198L358.54 207L358.54 225L342.96 234L327.37 225L327.37 207zM358.54 225L374.13 234L374.13 252L358.54 261L342.96 252L342.96 234zM342.96 252L358.54 261L358.54 279L342.96 288L327.37 279L327.37 261zM358.54 279L374.13 288L374.13 306L358.54 315L342.96 306L342.96 288zM342.96 306L358.54 315L358.54 333L342.96 342L327.37 333L327.37 315zM358.54 333L374.13 342L374.13 360L358.54 369L342.96 360L342.96 342zM342.96 360L358.54 369L358.54 387L342.96 396L327.37 387L327.37 369zM358.54 387L374.13 396L374.13 414L358.54 423L342.96 414L342.96 396zM342.96 414L358.54 423L358.54 441L342.96 450L327.37 441L327.37 423zM358.54 441L374.13 450L374.13 468L358.54 477L342.96 468L342.96 450zM342.96 468L358.54 477L358.54 495L342.96 504L327.37 495L327.37 477zM358.54 495L374.13 504L374.13 522L358.54 531L342.96 522L342.96 504zM342.96 522L358.54 531L358.54 549L342.96 558L327.37 549L327.37 531zM358.54 549L374.13 558L374.13 576L358.54 585L342.96 576L342.96 558zM374.13 -18L389.72 -9L389.72 9L374.13 18L358.54 9L358.54 -9zM389.72 9L405.31 18L405.31 36L389.72 45L374.13 36L374.13 18zM374.13 36L389.72 45L389.72 63L374.13 72L358.54 63L358.54 45zM389.72 63L405.31 72L405.31 90L389.72 99L374.13 90L374.13 72zM374.13 90L389.72 99L389.72 117L374.13 126L358.54 117L358.54 99zM389.72 117L405.31 126L405.31 144L389.72 153L374.13 144L374.13 126zM374.13 144L389.72 153L389.72 171L374.13 180L358.54 171L358.54 153zM389.72 171L405.31 180L405.31 198L389.72 207L374.13 198L374.13 180zM374.13 198L389.72 207L389.72 225L374.13 234L358.54 225L358.54 207zM389.72 225L405.31 234L405.31 252L389.72 261L374.13 252L374.13 234zM374.13 252L389.72 261L389.72 279L374.13 288L358.54 279L358.54 261zM389.72 279L405.31 288L405.31 306L389.72 315L374.13 306L374.13 288zM374.13 306L389.72 315L389.72 333L374.13 342L358.54 333L358.54 315zM389.72 333L405.31 342L405.31 360L389.72 369L374.13 360L374.13 342zM374.13 360L389.72 369L389.72 387L374.13 396L358.54 387L358.54 369zM389.72 387L405.31 396L405.31 414L389.72 423L374.13 414L374.13 396zM374.13 414L389.72 423L389.72 441L374.13 450L358.54 441L358.54 423zM389.72 441L405.31 450L405.31 468L389.72 477L374.13 468L374.13 450zM374.13 468L389.72 477L389.72 495L374.13 504L358.54 495L358.54 477zM389.72 495L405.31 504L405.31 522L389.72 531L374.13 522L374.13 504zM374.13 522L389.72 531L389.72 549L374.13 558L358.54 549L358.54 531zM389.72 549L405.31 558L405.31 576L389.72 585L374.13 576L374.13 558zM405.31 -18L420.9 -9L420.9 9L405.31 18L389.72 9L389.72 -9zM420.9 9L436.49 18L436.49 36L420.9 45L405.31 36L405.31 18zM405.31 36L420.9 45L420.9 63L405.31 72L389.72 63L389.72 45zM420.9 63L436.49 72L436.49 90L420.9 99L405.31 90L405.31 72zM405.31 90L420.9 99L420.9 117L405.31 126L389.72 117L389.72 99zM420.9 117L436.49 126L436.49 144L420.9 153L405.31 144L405.31 126zM405.31 144L420.9 153L420.9 171L405.31 180L389.72 171L389.72 153zM420.9 171L436.49 180L436.49 198L420.9 207L405.31 198L405.31 180zM405.31 198L420.9 207L420.9 225L405.31 234L389.72 225L389.72 207zM420.9 225L436.49 234L436.49 252L420.9 261L405.31 252L405.31 234zM405.31 252L420.9 261L420.9 279L405.31 288L389.72 279L389.72 261zM420.9 279L436.49 288L436.49 306L420.9 315L405.31 306L405.31 288zM405.31 306L420.9 315L420.9 333L405.31 342L389.72 333L389.72 315zM420.9 333L436.49 342L436.49 360L420.9 369L405.31 360L405.31 342zM405.31 360L420.9 369L420.9 387L405.31 396L389.72 387L389.72 369zM420.9 387L436.49 396L436.49 414L420.9 423L405.31 414L405.31 396zM405.31 414L420.9 423L420.9 441L405.31 450L389.72 441L389.72 423zM420.9 441L436.49 450L436.49 468L420.9 477L405.31 468L405.31 450zM405.31 468L420.9 477L420.9 495L405.31 504L389.72 495L389.72 477zM420.9 495L436.49 504L436.49 522L420.9 531L405.31 522L405.31 504zM405.31 522L420.9 531L420.9 549L405.31 558L389.72 549L389.72 531zM420.9 549L436.49 558L436.49 576L420.9 585L405.31 576L405.31 558zM436.49 -18L452.08 -9L452.08 9L436.49 18L420.9 9L420.9 -9zM452.08 9L467.67 18L467.67 36L452.08 45L436.49 36L436.49 18zM436.49 36L452.08 45L452.08 63L436.49 72L420.9 63L420.9 45zM452.08 63L467.67 72L467.67 90L452.08 99L436.49 90L436.49 72zM436.49 90L452.08 99L452.08 117L436.49 126L420.9 117L420.9 99zM452.08 117L467.67 126L467.67 144L452.08 153L436.49 144L436.49 126zM436.49 144L452.08 153L452.08 171L436.49 180L420.9 171L420.9 153zM452.08 171L467.67 180L467.67 198L452.08 207L436.49 198L436.49 180zM436.49 198L452.08 207L452.08 225L436.49 234L420.9 225L420.9 207zM452.08 225L467.67 234L467.67 252L452.08 261L436.49 252L436.49 234zM436.49 252L452.08 261L452.08 279L436.49 288L420.9 279L420.9 261zM452.08 279L467.67 288L467.67 306L452.08 315L436.49 306L436.49 288zM436.49 306L452.08 315L452.08 333L436.49 342L420.9 333L420.9 315zM452.08 333L467.67 342L467.67 360L452.08 369L436.49 360L436.49 342zM436.49 360L452.08 369L452.08 387L436.49 396L420.9 387L420.9 369zM452.08 387L467.67 396L467.67 414L452.08 423L436.49 414L436.49 396zM436.49 414L452.08 423L452.08 441L436.49 450L420.9 441L420.9 423zM452.08 441L467.67 450L467.67 468L452.08 477L436.49 468L436.49 450zM436.49 468L452.08 477L452.08 495L436.49 504L420.9 495L420.9 477zM452.08 495L467.67 504L467.67 522L452.08 531L436.49 522L436.49 504zM436.49 522L452.08 531L452.08 549L436.49 558L420.9 549L420.9 531zM452.08 549L467.67 558L467.67 576L452.08 585L436.49 576L436.49 558zM467.67 -18L483.26 -9L483.26 9L467.67 18L452.08 9L452.08 -9zM483.26 9L498.84 18L498.84 36L483.26 45L467.67 36L467.67 18zM467.67 36L483.26 45L483.26 63L467.67 72L452.08 63L452.08 45zM483.26 63L498.84 72L498.84 90L483.26 99L467.67 90L467.67 72zM467.67 90L483.26 99L483.26 117L467.67 126L452.08 117L452.08 99zM483.26 117L498.84 126L498.84 144L483.26 153L467.67 144L467.67 126zM467.67 144L483.26 153L483.26 171L467.67 180L452.08 171L452.08 153zM483.26 171L498.84 180L498.84 198L483.26 207L467.67 198L467.67 180zM467.67 198L483.26 207L483.26 225L467.67 234L452.08 225L452.08 207zM483.26 225L498.84 234L498.84 252L483.26 261L467.67 252L467.67 234zM467.67 252L483.26 261L483.26 279L467.67 288L452.08 279L452.08 261zM483.26 279L498.84 288L498.84 306L483.26 315L467.67 306L467.67 288zM467.67 306L483.26 315L483.26 333L467.67 342L452.08 333L452.08 315zM483.26 333L498.84 342L498.84 360L483.26 369L467.67 360L467.67 342zM467.67 360L483.26 369L483.26 387L467.67 396L452.08 387L452.08 369zM483.26 387L498.84 396L498.84 414L483.26 423L467.67 414L467.67 396zM467.67 414L483.26 423L483.26 441L467.67 450L452.08 441L452.08 423zM483.26 441L498.84 450L498.84 468L483.26 477L467.67 468L467.67 450zM467.67 468L483.26 477L483.26 495L467.67 504L452.08 495L452.08 477zM483.26 495L498.84 504L498.84 522L483.26 531L467.67 522L467.67 504zM467.67 522L483.26 531L483.26 549L467.67 558L452.08 549L452.08 531zM483.26 549L498.84 558L498.84 576L483.26 585L467.67 576L467.67 558zM498.84 -18L514.43 -9L514.43 9L498.84 18L483.26 9L483.26 -9zM514.43 9L530.02 18L530.02 36L514.43 45L498.84 36L498.84 18zM498.84 36L514.43 45L514.43 63L498.84 72L483.26 63L483.26 45zM514.43 63L530.02 72L530.02 90L514.43 99L498.84 90L498.84 72zM498.84 90L514.43 99L514.43 117L498.84 126L483.26 117L483.26 99zM514.43 117L530.02 126L530.02 144L514.43 153L498.84 144L498.84 126zM498.84 144L514.43 153L514.43 171L498.84 180L483.26 171L483.26 153zM514.43 171L530.02 180L530.02 198L514.43 207L498.84 198L498.84 180zM498.84 198L514.43 207L514.43 225L498.84 234L483.26 225L483.26 207zM514.43 225L530.02 234L530.02 252L514.43 261L498.84 252L498.84 234zM498.84 252L514.43 261L514.43 279L498.84 288L483.26 279L483.26 261zM514.43 279L530.02 288L530.02 306L514.43 315L498.84 306L498.84 288zM498.84 306L514.43 315L514.43 333L498.84 342L483.26 333L483.26 315zM514.43 333L530.02 342L530.02 360L514.43 369L498.84 360L498.84 342zM498.84 360L514.43 369L514.43 387L498.84 396L483.26 387L483.26 369zM514.43 387L530.02 396L530.02 414L514.43 423L498.84 414L498.84 396zM498.84 414L514.43 423L514.43 441L498.84 450L483.26 441L483.26 423zM514.43 441L530.02 450L530.02 468L514.43 477L498.84 468L498.84 450zM498.84 468L514.43 477L514.43 495L498.84 504L483.26 495L483.26 477zM514.43 495L530.02 504L530.02 522L514.43 531L498.84 522L498.84 504zM498.84 522L514.43 531L514.43 549L498.84 558L483.26 549L483.26 531zM514.43 549L530.02 558L530.02 576L514.43 585L498.84 576L498.84 558zM530.02 -18L545.61 -9L545.61 9L530.02 18L514.43 9L514.43 -9zM545.61 9L561.2 18L561.2 36L545.61 45L530.02 36L530.02 18zM530.02 36L545.61 45L545.61 63L530.02 72L514.43 63L514.43 45zM545.61 63L561.2 72L561.2 90L545.61 99L530.02 90L530.02 72zM530.02 90L545.61 99L545.61 117L530.02 126L514.43 117L514.43 99zM545.61 117L561.2 126L561.2 144L545.61 153L530.02 144L530.02 126zM530.02 144L545.61 153L545.61 171L530.02 180L514.43 171L514.43 153zM545.61 171L561.2 180L561.2 198L545.61 207L530.02 198L530.02 180zM530.02 198L545.61 207L545.61 225L530.02 234L514.43 225L514.43 207zM545.61 225L561.2 234L561.2 252L545.61 261L530.02 252L530.02 234zM530.02 252L545.61 261L545.61 279L530.02 288L514.43 279L514.43 261zM545.61 279L561.2 288L561.2 306L545.61 315L530.02 306L530.02 288zM530.02 306L545.61 315L545.61 333L530.02 342L514.43 333L514.43 315zM545.61 333L561.2 342L561.2 360L545.61 369L530.02 360L530.02 342zM530.02 360L545.61 369L545.61 387L530.02 396L514.43 387L514.43 369zM545.61 387L561.2 396L561.2 414L545.61 423L530.02 414L530.02 396zM530.02 414L545.61 423L545.61 441L530.02 450L514.43 441L514.43 423zM545.61 441L561.2 450L561.2 468L545.61 477L530.02 468L530.02 450zM530.02 468L545.61 477L545.61 495L530.02 504L514.43 495L514.43 477zM545.61 495L561.2 504L561.2 522L545.61 531L530.02 522L530.02 504zM530.02 522L545.61 531L545.61 549L530.02 558L514.43 549L514.43 531zM545.61 549L561.2 558L561.2 576L545.61 585L530.02 576L530.02 558zM561.2 -18L576.79 -9L576.79 9L561.2 18L545.61 9L545.61 -9zM576.79 9L592.38 18L592.38 36L576.79 45L561.2 36L561.2 18zM561.2 36L576.79 45L576.79 63L561.2 72L545.61 63L545.61 45zM576.79 63L592.38 72L592.38 90L576.79 99L561.2 90L561.2 72zM561.2 90L576.79 99L576.79 117L561.2 126L545.61 117L545.61 99zM576.79 117L592.38 126L592.38 144L576.79 153L561.2 144L561.2 126zM561.2 144L576.79 153L576.79 171L561.2 180L545.61 171L545.61 153zM576.79 171L592.38 180L592.38 198L576.79 207L561.2 198L561.2 180zM561.2 198L576.79 207L576.79 225L561.2 234L545.61 225L545.61 207zM576.79 225L592.38 234L592.38 252L576.79 261L561.2 252L561.2 234zM561.2 252L576.79 261L576.79 279L561.2 288L545.61 279L545.61 261zM576.79 279L592.38 288L592.38 306L576.79 315L561.2 306L561.2 288zM561.2 306L576.79 315L576.79 333L561.2 342L545.61 333L545.61 315zM576.79 333L592.38 342L592.38 360L576.79 369L561.2 360L561.2 342zM561.2 360L576.79 369L576.79 387L561.2 396L545.61 387L545.61 369zM576.79 387L592.38 396L592.38 414L576.79 423L561.2 414L561.2 396zM561.2 414L576.79 423L576.79 441L561.2 450L545.61 441L545.61 423zM576.79 441L592.38 450L592.38 468L576.79 477L561.2 468L561.2 450zM561.2 468L576.79 477L576.79 495L561.2 504L545.61 495L545.61 477zM576.79 495L592.38 504L592.38 522L576.79 531L561.2 522L561.2 504zM561.2 522L576.79 531L576.79 549L561.2 558L545.61 549L545.61 531zM576.79 549L592.38 558L592.38 576L576.79 585L561.2 576L561.2 558zM592.38 -18L607.97 -9L607.97 9L592.38 18L576.79 9L576.79 -9zM607.97 9L623.56 18L623.56 36L607.97 45L592.38 36L592.38 18zM592.38 36L607.97 45L607.97 63L592.38 72L576.79 63L576.79 45zM607.97 63L623.56 72L623.56 90L607.97 99L592.38 90L592.38 72zM592.38 90L607.97 99L607.97 117L592.38 126L576.79 117L576.79 99zM607.97 117L623.56 126L623.56 144L607.97 153L592.38 144L592.38 126zM592.38 144L607.97 153L607.97 171L592.38 180L576.79 171L576.79 153zM607.97 171L623.56 180L623.56 198L607.97 207L592.38 198L592.38 180zM592.38 198L607.97 207L607.97 225L592.38 234L576.79 225L576.79 207zM607.97 225L623.56 234L623.56 252L607.97 261L592.38 252L592.38 234zM592.38 252L607.97 261L607.97 279L592.38 288L576.79 279L576.79 261zM607.97 279L623.56 288L623.56 306L607.97 315L592.38 306L592.38 288zM592.38 306L607.97 315L607.97 333L592.38 342L576.79 333L576.79 315zM607.97 333L623.56 342L623.56 360L607.97 369L592.38 360L592.38 342zM592.38 360L607.97 369L607.97 387L592.38 396L576.79 387L576.79 369zM607.97 387L623.56 396L623.56 414L607.97 423L592.38 414L592.38 396zM592.38 414L607.97 423L607.97 441L592.38 450L576.79 441L576.79 423zM607.97 441L623.56 450L623.56 468L607.97 477L592.38 468L592.38 450zM592.38 468L607.97 477L607.97 495L592.38 504L576.79 495L576.79 477zM607.97 495L623.56 504L623.56 522L607.97 531L592.38 522L592.38 504zM592.38 522L607.97 531L607.97 549L592.38 558L576.79 549L576.79 531zM607.97 549L623.56 558L623.56 576L607.97 585L592.38 576L592.38 558zM623.56 -18L639.14 -9L639.14 9L623.56 18L607.97 9L607.97 -9zM639.14 9L654.73 18L654.73 36L639.14 45L623.56 36L623.56 18zM623.56 36L639.14 45L639.14 63L623.56 72L607.97 63L607.97 45zM639.14 63L654.73 72L654.73 90L639.14 99L623.56 90L623.56 72zM623.56 90L639.14 99L639.14 117L623.56 126L607.97 117L607.97 99zM639.14 117L654.73 126L654.73 144L639.14 153L623.56 144L623.56 126zM623.56 144L639.14 153L639.14 171L623.56 180L607.97 171L607.97 153zM639.14 171L654.73 180L654.73 198L639.14 207L623.56 198L623.56 180zM623.56 198L639.14 207L639.14 225L623.56 234L607.97 225L607.97 207zM639.14 225L654.73 234L654.73 252L639.14 261L623.56 252L623.56 234zM623.56 252L639.14 261L639.14 279L623.56 288L607.97 279L607.97 261zM639.14 279L654.73 288L654.73 306L639.14 315L623.56 306L623.56 288zM623.56 306L639.14 315L639.14 333L623.56 342L607.97 333L607.97 315zM639.14 333L654.73 342L654.73 360L639.14 369L623.56 360L623.56 342zM623.56 360L639.14 369L639.14 387L623.56 396L607.97 387L607.97 369zM639.14 387L654.73 396L654.73 414L639.14 423L623.56 414L623.56 396zM623.56 414L639.14 423L639.14 441L623.56 450L607.97 441L607.97 423zM639.14 441L654.73 450L654.73 468L639.14 477L623.56 468L623.56 450zM623.56 468L639.14 477L639.14 495L623.56 504L607.97 495L607.97 477zM639.14 495L654.73 504L654.73 522L639.14 531L623.56 522L623.56 504zM623.56 522L639.14 531L639.14 549L623.56 558L607.97 549L607.97 531zM639.14 549L654.73 558L654.73 576L639.14 585L623.56 576L623.56 558zM654.73 -18L670.32 -9L670.32 9L654.73 18L639.14 9L639.14 -9zM670.32 9L685.91 18L685.91 36L670.32 45L654.73 36L654.73 18zM654.73 36L670.32 45L670.32 63L654.73 72L639.14 63L639.14 45zM670.32 63L685.91 72L685.91 90L670.32 99L654.73 90L654.73 72zM654.73 90L670.32 99L670.32 117L654.73 126L639.14 117L639.14 99zM670.32 117L685.91 126L685.91 144L670.32 153L654.73 144L654.73 126zM654.73 144L670.32 153L670.32 171L654.73 180L639.14 171L639.14 153zM670.32 171L685.91 180L685.91 198L670.32 207L654.73 198L654.73 180zM654.73 198L670.32 207L670.32 225L654.73 234L639.14 225L639.14 207zM670.32 225L685.91 234L685.91 252L670.32 261L654.73 252L654.73 234zM654.73 252L670.32 261L670.32 279L654.73 288L639.14 279L639.14 261zM670.32 279L685.91 288L685.91 306L670.32 315L654.73 306L654.73 288zM654.73 306L670.32 315L670.32 333L654.73 342L639.14 333L639.14 315zM670.32 333L685.91 342L685.91 360L670.32 369L654.73 360L654.73 342zM654.73 360L670.32 369L670.32 387L654.73 396L639.14 387L639.14 369zM670.32 387L685.91 396L685.91 414L670.32 423L654.73 414L654.73 396zM654.73 414L670.32 423L670.32 441L654.73 450L639.14 441L639.14 423zM670.32 441L685.91 450L685.91 468L670.32 477L654.73 468L654.73 450zM654.73 468L670.32 477L670.32 495L654.73 504L639.14 495L639.14 477zM670.32 495L685.91 504L685.91 522L670.32 531L654.73 522L654.73 504zM654.73 522L670.32 531L670.32 549L654.73 558L639.14 549L639.14 531zM670.32 549L685.91 558L685.91 576L670.32 585L654.73 576L654.73 558zM685.91 -18L701.5 -9L701.5 9L685.91 18L670.32 9L670.32 -9zM701.5 9L717.09 18L717.09 36L701.5 45L685.91 36L685.91 18zM685.91 36L701.5 45L701.5 63L685.91 72L670.32 63L670.32 45zM701.5 63L717.09 72L717.09 90L701.5 99L685.91 90L685.91 72zM685.91 90L701.5 99L701.5 117L685.91 126L670.32 117L670.32 99zM701.5 117L717.09 126L717.09 144L701.5 153L685.91 144L685.91 126zM685.91 144L701.5 153L701.5 171L685.91 180L670.32 171L670.32 153zM701.5 171L717.09 180L717.09 198L701.5 207L685.91 198L685.91 180zM685.91 198L701.5 207L701.5 225L685.91 234L670.32 225L670.32 207zM701.5 225L717.09 234L717.09 252L701.5 261L685.91 252L685.91 234zM685.91 252L701.5 261L701.5 279L685.91 288L670.32 279L670.32 261zM701.5 279L717.09 288L717.09 306L701.5 315L685.91 306L685.91 288zM685.91 306L701.5 315L701.5 333L685.91 342L670.32 333L670.32 315zM701.5 333L717.09 342L717.09 360L701.5 369L685.91 360L685.91 342zM685.91 360L701.5 369L701.5 387L685.91 396L670.32 387L670.32 369zM701.5 387L717.09 396L717.09 414L701.5 423L685.91 414L685.91 396zM685.91 414L701.5 423L701.5 441L685.91 450L670.32 441L670.32 423zM701.5 441L717.09 450L717.09 468L701.5 477L685.91 468L685.91 450zM685.91 468L701.5 477L701.5 495L685.91 504L670.32 495L670.32 477zM701.5 495L717.09 504L717.09 522L701.5 531L685.91 522L685.91 504zM685.91 522L701.5 531L701.5 549L685.91 558L670.32 549L670.32 531zM701.5 549L717.09 558L717.09 576L701.5 585L685.91 576L685.91 558zM717.09 -18L732.68 -9L732.68 9L717.09 18L701.5 9L701.5 -9zM732.68 9L748.27 18L748.27 36L732.68 45L717.09 36L717.09 18zM717.09 36L732.68 45L732.68 63L717.09 72L701.5 63L701.5 45zM732.68 63L748.27 72L748.27 90L732.68 99L717.09 90L717.09 72zM717.09 90L732.68 99L732.68 117L717.09 126L701.5 117L701.5 99zM732.68 117L748.27 126L748.27 144L732.68 153L717.09 144L717.09 126zM717.09 144L732.68 153L732.68 171L717.09 180L701.5 171L701.5 153zM732.68 171L748.27 180L748.27 198L732.68 207L717.09 198L717.09 180zM717.09 198L732.68 207L732.68 225L717.09 234L701.5 225L701.5 207zM732.68 225L748.27 234L748.27 252L732.68 261L717.09 252L717.09 234zM717.09 252L732.68 261L732.68 279L717.09 288L701.5 279L701.5 261zM732.68 279L748.27 288L748.27 306L732.68 315L717.09 306L717.09 288zM717.09 306L732.68 315L732.68 333L717.09 342L701.5 333L701.5 315zM732.68 333L748.27 342L748.27 360L732.68 369L717.09 360L717.09 342zM717.09 360L732.68 369L732.68 387L717.09 396L701.5 387L701.5 369zM732.68 387L748.27 396L748.27 414L732.68 423L717.09 414L717.09 396zM717.09 414L732.68 423L732.68 441L717.09 450L701.5 441L701.5 423zM732.68 441L748.27 450L748.27 468L732.68 477L717.09 468L717.09 450zM717.09 468L732.68 477L732.68 495L717.09 504L701.5 495L701.5 477zM732.68 495L748.27 504L748.27 522L732.68 531L717.09 522L717.09 504zM717.09 522L732.68 531L732.68 549L717.09 558L701.5 549L701.5 531zM732.68 549L748.27 558L748.27 576L732.68 585L717.09 576L717.09 558zM748.27 -18L763.86 -9L763.86 9L748.27 18L732.68 9L732.68 -9zM763.86 9L779.44 18L779.44 36L763.86 45L748.27 36L748.27 18zM748.27 36L763.86 45L763.86 63L748.27 72L732.68 63L732.68 45zM763.86 63L779.44 72L779.44 90L763.86 99L748.27 90L748.27 72zM748.27 90L763.86 99L763.86 117L748.27 126L732.68 117L732.68 99zM763.86 117L779.44 126L779.44 144L763.86 153L748.27 144L748.27 126zM748.27 144L763.86 153L763.86 171L748.27 180L732.68 171L732.68 153zM763.86 171L779.44 180L779.44 198L763.86 207L748.27 198L748.27 180zM748.27 198L763.86 207L763.86 225L748.27 234L732.68 225L732.68 207zM763.86 225L779.44 234L779.44 252L763.86 261L748.27 252L748.27 234zM748.27 252L763.86 261L763.86 279L748.27 288L732.68 279L732.68 261zM763.86 279L779.44 288L779.44 306L763.86 315L748.27 306L748.27 288zM748.27 306L763.86 315L763.86 333L748.27 342L732.68 333L732.68 315zM763.86 333L779.44 342L779.44 360L763.86 369L748.27 360L748.27 342zM748.27 360L763.86 369L763.86 387L748.27 396L732.68 387L732.68 369zM763.86 387L779.44 396L779.44 414L763.86 423L748.27 414L748.27 396zM748.27 414L763.86 423L763.86 441L748.27 450L732.68 441L732.68 423zM763.86 441L779.44 450L779.44 468L763.86 477L748.27 468L748.27 450zM748.27 468L763.86 477L763.86 495L748.27 504L732.68 495L732.68 477zM763.86 495L779.44 504L779.44 522L763.86 531L748.27 522L748.27 504zM748.27 522L763.86 531L763.86 549L748.27 558L732.68 549L732.68 531zM763.86 549L779.44 558L779.44 576L763.86 585L748.27 576L748.27 558zM779.44 -18L795.03 -9L795.03 9L779.44 18L763.86 9L763.86 -9zM795.03 9L810.62 18L810.62 36L795.03 45L779.44 36L779.44 18zM779.44 36L795.03 45L795.03 63L779.44 72L763.86 63L763.86 45zM795.03 63L810.62 72L810.62 90L795.03 99L779.44 90L779.44 72zM779.44 90L795.03 99L795.03 117L779.44 126L763.86 117L763.86 99zM795.03 117L810.62 126L810.62 144L795.03 153L779.44 144L779.44 126zM779.44 144L795.03 153L795.03 171L779.44 180L763.86 171L763.86 153zM795.03 171L810.62 180L810.62 198L795.03 207L779.44 198L779.44 180zM779.44 198L795.03 207L795.03 225L779.44 234L763.86 225L763.86 207zM795.03 225L810.62 234L810.62 252L795.03 261L779.44 252L779.44 234zM779.44 252L795.03 261L795.03 279L779.44 288L763.86 279L763.86 261zM795.03 279L810.62 288L810.62 306L795.03 315L779.44 306L779.44 288zM779.44 306L795.03 315L795.03 333L779.44 342L763.86 333L763.86 315zM795.03 333L810.62 342L810.62 360L795.03 369L779.44 360L779.44 342zM779.44 360L795.03 369L795.03 387L779.44 396L763.86 387L763.86 369zM795.03 387L810.62 396L810.62 414L795.03 423L779.44 414L779.44 396zM779.44 414L795.03 423L795.03 441L779.44 450L763.86 441L763.86 423zM795.03 441L810.62 450L810.62 468L795.03 477L779.44 468L779.44 450zM779.44 468L795.03 477L795.03 495L779.44 504L763.86 495L763.86 477zM795.03 495L810.62 504L810.62 522L795.03 531L779.44 522L779.44 504zM779.44 522L795.03 531L795.03 549L779.44 558L763.86 549L763.86 531zM795.03 549L810.62 558L810.62 576L795.03 585L779.44 576L779.44 558zM810.62 -18L826.21 -9L826.21 9L810.62 18L795.03 9L795.03 -9zM826.21 9L841.8 18L841.8 36L826.21 45L810.62 36L810.62 18zM810.62 36L826.21 45L826.21 63L810.62 72L795.03 63L795.03 45zM826.21 63L841.8 72L841.8 90L826.21 99L810.62 90L810.62 72zM810.62 90L826.21 99L826.21 117L810.62 126L795.03 117L795.03 99zM826.21 117L841.8 126L841.8 144L826.21 153L810.62 144L810.62 126zM810.62 144L826.21 153L826.21 171L810.62 180L795.03 171L795.03 153zM826.21 171L841.8 180L841.8 198L826.21 207L810.62 198L810.62 180zM810.62 198L826.21 207L826.21 225L810.62 234L795.03 225L795.03 207zM826.21 225L841.8 234L841.8 252L826.21 261L810.62 252L810.62 234zM810.62 252L826.21 261L826.21 279L810.62 288L795.03 279L795.03 261zM826.21 279L841.8 288L841.8 306L826.21 315L810.62 306L810.62 288zM810.62 306L826.21 315L826.21 333L810.62 342L795.03 333L795.03 315zM826.21 333L841.8 342L841.8 360L826.21 369L810.62 360L810.62 342zM810.62 360L826.21 369L826.21 387L810.62 396L795.03 387L795.03 369zM826.21 387L841.8 396L841.8 414L826.21 423L810.62 414L810.62 396zM810.62 414L826.21 423L826.21 441L810.62 450L795.03 441L795.03 423zM826.21 441L841.8 450L841.8 468L826.21 477L810.62 468L810.62 450zM810.62 468L826.21 477L826.21 495L810.62 504L795.03 495L795.03 477zM826.21 495L841.8 504L841.8 522L826.21 531L810.62 522L810.62 504zM810.62 522L826.21 531L826.21 549L810.62 558L795.03 549L795.03 531zM826.21 549L841.8 558L841.8 576L826.21 585L810.62 576L810.62 558zM841.8 -18L857.39 -9L857.39 9L841.8 18L826.21 9L826.21 -9zM857.39 9L872.98 18L872.98 36L857.39 45L841.8 36L841.8 18zM841.8 36L857.39 45L857.39 63L841.8 72L826.21 63L826.21 45zM857.39 63L872.98 72L872.98 90L857.39 99L841.8 90L841.8 72zM841.8 90L857.39 99L857.39 117L841.8 126L826.21 117L826.21 99zM857.39 117L872.98 126L872.98 144L857.39 153L841.8 144L841.8 126zM841.8 144L857.39 153L857.39 171L841.8 180L826.21 171L826.21 153zM857.39 171L872.98 180L872.98 198L857.39 207L841.8 198L841.8 180zM841.8 198L857.39 207L857.39 225L841.8 234L826.21 225L826.21 207zM857.39 225L872.98 234L872.98 252L857.39 261L841.8 252L841.8 234zM841.8 252L857.39 261L857.39 279L841.8 288L826.21 279L826.21 261zM857.39 279L872.98 288L872.98 306L857.39 315L841.8 306L841.8 288zM841.8 306L857.39 315L857.39 333L841.8 342L826.21 333L826.21 315zM857.39 333L872.98 342L872.98 360L857.39 369L841.8 360L841.8 342zM841.8 360L857.39 369L857.39 387L841.8 396L826.21 387L826.21 369zM857.39 387L872.98 396L872.98 414L857.39 423L841.8 414L841.8 396zM841.8 414L857.39 423L857.39 441L841.8 450L826.21 441L826.21 423zM857.39 441L872.98 450L872.98 468L857.39 477L841.8 468L841.8 450zM841.8 468L857.39 477L857.39 495L841.8 504L826.21 495L826.21 477zM857.39 495L872.98 504L872.98 522L857.39 531L841.8 522L841.8 504zM841.8 522L857.39 531L857.39 549L841.8 558L826.21 549L826.21 531zM857.39 549L872.98 558L872.98 576L857.39 585L841.8 576L841.8 558zM872.98 -18L888.57 -9L888.57 9L872.98 18L857.39 9L857.39 -9zM888.57 9L904.16 18L904.16 36L888.57 45L872.98 36L872.98 18zM872.98 36L888.57 45L888.57 63L872.98 72L857.39 63L857.39 45zM888.57 63L904.16 72L904.16 90L888.57 99L872.98 90L872.98 72zM872.98 90L888.57 99L888.57 117L872.98 126L857.39 117L857.39 99zM888.57 117L904.16 126L904.16 144L888.57 153L872.98 144L872.98 126zM872.98 144L888.57 153L888.57 171L872.98 180L857.39 171L857.39 153zM888.57 171L904.16 180L904.16 198L888.57 207L872.98 198L872.98 180zM872.98 198L888.57 207L888.57 225L872.98 234L857.39 225L857.39 207zM888.57 225L904.16 234L904.16 252L888.57 261L872.98 252L872.98 234zM872.98 252L888.57 261L888.57 279L872.98 288L857.39 279L857.39 261zM888.57 279L904.16 288L904.16 306L888.57 315L872.98 306L872.98 288zM872.98 306L888.57 315L888.57 333L872.98 342L857.39 333L857.39 315zM888.57 333L904.16 342L904.16 360L888.57 369L872.98 360L872.98 342zM872.98 360L888.57 369L888.57 387L872.98 396L857.39 387L857.39 369zM888.57 387L904.16 396L904.16 414L888.57 423L872.98 414L872.98 396zM872.98 414L888.57 423L888.57 441L872.98 450L857.39 441L857.39 423zM888.57 441L904.16 450L904.16 468L888.57 477L872.98 468L872.98 450zM872.98 468L888.57 477L888.57 495L872.98 504L857.39 495L857.39 477zM888.57 495L904.16 504L904.16 522L888.57 531L872.98 522L872.98 504zM872.98 522L888.57 531L888.57 549L872.98 558L857.39 549L857.39 531zM888.57 549L904.16 558L904.16 576L888.57 585L872.98 576L872.98 558zM904.16 -18L919.75 -9L919.75 9L904.16 18L888.57 9L888.57 -9zM919.75 9L935.33 18L935.33 36L919.75 45L904.16 36L904.16 18zM904.16 36L919.75 45L919.75 63L904.16 72L888.57 63L888.57 45zM919.75 63L935.33 72L935.33 90L919.75 99L904.16 90L904.16 72zM904.16 90L919.75 99L919.75 117L904.16 126L888.57 117L888.57 99zM919.75 117L935.33 126L935.33 144L919.75 153L904.16 144L904.16 126zM904.16 144L919.75 153L919.75 171L904.16 180L888.57 171L888.57 153zM919.75 171L935.33 180L935.33 198L919.75 207L904.16 198L904.16 180zM904.16 198L919.75 207L919.75 225L904.16 234L888.57 225L888.57 207zM919.75 225L935.33 234L935.33 252L919.75 261L904.16 252L904.16 234zM904.16 252L919.75 261L919.75 279L904.16 288L888.57 279L888.57 261zM919.75 279L935.33 288L935.33 306L919.75 315L904.16 306L904.16 288zM904.16 306L919.75 315L919.75 333L904.16 342L888.57 333L888.57 315zM919.75 333L935.33 342L935.33 360L919.75 369L904.16 360L904.16 342zM904.16 360L919.75 369L919.75 387L904.16 396L888.57 387L888.57 369zM919.75 387L935.33 396L935.33 414L919.75 423L904.16 414L904.16 396zM904.16 414L919.75 423L919.75 441L904.16 450L888.57 441L888.57 423zM919.75 441L935.33 450L935.33 468L919.75 477L904.16 468L904.16 450zM904.16 468L919.75 477L919.75 495L904.16 504L888.57 495L888.57 477zM919.75 495L935.33 504L935.33 522L919.75 531L904.16 522L904.16 504zM904.16 522L919.75 531L919.75 549L904.16 558L888.57 549L888.57 531zM919.75 549L935.33 558L935.33 576L919.75 585L904.16 576L904.16 558zM935.33 -18L950.92 -9L950.92 9L935.33 18L919.75 9L919.75 -9zM950.92 9L966.51 18L966.51 36L950.92 45L935.33 36L935.33 18zM935.33 36L950.92 45L950.92 63L935.33 72L919.75 63L919.75 45zM950.92 63L966.51 72L966.51 90L950.92 99L935.33 90L935.33 72zM935.33 90L950.92 99L950.92 117L935.33 126L919.75 117L919.75 99zM950.92 117L966.51 126L966.51 144L950.92 153L935.33 144L935.33 126zM935.33 144L950.92 153L950.92 171L935.33 180L919.75 171L919.75 153zM950.92 171L966.51 180L966.51 198L950.92 207L935.33 198L935.33 180zM935.33 198L950.92 207L950.92 225L935.33 234L919.75 225L919.75 207zM950.92 225L966.51 234L966.51 252L950.92 261L935.33 252L935.33 234zM935.33 252L950.92 261L950.92 279L935.33 288L919.75 279L919.75 261zM950.92 279L966.51 288L966.51 306L950.92 315L935.33 306L935.33 288zM935.33 306L950.92 315L950.92 333L935.33 342L919.75 333L919.75 315zM950.92 333L966.51 342L966.51 360L950.92 369L935.33 360L935.33 342zM935.33 360L950.92 369L950.92 387L935.33 396L919.75 387L919.75 369zM950.92 387L966.51 396L966.51 414L950.92 423L935.33 414L935.33 396zM935.33 414L950.92 423L950.92 441L935.33 450L919.75 441L919.75 423zM950.92 441L966.51 450L966.51 468L950.92 477L935.33 468L935.33 450zM935.33 468L950.92 477L950.92 495L935.33 504L919.75 495L919.75 477zM950.92 495L966.51 504L966.51 522L950.92 531L935.33 522L935.33 504zM935.33 522L950.92 531L950.92 549L935.33 558L919.75 549L919.75 531zM950.92 549L966.51 558L966.51 576L950.92 585L935.33 576L935.33 558zM966.51 -18L982.1 -9L982.1 9L966.51 18L950.92 9L950.92 -9zM982.1 9L997.69 18L997.69 36L982.1 45L966.51 36L966.51 18zM966.51 36L982.1 45L982.1 63L966.51 72L950.92 63L950.92 45zM982.1 63L997.69 72L997.69 90L982.1 99L966.51 90L966.51 72zM966.51 90L982.1 99L982.1 117L966.51 126L950.92 117L950.92 99zM982.1 117L997.69 126L997.69 144L982.1 153L966.51 144L966.51 126zM966.51 144L982.1 153L982.1 171L966.51 180L950.92 171L950.92 153zM982.1 171L997.69 180L997.69 198L982.1 207L966.51 198L966.51 180zM966.51 198L982.1 207L982.1 225L966.51 234L950.92 225L950.92 207zM982.1 225L997.69 234L997.69 252L982.1 261L966.51 252L966.51 234zM966.51 252L982.1 261L982.1 279L966.51 288L950.92 279L950.92 261zM982.1 279L997.69 288L997.69 306L982.1 315L966.51 306L966.51 288zM966.51 306L982.1 315L982.1 333L966.51 342L950.92 333L950.92 315zM982.1 333L997.69 342L997.69 360L982.1 369L966.51 360L966.51 342zM966.51 360L982.1 369L982.1 387L966.51 396L950.92 387L950.92 369zM982.1 387L997.69 396L997.69 414L982.1 423L966.51 414L966.51 396zM966.51 414L982.1 423L982.1 441L966.51 450L950.92 441L950.92 423zM982.1 441L997.69 450L997.69 468L982.1 477L966.51 468L966.51 450zM966.51 468L982.1 477L982.1 495L966.51 504L950.92 495L950.92 477zM982.1 495L997.69 504L997.69 522L982.1 531L966.51 522L966.51 504zM966.51 522L982.1 531L982.1 549L966.51 558L950.92 549L950.92 531zM982.1 549L997.69 558L997.69 576L982.1 585L966.51 576L966.51 558zM997.69 -18L1013.28 -9L1013.28 9L997.69 18L982.1 9L982.1 -9zM1013.28 9L1028.87 18L1028.87 36L1013.28 45L997.69 36L997.69 18zM997.69 36L1013.28 45L1013.28 63L997.69 72L982.1 63L982.1 45zM1013.28 63L1028.87 72L1028.87 90L1013.28 99L997.69 90L997.69 72zM997.69 90L1013.28 99L1013.28 117L997.69 126L982.1 117L982.1 99zM1013.28 117L1028.87 126L1028.87 144L1013.28 153L997.69 144L997.69 126zM997.69 144L1013.28 153L1013.28 171L997.69 180L982.1 171L982.1 153zM1013.28 171L1028.87 180L1028.87 198L1013.28 207L997.69 198L997.69 180zM997.69 198L1013.28 207L1013.28 225L997.69 234L982.1 225L982.1 207zM1013.28 225L1028.87 234L1028.87 252L1013.28 261L997.69 252L997.69 234zM997.69 252L1013.28 261L1013.28 279L997.69 288L982.1 279L982.1 261zM1013.28 279L1028.87 288L1028.87 306L1013.28 315L997.69 306L997.69 288zM997.69 306L1013.28 315L1013.28 333L997.69 342L982.1 333L982.1 315zM1013.28 333L1028.87 342L1028.87 360L1013.28 369L997.69 360L997.69 342zM997.69 360L1013.28 369L1013.28 387L997.69 396L982.1 387L982.1 369zM1013.28 387L1028.87 396L1028.87 414L1013.28 423L997.69 414L997.69 396zM997.69 414L1013.28 423L1013.28 441L997.69 450L982.1 441L982.1 423zM1013.28 441L1028.87 450L1028.87 468L1013.28 477L997.69 468L997.69 450zM997.69 468L1013.28 477L1013.28 495L997.69 504L982.1 495L982.1 477zM1013.28 495L1028.87 504L1028.87 522L1013.28 531L997.69 522L997.69 504zM997.69 522L1013.28 531L1013.28 549L997.69 558L982.1 549L982.1 531zM1013.28 549L1028.87 558L1028.87 576L1013.28 585L997.69 576L997.69 558zM1028.87 -18L1044.46 -9L1044.46 9L1028.87 18L1013.28 9L1013.28 -9zM1044.46 9L1060.05 18L1060.05 36L1044.46 45L1028.87 36L1028.87 18zM1028.87 36L1044.46 45L1044.46 63L1028.87 72L1013.28 63L1013.28 45zM1044.46 63L1060.05 72L1060.05 90L1044.46 99L1028.87 90L1028.87 72zM1028.87 90L1044.46 99L1044.46 117L1028.87 126L1013.28 117L1013.28 99zM1044.46 117L1060.05 126L1060.05 144L1044.46 153L1028.87 144L1028.87 126zM1028.87 144L1044.46 153L1044.46 171L1028.87 180L1013.28 171L1013.28 153zM1044.46 171L1060.05 180L1060.05 198L1044.46 207L1028.87 198L1028.87 180zM1028.87 198L1044.46 207L1044.46 225L1028.87 234L1013.28 225L1013.28 207zM1044.46 225L1060.05 234L1060.05 252L1044.46 261L1028.87 252L1028.87 234zM1028.87 252L1044.46 261L1044.46 279L1028.87 288L1013.28 279L1013.28 261zM1044.46 279L1060.05 288L1060.05 306L1044.46 315L1028.87 306L1028.87 288zM1028.87 306L1044.46 315L1044.46 333L1028.87 342L1013.28 333L1013.28 315zM1044.46 333L1060.05 342L1060.05 360L1044.46 369L1028.87 360L1028.87 342zM1028.87 360L1044.46 369L1044.46 387L1028.87 396L1013.28 387L1013.28 369zM1044.46 387L1060.05 396L1060.05 414L1044.46 423L1028.87 414L1028.87 396zM1028.87 414L1044.46 423L1044.46 441L1028.87 450L1013.28 441L1013.28 423zM1044.46 441L1060.05 450L1060.05 468L1044.46 477L1028.87 468L1028.87 450zM1028.87 468L1044.46 477L1044.46 495L1028.87 504L1013.28 495L1013.28 477zM1044.46 495L1060.05 504L1060.05 522L1044.46 531L1028.87 522L1028.87 504zM1028.87 522L1044.46 531L1044.46 549L1028.87 558L1013.28 549L1013.28 531zM1044.46 549L1060.05 558L1060.05 576L1044.46 585L1028.87 576L1028.87 558zM1060.05 -18L1075.63 -9L1075.63 9L1060.05 18L1044.46 9L1044.46 -9zM1075.63 9L1091.22 18L1091.22 36L1075.63 45L1060.05 36L1060.05 18zM1060.05 36L1075.63 45L1075.63 63L1060.05 72L1044.46 63L1044.46 45zM1075.63 63L1091.22 72L1091.22 90L1075.63 99L1060.05 90L1060.05 72zM1060.05 90L1075.63 99L1075.63 117L1060.05 126L1044.46 117L1044.46 99zM1075.63 117L1091.22 126L1091.22 144L1075.63 153L1060.05 144L1060.05 126zM1060.05 144L1075.63 153L1075.63 171L1060.05 180L1044.46 171L1044.46 153zM1075.63 171L1091.22 180L1091.22 198L1075.63 207L1060.05 198L1060.05 180zM1060.05 198L1075.63 207L1075.63 225L1060.05 234L1044.46 225L1044.46 207zM1075.63 225L1091.22 234L1091.22 252L1075.63 261L1060.05 252L1060.05 234zM1060.05 252L1075.63 261L1075.63 279L1060.05 288L1044.46 279L1044.46 261zM1075.63 279L1091.22 288L1091.22 306L1075.63 315L1060.05 306L1060.05 288zM1060.05 306L1075.63 315L1075.63 333L1060.05 342L1044.46 333L1044.46 315zM1075.63 333L1091.22 342L1091.22 360L1075.63 369L1060.05 360L1060.05 342zM1060.05 360L1075.63 369L1075.63 387L1060.05 396L1044.46 387L1044.46 369zM1075.63 387L1091.22 396L1091.22 414L1075.63 423L1060.05 414L1060.05 396zM1060.05 414L1075.63 423L1075.63 441L1060.05 450L1044.46 441L1044.46 423zM1075.63 441L1091.22 450L1091.22 468L1075.63 477L1060.05 468L1060.05 450zM1060.05 468L1075.63 477L1075.63 495L1060.05 504L1044.46 495L1044.46 477zM1075.63 495L1091.22 504L1091.22 522L1075.63 531L1060.05 522L1060.05 504zM1060.05 522L1075.63 531L1075.63 549L1060.05 558L1044.46 549L1044.46 531zM1075.63 549L1091.22 558L1091.22 576L1075.63 585L1060.05 576L1060.05 558zM1091.22 -18L1106.81 -9L1106.81 9L1091.22 18L1075.63 9L1075.63 -9zM1106.81 9L1122.4 18L1122.4 36L1106.81 45L1091.22 36L1091.22 18zM1091.22 36L1106.81 45L1106.81 63L1091.22 72L1075.63 63L1075.63 45zM1106.81 63L1122.4 72L1122.4 90L1106.81 99L1091.22 90L1091.22 72zM1091.22 90L1106.81 99L1106.81 117L1091.22 126L1075.63 117L1075.63 99zM1106.81 117L1122.4 126L1122.4 144L1106.81 153L1091.22 144L1091.22 126zM1091.22 144L1106.81 153L1106.81 171L1091.22 180L1075.63 171L1075.63 153zM1106.81 171L1122.4 180L1122.4 198L1106.81 207L1091.22 198L1091.22 180zM1091.22 198L1106.81 207L1106.81 225L1091.22 234L1075.63 225L1075.63 207zM1106.81 225L1122.4 234L1122.4 252L1106.81 261L1091.22 252L1091.22 234zM1091.22 252L1106.81 261L1106.81 279L1091.22 288L1075.63 279L1075.63 261zM1106.81 279L1122.4 288L1122.4 306L1106.81 315L1091.22 306L1091.22 288zM1091.22 306L1106.81 315L1106.81 333L1091.22 342L1075.63 333L1075.63 315zM1106.81 333L1122.4 342L1122.4 360L1106.81 369L1091.22 360L1091.22 342zM1091.22 360L1106.81 369L1106.81 387L1091.22 396L1075.63 387L1075.63 369zM1106.81 387L1122.4 396L1122.4 414L1106.81 423L1091.22 414L1091.22 396zM1091.22 414L1106.81 423L1106.81 441L1091.22 450L1075.63 441L1075.63 423zM1106.81 441L1122.4 450L1122.4 468L1106.81 477L1091.22 468L1091.22 450zM1091.22 468L1106.81 477L1106.81 495L1091.22 504L1075.63 495L1075.63 477zM1106.81 495L1122.4 504L1122.4 522L1106.81 531L1091.22 522L1091.22 504zM1091.22 522L1106.81 531L1106.81 549L1091.22 558L1075.63 549L1075.63 531zM1106.81 549L1122.4 558L1122.4 576L1106.81 585L1091.22 576L1091.22 558zM1122.4 -18L1137.99 -9L1137.99 9L1122.4 18L1106.81 9L1106.81 -9zM1137.99 9L1153.58 18L1153.58 36L1137.99 45L1122.4 36L1122.4 18zM1122.4 36L1137.99 45L1137.99 63L1122.4 72L1106.81 63L1106.81 45zM1137.99 63L1153.58 72L1153.58 90L1137.99 99L1122.4 90L1122.4 72zM1122.4 90L1137.99 99L1137.99 117L1122.4 126L1106.81 117L1106.81 99zM1137.99 117L1153.58 126L1153.58 144L1137.99 153L1122.4 144L1122.4 126zM1122.4 144L1137.99 153L1137.99 171L1122.4 180L1106.81 171L1106.81 153zM1137.99 171L1153.58 180L1153.58 198L1137.99 207L1122.4 198L1122.4 180zM1122.4 198L1137.99 207L1137.99 225L1122.4 234L1106.81 225L1106.81 207zM1137.99 225L1153.58 234L1153.58 252L1137.99 261L1122.4 252L1122.4 234zM1122.4 252L1137.99 261L1137.99 279L1122.4 288L1106.81 279L1106.81 261zM1137.99 279L1153.58 288L1153.58 306L1137.99 315L1122.4 306L1122.4 288zM1122.4 306L1137.99 315L1137.99 333L1122.4 342L1106.81 333L1106.81 315zM1137.99 333L1153.58 342L1153.58 360L1137.99 369L1122.4 360L1122.4 342zM1122.4 360L1137.99 369L1137.99 387L1122.4 396L1106.81 387L1106.81 369zM1137.99 387L1153.58 396L1153.58 414L1137.99 423L1122.4 414L1122.4 396zM1122.4 414L1137.99 423L1137.99 441L1122.4 450L1106.81 441L1106.81 423zM1137.99 441L1153.58 450L1153.58 468L1137.99 477L1122.4 468L1122.4 450zM1122.4 468L1137.99 477L1137.99 495L1122.4 504L1106.81 495L1106.81 477zM1137.99 495L1153.58 504L1153.58 522L1137.99 531L1122.4 522L1122.4 504zM1122.4 522L1137.99 531L1137.99 549L1122.4 558L1106.81 549L1106.81 531zM1137.99 549L1153.58 558L1153.58 576L1137.99 585L1122.4 576L1122.4 558zM1153.58 -18L1169.17 -9L1169.17 9L1153.58 18L1137.99 9L1137.99 -9zM1169.17 9L1184.76 18L1184.76 36L1169.17 45L1153.58 36L1153.58 18zM1153.58 36L1169.17 45L1169.17 63L1153.58 72L1137.99 63L1137.99 45zM1169.17 63L1184.76 72L1184.76 90L1169.17 99L1153.58 90L1153.58 72zM1153.58 90L1169.17 99L1169.17 117L1153.58 126L1137.99 117L1137.99 99zM1169.17 117L1184.76 126L1184.76 144L1169.17 153L1153.58 144L1153.58 126zM1153.58 144L1169.17 153L1169.17 171L1153.58 180L1137.99 171L1137.99 153zM1169.17 171L1184.76 180L1184.76 198L1169.17 207L1153.58 198L1153.58 180zM1153.58 198L1169.17 207L1169.17 225L1153.58 234L1137.99 225L1137.99 207zM1169.17 225L1184.76 234L1184.76 252L1169.17 261L1153.58 252L1153.58 234zM1153.58 252L1169.17 261L1169.17 279L1153.58 288L1137.99 279L1137.99 261zM1169.17 279L1184.76 288L1184.76 306L1169.17 315L1153.58 306L1153.58 288zM1153.58 306L1169.17 315L1169.17 333L1153.58 342L1137.99 333L1137.99 315zM1169.17 333L1184.76 342L1184.76 360L1169.17 369L1153.58 360L1153.58 342zM1153.58 360L1169.17 369L1169.17 387L1153.58 396L1137.99 387L1137.99 369zM1169.17 387L1184.76 396L1184.76 414L1169.17 423L1153.58 414L1153.58 396zM1153.58 414L1169.17 423L1169.17 441L1153.58 450L1137.99 441L1137.99 423zM1169.17 441L1184.76 450L1184.76 468L1169.17 477L1153.58 468L1153.58 450zM1153.58 468L1169.17 477L1169.17 495L1153.58 504L1137.99 495L1137.99 477zM1169.17 495L1184.76 504L1184.76 522L1169.17 531L1153.58 522L1153.58 504zM1153.58 522L1169.17 531L1169.17 549L1153.58 558L1137.99 549L1137.99 531zM1169.17 549L1184.76 558L1184.76 576L1169.17 585L1153.58 576L1153.58 558zM1184.76 -18L1200.35 -9L1200.35 9L1184.76 18L1169.17 9L1169.17 -9zM1200.35 9L1215.93 18L1215.93 36L1200.35 45L1184.76 36L1184.76 18zM1184.76 36L1200.35 45L1200.35 63L1184.76 72L1169.17 63L1169.17 45zM1200.35 63L1215.93 72L1215.93 90L1200.35 99L1184.76 90L1184.76 72zM1184.76 90L1200.35 99L1200.35 117L1184.76 126L1169.17 117L1169.17 99zM1200.35 117L1215.93 126L1215.93 144L1200.35 153L1184.76 144L1184.76 126zM1184.76 144L1200.35 153L1200.35 171L1184.76 180L1169.17 171L1169.17 153zM1200.35 171L1215.93 180L1215.93 198L1200.35 207L1184.76 198L1184.76 180zM1184.76 198L1200.35 207L1200.35 225L1184.76 234L1169.17 225L1169.17 207zM1200.35 225L1215.93 234L1215.93 252L1200.35 261L1184.76 252L1184.76 234zM1184.76 252L1200.35 261L1200.35 279L1184.76 288L1169.17 279L1169.17 261zM1200.35 279L1215.93 288L1215.93 306L1200.35 315L1184.76 306L1184.76 288zM1184.76 306L1200.35 315L1200.35 333L1184.76 342L1169.17 333L1169.17 315zM1200.35 333L1215.93 342L1215.93 360L1200.35 369L1184.76 360L1184.76 342zM1184.76 360L1200.35 369L1200.35 387L1184.76 396L1169.17 387L1169.17 369zM1200.35 387L1215.93 396L1215.93 414L1200.35 423L1184.76 414L1184.76 396zM1184.76 414L1200.35 423L1200.35 441L1184.76 450L1169.17 441L1169.17 423zM1200.35 441L1215.93 450L1215.93 468L1200.35 477L1184.76 468L1184.76 450zM1184.76 468L1200.35 477L1200.35 495L1184.76 504L1169.17 495L1169.17 477zM1200.35 495L1215.93 504L1215.93 522L1200.35 531L1184.76 522L1184.76 504zM1184.76 522L1200.35 531L1200.35 549L1184.76 558L1169.17 549L1169.17 531zM1200.35 549L1215.93 558L1215.93 576L1200.35 585L1184.76 576L1184.76 558zM1215.93 -18L1231.52 -9L1231.52 9L1215.93 18L1200.35 9L1200.35 -9zM1231.52 9L1247.11 18L1247.11 36L1231.52 45L1215.93 36L1215.93 18zM1215.93 36L1231.52 45L1231.52 63L1215.93 72L1200.35 63L1200.35 45zM1231.52 63L1247.11 72L1247.11 90L1231.52 99L1215.93 90L1215.93 72zM1215.93 90L1231.52 99L1231.52 117L1215.93 126L1200.35 117L1200.35 99zM1231.52 117L1247.11 126L1247.11 144L1231.52 153L1215.93 144L1215.93 126zM1215.93 144L1231.52 153L1231.52 171L1215.93 180L1200.35 171L1200.35 153zM1231.52 171L1247.11 180L1247.11 198L1231.52 207L1215.93 198L1215.93 180zM1215.93 198L1231.52 207L1231.52 225L1215.93 234L1200.35 225L1200.35 207zM1231.52 225L1247.11 234L1247.11 252L1231.52 261L1215.93 252L1215.93 234zM1215.93 252L1231.52 261L1231.52 279L1215.93 288L1200.35 279L1200.35 261zM1231.52 279L1247.11 288L1247.11 306L1231.52 315L1215.93 306L1215.93 288zM1215.93 306L1231.52 315L1231.52 333L1215.93 342L1200.35 333L1200.35 315zM1231.52 333L1247.11 342L1247.11 360L1231.52 369L1215.93 360L1215.93 342zM1215.93 360L1231.52 369L1231.52 387L1215.93 396L1200.35 387L1200.35 369zM1231.52 387L1247.11 396L1247.11 414L1231.52 423L1215.93 414L1215.93 396zM1215.93 414L1231.52 423L1231.52 441L1215.93 450L1200.35 441L1200.35 423zM1231.52 441L1247.11 450L1247.11 468L1231.52 477L1215.93 468L1215.93 450zM1215.93 468L1231.52 477L1231.52 495L1215.93 504L1200.35 495L1200.35 477zM1231.52 495L1247.11 504L1247.11 522L1231.52 531L1215.93 522L1215.93 504zM1215.93 522L1231.52 531L1231.52 549L1215.93 558L1200.35 549L1200.35 531zM1231.52 549L1247.11 558L1247.11 576L1231.52 585L1215.93 576L1215.93 558zM1247.11 -18L1262.7 -9L1262.7 9L1247.11 18L1231.52 9L1231.52 -9zM1262.7 9L1278.29 18L1278.29 36L1262.7 45L1247.11 36L1247.11 18zM1247.11 36L1262.7 45L1262.7 63L1247.11 72L1231.52 63L1231.52 45zM1262.7 63L1278.29 72L1278.29 90L1262.7 99L1247.11 90L1247.11 72zM1247.11 90L1262.7 99L1262.7 117L1247.11 126L1231.52 117L1231.52 99zM1262.7 117L1278.29 126L1278.29 144L1262.7 153L1247.11 144L1247.11 126zM1247.11 144L1262.7 153L1262.7 171L1247.11 180L1231.52 171L1231.52 153zM1262.7 171L1278.29 180L1278.29 198L1262.7 207L1247.11 198L1247.11 180zM1247.11 198L1262.7 207L1262.7 225L1247.11 234L1231.52 225L1231.52 207zM1262.7 225L1278.29 234L1278.29 252L1262.7 261L1247.11 252L1247.11 234zM1247.11 252L1262.7 261L1262.7 279L1247.11 288L1231.52 279L1231.52 261zM1262.7 279L1278.29 288L1278.29 306L1262.7 315L1247.11 306L1247.11 288zM1247.11 306L1262.7 315L1262.7 333L1247.11 342L1231.52 333L1231.52 315zM1262.7 333L1278.29 342L1278.29 360L1262.7 369L1247.11 360L1247.11 342zM1247.11 360L1262.7 369L1262.7 387L1247.11 396L1231.52 387L1231.52 369zM1262.7 387L1278.29 396L1278.29 414L1262.7 423L1247.11 414L1247.11 396zM1247.11 414L1262.7 423L1262.7 441L1247.11 450L1231.52 441L1231.52 423zM1262.7 441L1278.29 450L1278.29 468L1262.7 477L1247.11 468L1247.11 450zM1247.11 468L1262.7 477L1262.7 495L1247.11 504L1231.52 495L1231.52 477zM1262.7 495L1278.29 504L1278.29 522L1262.7 531L1247.11 522L1247.11 504zM1247.11 522L1262.7 531L1262.7 549L1247.11 558L1231.52 549L1231.52 531zM1262.7 549L1278.29 558L1278.29 576L1262.7 585L1247.11 576L1247.11 558zM1278.29 -18L1293.88 -9L1293.88 9L1278.29 18L1262.7 9L1262.7 -9zM1293.88 9L1309.47 18L1309.47 36L1293.88 45L1278.29 36L1278.29 18zM1278.29 36L1293.88 45L1293.88 63L1278.29 72L1262.7 63L1262.7 45zM1293.88 63L1309.47 72L1309.47 90L1293.88 99L1278.29 90L1278.29 72zM1278.29 90L1293.88 99L1293.88 117L1278.29 126L1262.7 117L1262.7 99zM1293.88 117L1309.47 126L1309.47 144L1293.88 153L1278.29 144L1278.29 126zM1278.29 144L1293.88 153L1293.88 171L1278.29 180L1262.7 171L1262.7 153zM1293.88 171L1309.47 180L1309.47 198L1293.88 207L1278.29 198L1278.29 180zM1278.29 198L1293.88 207L1293.88 225L1278.29 234L1262.7 225L1262.7 207zM1293.88 225L1309.47 234L1309.47 252L1293.88 261L1278.29 252L1278.29 234zM1278.29 252L1293.88 261L1293.88 279L1278.29 288L1262.7 279L1262.7 261zM1293.88 279L1309.47 288L1309.47 306L1293.88 315L1278.29 306L1278.29 288zM1278.29 306L1293.88 315L1293.88 333L1278.29 342L1262.7 333L1262.7 315zM1293.88 333L1309.47 342L1309.47 360L1293.88 369L1278.29 360L1278.29 342zM1278.29 360L1293.88 369L1293.88 387L1278.29 396L1262.7 387L1262.7 369zM1293.88 387L1309.47 396L1309.47 414L1293.88 423L1278.29 414L1278.29 396zM1278.29 414L1293.88 423L1293.88 441L1278.29 450L1262.7 441L1262.7 423zM1293.88 441L1309.47 450L1309.47 468L1293.88 477L1278.29 468L1278.29 450zM1278.29 468L1293.88 477L1293.88 495L1278.29 504L1262.7 495L1262.7 477zM1293.88 495L1309.47 504L1309.47 522L1293.88 531L1278.29 522L1278.29 504zM1278.29 522L1293.88 531L1293.88 549L1278.29 558L1262.7 549L1262.7 531zM1293.88 549L1309.47 558L1309.47 576L1293.88 585L1278.29 576L1278.29 558zM1309.47 -18L1325.06 -9L1325.06 9L1309.47 18L1293.88 9L1293.88 -9zM1325.06 9L1340.65 18L1340.65 36L1325.06 45L1309.47 36L1309.47 18zM1309.47 36L1325.06 45L1325.06 63L1309.47 72L1293.88 63L1293.88 45zM1325.06 63L1340.65 72L1340.65 90L1325.06 99L1309.47 90L1309.47 72zM1309.47 90L1325.06 99L1325.06 117L1309.47 126L1293.88 117L1293.88 99zM1325.06 117L1340.65 126L1340.65 144L1325.06 153L1309.47 144L1309.47 126zM1309.47 144L1325.06 153L1325.06 171L1309.47 180L1293.88 171L1293.88 153zM1325.06 171L1340.65 180L1340.65 198L1325.06 207L1309.47 198L1309.47 180zM1309.47 198L1325.06 207L1325.06 225L1309.47 234L1293.88 225L1293.88 207zM1325.06 225L1340.65 234L1340.65 252L1325.06 261L1309.47 252L1309.47 234zM1309.47 252L1325.06 261L1325.06 279L1309.47 288L1293.88 279L1293.88 261zM1325.06 279L1340.65 288L1340.65 306L1325.06 315L1309.47 306L1309.47 288zM1309.47 306L1325.06 315L1325.06 333L1309.47 342L1293.88 333L1293.88 315zM1325.06 333L1340.65 342L1340.65 360L1325.06 369L1309.47 360L1309.47 342zM1309.47 360L1325.06 369L1325.06 387L1309.47 396L1293.88 387L1293.88 369zM1325.06 387L1340.65 396L1340.65 414L1325.06 423L1309.47 414L1309.47 396zM1309.47 414L1325.06 423L1325.06 441L1309.47 450L1293.88 441L1293.88 423zM1325.06 441L1340.65 450L1340.65 468L1325.06 477L1309.47 468L1309.47 450zM1309.47 468L1325.06 477L1325.06 495L1309.47 504L1293.88 495L1293.88 477zM1325.06 495L1340.65 504L1340.65 522L1325.06 531L1309.47 522L1309.47 504zM1309.47 522L1325.06 531L1325.06 549L1309.47 558L1293.88 549L1293.88 531zM1325.06 549L1340.65 558L1340.65 576L1325.06 585L1309.47 576L1309.47 558zM1340.65 -18L1356.23 -9L1356.23 9L1340.65 18L1325.06 9L1325.06 -9zM1356.23 9L1371.82 18L1371.82 36L1356.23 45L1340.65 36L1340.65 18zM1340.65 36L1356.23 45L1356.23 63L1340.65 72L1325.06 63L1325.06 45zM1356.23 63L1371.82 72L1371.82 90L1356.23 99L1340.65 90L1340.65 72zM1340.65 90L1356.23 99L1356.23 117L1340.65 126L1325.06 117L1325.06 99zM1356.23 117L1371.82 126L1371.82 144L1356.23 153L1340.65 144L1340.65 126zM1340.65 144L1356.23 153L1356.23 171L1340.65 180L1325.06 171L1325.06 153zM1356.23 171L1371.82 180L1371.82 198L1356.23 207L1340.65 198L1340.65 180zM1340.65 198L1356.23 207L1356.23 225L1340.65 234L1325.06 225L1325.06 207zM1356.23 225L1371.82 234L1371.82 252L1356.23 261L1340.65 252L1340.65 234zM1340.65 252L1356.23 261L1356.23 279L1340.65 288L1325.06 279L1325.06 261zM1356.23 279L1371.82 288L1371.82 306L1356.23 315L1340.65 306L1340.65 288zM1340.65 306L1356.23 315L1356.23 333L1340.65 342L1325.06 333L1325.06 315zM1356.23 333L1371.82 342L1371.82 360L1356.23 369L1340.65 360L1340.65 342zM1340.65 360L1356.23 369L1356.23 387L1340.65 396L1325.06 387L1325.06 369zM1356.23 387L1371.82 396L1371.82 414L1356.23 423L1340.65 414L1340.65 396zM1340.65 414L1356.23 423L1356.23 441L1340.65 450L1325.06 441L1325.06 423zM1356.23 441L1371.82 450L1371.82 468L1356.23 477L1340.65 468L1340.65 450zM1340.65 468L1356.23 477L1356.23 495L1340.65 504L1325.06 495L1325.06 477zM1356.23 495L1371.82 504L1371.82 522L1356.23 531L1340.65 522L1340.65 504zM1340.65 522L1356.23 531L1356.23 549L1340.65 558L1325.06 549L1325.06 531zM1356.23 549L1371.82 558L1371.82 576L1356.23 585L1340.65 576L1340.65 558zM1371.82 -18L1387.41 -9L1387.41 9L1371.82 18L1356.23 9L1356.23 -9zM1387.41 9L1403 18L1403 36L1387.41 45L1371.82 36L1371.82 18zM1371.82 36L1387.41 45L1387.41 63L1371.82 72L1356.23 63L1356.23 45zM1387.41 63L1403 72L1403 90L1387.41 99L1371.82 90L1371.82 72zM1371.82 90L1387.41 99L1387.41 117L1371.82 126L1356.23 117L1356.23 99zM1387.41 117L1403 126L1403 144L1387.41 153L1371.82 144L1371.82 126zM1371.82 144L1387.41 153L1387.41 171L1371.82 180L1356.23 171L1356.23 153zM1387.41 171L1403 180L1403 198L1387.41 207L1371.82 198L1371.82 180zM1371.82 198L1387.41 207L1387.41 225L1371.82 234L1356.23 225L1356.23 207zM1387.41 225L1403 234L1403 252L1387.41 261L1371.82 252L1371.82 234zM1371.82 252L1387.41 261L1387.41 279L1371.82 288L1356.23 279L1356.23 261zM1387.41 279L1403 288L1403 306L1387.41 315L1371.82 306L1371.82 288zM1371.82 306L1387.41 315L1387.41 333L1371.82 342L1356.23 333L1356.23 315zM1387.41 333L1403 342L1403 360L1387.41 369L1371.82 360L1371.82 342zM1371.82 360L1387.41 369L1387.41 387L1371.82 396L1356.23 387L1356.23 369zM1387.41 387L1403 396L1403 414L1387.41 423L1371.82 414L1371.82 396zM1371.82 414L1387.41 423L1387.41 441L1371.82 450L1356.23 441L1356.23 423zM1387.41 441L1403 450L1403 468L1387.41 477L1371.82 468L1371.82 450zM1371.82 468L1387.41 477L1387.41 495L1371.82 504L1356.23 495L1356.23 477zM1387.41 495L1403 504L1403 522L1387.41 531L1371.82 522L1371.82 504zM1371.82 522L1387.41 531L1387.41 549L1371.82 558L1356.23 549L1356.23 531zM1387.41 549L1403 558L1403 576L1387.41 585L1371.82 576L1371.82 558zM1403 -18L1418.59 -9L1418.59 9L1403 18L1387.41 9L1387.41 -9zM1418.59 9L1434.18 18L1434.18 36L1418.59 45L1403 36L1403 18zM1403 36L1418.59 45L1418.59 63L1403 72L1387.41 63L1387.41 45zM1418.59 63L1434.18 72L1434.18 90L1418.59 99L1403 90L1403 72zM1403 90L1418.59 99L1418.59 117L1403 126L1387.41 117L1387.41 99zM1418.59 117L1434.18 126L1434.18 144L1418.59 153L1403 144L1403 126zM1403 144L1418.59 153L1418.59 171L1403 180L1387.41 171L1387.41 153zM1418.59 171L1434.18 180L1434.18 198L1418.59 207L1403 198L1403 180zM1403 198L1418.59 207L1418.59 225L1403 234L1387.41 225L1387.41 207zM1418.59 225L1434.18 234L1434.18 252L1418.59 261L1403 252L1403 234zM1403 252L1418.59 261L1418.59 279L1403 288L1387.41 279L1387.41 261zM1418.59 279L1434.18 288L1434.18 306L1418.59 315L1403 306L1403 288zM1403 306L1418.59 315L1418.59 333L1403 342L1387.41 333L1387.41 315zM1418.59 333L1434.18 342L1434.18 360L1418.59 369L1403 360L1403 342zM1403 360L1418.59 369L1418.59 387L1403 396L1387.41 387L1387.41 369zM1418.59 387L1434.18 396L1434.18 414L1418.59 423L1403 414L1403 396zM1403 414L1418.59 423L1418.59 441L1403 450L1387.41 441L1387.41 423zM1418.59 441L1434.18 450L1434.18 468L1418.59 477L1403 468L1403 450zM1403 468L1418.59 477L1418.59 495L1403 504L1387.41 495L1387.41 477zM1418.59 495L1434.18 504L1434.18 522L1418.59 531L1403 522L1403 504zM1403 522L1418.59 531L1418.59 549L1403 558L1387.41 549L1387.41 531zM1418.59 549L1434.18 558L1434.18 576L1418.59 585L1403 576L1403 558zM1434.18 -18L1449.77 -9L1449.77 9L1434.18 18L1418.59 9L1418.59 -9zM1449.77 9L1465.36 18L1465.36 36L1449.77 45L1434.18 36L1434.18 18zM1434.18 36L1449.77 45L1449.77 63L1434.18 72L1418.59 63L1418.59 45zM1449.77 63L1465.36 72L1465.36 90L1449.77 99L1434.18 90L1434.18 72zM1434.18 90L1449.77 99L1449.77 117L1434.18 126L1418.59 117L1418.59 99zM1449.77 117L1465.36 126L1465.36 144L1449.77 153L1434.18 144L1434.18 126zM1434.18 144L1449.77 153L1449.77 171L1434.18 180L1418.59 171L1418.59 153zM1449.77 171L1465.36 180L1465.36 198L1449.77 207L1434.18 198L1434.18 180zM1434.18 198L1449.77 207L1449.77 225L1434.18 234L1418.59 225L1418.59 207zM1449.77 225L1465.36 234L1465.36 252L1449.77 261L1434.18 252L1434.18 234zM1434.18 252L1449.77 261L1449.77 279L1434.18 288L1418.59 279L1418.59 261zM1449.77 279L1465.36 288L1465.36 306L1449.77 315L1434.18 306L1434.18 288zM1434.18 306L1449.77 315L1449.77 333L1434.18 342L1418.59 333L1418.59 315zM1449.77 333L1465.36 342L1465.36 360L1449.77 369L1434.18 360L1434.18 342zM1434.18 360L1449.77 369L1449.77 387L1434.18 396L1418.59 387L1418.59 369zM1449.77 387L1465.36 396L1465.36 414L1449.77 423L1434.18 414L1434.18 396zM1434.18 414L1449.77 423L1449.77 441L1434.18 450L1418.59 441L1418.59 423zM1449.77 441L1465.36 450L1465.36 468L1449.77 477L1434.18 468L1434.18 450zM1434.18 468L1449.77 477L1449.77 495L1434.18 504L1418.59 495L1418.59 477zM1449.77 495L1465.36 504L1465.36 522L1449.77 531L1434.18 522L1434.18 504zM1434.18 522L1449.77 531L1449.77 549L1434.18 558L1418.59 549L1418.59 531zM1449.77 549L1465.36 558L1465.36 576L1449.77 585L1434.18 576L1434.18 558z" stroke="url(&quot;#SvgjsLinearGradient8391&quot;)" stroke-width="2"></path></g><defs><mask id="SvgjsMask8390"><rect width="1440" height="560" fill="#ffffff"></rect></mask><linearGradient x1="1219.9679999999998" y1="-220.02399999999997" x2="220.03199999999998" y2="780.024" gradientUnits="userSpaceOnUse" id="SvgjsLinearGradient8391"><stop stop-color="rgba(96, 96, 96, 1)" offset="0.12"></stop><stop stop-color="rgba(255, 255, 255, 1)" offset="0.6"></stop><stop stop-color="rgba(255, 255, 255, 1)" offset="0.6"></stop><stop stop-color="rgba(255, 255, 255, 1)" offset="0.6"></stop><stop stop-color="rgba(255, 255, 255, 1)" offset="0.8"></stop><stop stop-color="rgba(255, 255, 255, 1)" offset="0.81"></stop></linearGradient></defs></svg>